<svg id="Layer_1" data-name="Layer 1" xmlns="http://www.w3.org/2000/svg" viewBox="0 0 35.56 46.78"><defs><style>.cls-1{fill:none;stroke:#fff;stroke-miterlimit:10;stroke-width:2px;}</style></defs><title>deleteHover</title><path class="cls-1" d="M29.85,44.78c-1,.94-4.47,1-4.47,1H10.21s-3.51,0-4.5-1-1.32-5.32-1.32-5.32L2.71,5.74H32.85L31.17,39.46S31,43.69,29.85,44.78Z" transform="translate(0 0)"/><line class="cls-1" x1="25.39" y1="11.45" x2="25.39" y2="40.06"/><line class="cls-1" x1="17.81" y1="11.45" x2="17.81" y2="40.06"/><line class="cls-1" x1="10.16" y1="11.45" x2="10.16" y2="40.06"/><line class="cls-1" y1="5.74" x2="35.56" y2="5.74"/><path class="cls-1" d="M25.26,5.74V3a2,2,0,0,0-2-2h-11a2,2,0,0,0-2,2V5.74Z" transform="translate(0 0)"/></svg>