<?xml version="1.0" encoding="utf-8"?>
<!-- Generator: Adobe Illustrator 21.0.0, SVG Export Plug-In . SVG Version: 6.00 Build 0)  -->
<svg version="1.1" id="Capa_1" xmlns="http://www.w3.org/2000/svg" xmlns:xlink="http://www.w3.org/1999/xlink" x="0px" y="0px"
	 viewBox="0 0 57 57" style="enable-background:new 0 0 57 57;" xml:space="preserve">
<g>
	<path d="M1,9.5l26.4,18.6l0.5,0.4l-0.5,0.4L1.1,47.4c0,0-0.1,0-0.1,0L1,9.5C1,9.5,1,9.5,1,9.5C1,9.5,1,9.5,1,9.5C1,9.5,1,9.5,1,9.5
		 M29,9.5l26.9,18.9c0,0,0,0,0,0.1L29.1,47.4c0,0-0.1,0-0.1,0V29.7v-1.9v-0.5L29,9.5C29,9.5,29,9.5,29,9.5C29,9.5,29,9.5,29,9.5
		C29,9.5,29,9.5,29,9.5 M29,8.5c-0.1,0-0.3,0-0.4,0.1C28.2,8.8,28,9.1,28,9.5v17.8L1.6,8.7C1.4,8.6,1.2,8.5,1,8.5
		c-0.1,0-0.3,0-0.4,0.1C0.2,8.8,0,9.1,0,9.5v38c0,0.4,0.2,0.7,0.5,0.9c0.1,0.1,0.3,0.1,0.5,0.1s0.4-0.1,0.6-0.2L28,29.7v17.8
		c0,0.4,0.2,0.7,0.5,0.9c0.1,0.1,0.3,0.1,0.5,0.1s0.4-0.1,0.6-0.2l27-19c0.3-0.2,0.4-0.5,0.4-0.8s-0.2-0.6-0.4-0.8l-27-19
		C29.4,8.6,29.2,8.5,29,8.5L29,8.5z"/>
</g>
</svg>
