<?xml version="1.0" encoding="utf-8"?>
<!-- Generator: Adobe Illustrator 21.0.0, SVG Export Plug-In . SVG Version: 6.00 Build 0)  -->
<svg version="1.1" id="Capa_1" xmlns="http://www.w3.org/2000/svg" xmlns:xlink="http://www.w3.org/1999/xlink" x="0px" y="0px"
	 viewBox="0 0 60 60" style="enable-background:new 0 0 60 60;" xml:space="preserve">
<style type="text/css">
	.st0{fill:#FFFFFF;}
</style>
<g>
	<path class="st0" d="M28.4,7.8c-1-0.6-2.1-0.5-3.1,0c0,0-0.1,0.1-0.1,0.1L11.6,19.4H1c-0.6,0-1,0.4-1,1v19c0,0.3,0.1,0.5,0.3,0.7
		s0.4,0.3,0.7,0.3l10.6,0l13.5,12.4c0,0,0.1,0.1,0.2,0.1c0.5,0.3,1,0.4,1.6,0.4c0.5,0,1-0.1,1.5-0.4c1-0.6,1.6-1.6,1.6-2.8V10.5
		C30,9.4,29.4,8.3,28.4,7.8z M28,50.2c0,0.4-0.2,0.8-0.6,1c-0.2,0.1-0.5,0.3-1,0L13,38.9v-4.6c0-0.6-0.4-1-1-1s-1,0.4-1,1v4l-9,0
		v-17h9v4c0,0.6,0.4,1,1,1s1-0.4,1-1v-4.5L26.4,9.5c0.5-0.2,0.9-0.1,1,0c0.4,0.2,0.6,0.6,0.6,1V50.2z"/>
	<path class="st0" d="M52,29.9c0-8.3-5.3-15.8-13.2-18.4c-0.5-0.2-1.1,0.1-1.3,0.6c-0.2,0.5,0.1,1.1,0.6,1.3
		C45.3,15.7,50,22.4,50,29.9c0,7.5-4.8,14.1-11.8,16.6c-0.5,0.2-0.8,0.7-0.6,1.3c0.1,0.4,0.5,0.7,0.9,0.7c0.1,0,0.2,0,0.3-0.1
		C46.7,45.6,52,38.2,52,29.9z"/>
	<path class="st0" d="M44.5,6.4c-0.5-0.2-1.1,0-1.3,0.5c-0.2,0.5,0,1.1,0.5,1.3C52.4,11.9,58,20.4,58,29.9c0,9.8-5.9,18.4-15,21.9
		c-0.5,0.2-0.8,0.8-0.6,1.3c0.2,0.4,0.5,0.6,0.9,0.6c0.1,0,0.2,0,0.4-0.1C53.6,49.8,60,40.5,60,29.9C60,19.6,53.9,10.4,44.5,6.4z"/>
	<path class="st0" d="M43,29.9c0-6-4-11.3-9.7-13c-0.5-0.2-1.1,0.2-1.2,0.7c-0.2,0.5,0.2,1.1,0.7,1.2c4.9,1.4,8.3,6,8.3,11
		s-3.4,9.6-8.3,11c-0.5,0.2-0.8,0.7-0.7,1.2c0.1,0.4,0.5,0.7,1,0.7c0.1,0,0.2,0,0.3,0C39,41.2,43,35.8,43,29.9z"/>
</g>
</svg>
