<?xml version="1.0" encoding="utf-8"?>
<!-- Generator: Adobe Illustrator 21.0.0, SVG Export Plug-In . SVG Version: 6.00 Build 0)  -->
<svg version="1.1" id="Capa_1" xmlns="http://www.w3.org/2000/svg" xmlns:xlink="http://www.w3.org/1999/xlink" x="0px" y="0px"
	 viewBox="0 0 46 46" style="enable-background:new 0 0 46 46;" xml:space="preserve">
<style type="text/css">
	.st0{fill:#FFFFFF;}
</style>
<g>
	<path class="st0" d="M29.9,0.4c-1-0.6-2.1-0.5-3.1,0c0,0-0.1,0.1-0.1,0.1L13.1,12H2.5c-0.6,0-1,0.4-1,1v19c0,0.3,0.1,0.5,0.3,0.7
		S2.2,33,2.5,33l10.6,0l13.5,12.4c0,0,0.1,0.1,0.2,0.1c0.5,0.3,1,0.4,1.6,0.4c0.5,0,1-0.1,1.5-0.4c1-0.6,1.6-1.6,1.6-2.8V3.2
		C31.5,2,30.9,1,29.9,0.4z M29.5,42.8c0,0.4-0.2,0.8-0.6,1c-0.2,0.1-0.5,0.3-1,0L14.5,31.6V27c0-0.6-0.4-1-1-1s-1,0.4-1,1v4l-9,0V14
		h9v4c0,0.6,0.4,1,1,1s1-0.4,1-1v-4.5L27.9,2.1c0.5-0.2,0.9-0.1,1,0c0.4,0.2,0.6,0.6,0.6,1C29.5,3.2,29.5,42.8,29.5,42.8z"/>
	<path class="st0" d="M34.8,9.5c-0.5-0.2-1.1,0.2-1.2,0.7c-0.2,0.5,0.2,1.1,0.7,1.2c4.9,1.4,8.3,6,8.3,11s-3.4,9.6-8.3,11
		c-0.5,0.2-0.8,0.7-0.7,1.2c0.1,0.4,0.5,0.7,1,0.7c0.1,0,0.2,0,0.3,0c5.7-1.7,9.7-7,9.7-13S40.5,11.2,34.8,9.5z"/>
</g>
</svg>
