<?xml version="1.0" encoding="utf-8"?>
<!-- Generator: Adobe Illustrator 21.0.0, SVG Export Plug-In . SVG Version: 6.00 Build 0)  -->
<svg version="1.1" id="Capa_1" xmlns="http://www.w3.org/2000/svg" xmlns:xlink="http://www.w3.org/1999/xlink" x="0px" y="0px"
	 viewBox="0 0 512 512" style="enable-background:new 0 0 512 512;" xml:space="preserve">
<style type="text/css">
	.st0{fill:#FFFFFF;}
	.st1{fill:#FFFFFF;stroke:#FFFFFF;stroke-width:2;stroke-miterlimit:10;}
</style>
<g>
	<path class="st0" d="M510.4,209.9c-1.7-2.6-4.6-4.1-7.7-4.1h-79.6v-67.1c0-5.2-4.2-9.4-9.4-9.4H212.4V70.8c0-5.2-4.2-9.4-9.4-9.4
		H9.4c-5.2,0-9.4,4.2-9.4,9.4v370.4c0,0.3,0,0.7,0.1,1c0,0.1,0,0.1,0,0.2c0,0.3,0.1,0.6,0.1,0.9c0,0.1,0,0.2,0.1,0.3
		c0.1,0.3,0.1,0.5,0.2,0.8c0,0.1,0.1,0.2,0.1,0.3c0.1,0.3,0.2,0.5,0.3,0.8c0,0.1,0.1,0.1,0.1,0.2c0.2,0.3,0.3,0.6,0.5,0.9
		c0,0,0,0,0,0c0,0,0,0,0,0.1c0.2,0.3,0.4,0.5,0.6,0.8c0.1,0.1,0.1,0.2,0.2,0.3c0.2,0.2,0.3,0.3,0.5,0.5c0.1,0.1,0.2,0.2,0.3,0.2
		c0.2,0.2,0.4,0.3,0.6,0.5c0.1,0,0.1,0.1,0.2,0.1c0.3,0.2,0.6,0.4,0.9,0.5c0,0,0.1,0,0.1,0.1c0.3,0.1,0.5,0.3,0.8,0.4
		c0.1,0,0.2,0.1,0.3,0.1c0.2,0.1,0.5,0.2,0.8,0.2c0.1,0,0.2,0.1,0.3,0.1c0.3,0.1,0.5,0.1,0.8,0.1c0.1,0,0.2,0,0.3,0
		c0.4,0,0.7,0.1,1.1,0.1h404.4c3.8,0,7.3-2.4,8.7-5.9l88.9-226.1C512.5,215.7,512.1,212.4,510.4,209.9z M18.7,80.1h175v58.5
		c0,5.2,4.2,9.4,9.4,9.4h201.3v57.8H98.3c-3.8,0-7.3,2.4-8.7,5.9L18.7,391.8V80.1z M407.3,431.9H23.1l81.5-207.4h309.1h75.2
		L407.3,431.9z"/>
</g>
<path class="st1" d="M344.8,267.1c-0.3-0.4-1-0.6-1.8-0.6l-90,9.5c-1.4,0.2-3,1.2-3.7,2.3l-8.2,14.2l-5.7,10l-34.6,60
	c-2-5.2-8-8.6-16.9-8.6c-15,0-32.8,9.5-39.6,21.3s0,21.3,15,21.3c15,0,32.8-9.5,39.6-21.3c0.3-0.5,0.6-1.1,0.8-1.6
	c0.1-0.2,0.3-0.3,0.4-0.5l39.6-68.5l84.2-8.9l-24.9,43.1c-2-5.2-8-8.6-16.9-8.6c-15,0-32.8,9.5-39.6,21.3s0,21.3,15,21.3
	c14.9,0,32.5-9.4,39.4-20.9c0,0,0.1-0.1,0.1-0.1l33.9-58.8l5.7-9.9l8.2-14.2C345.1,268.2,345.1,267.6,344.8,267.1z M161.9,391.7
	c-12,0-17.5-7.4-12.3-16.5c5.3-9.1,19.3-16.5,31.4-16.5s17.5,7.4,12.3,16.5S173.9,391.7,161.9,391.7z M260.1,368.1
	c-12,0-17.5-7.4-12.3-16.5s19.3-16.5,31.4-16.5s17.5,7.4,12.3,16.5C286.2,360.7,272.1,368.1,260.1,368.1z M242.2,299.8l4.2-7.3
	l7-12.1l84.2-8.9l-6.7,11.5l-4.5,7.9L242.2,299.8z"/>
</svg>
