<?xml version="1.0" encoding="utf-8"?>
<!-- Generator: Adobe Illustrator 21.0.0, SVG Export Plug-In . SVG Version: 6.00 Build 0)  -->
<svg version="1.1" id="Capa_1" xmlns="http://www.w3.org/2000/svg" xmlns:xlink="http://www.w3.org/1999/xlink" x="0px" y="0px"
	 viewBox="0 0 54 54" style="enable-background:new 0 0 54 54;" xml:space="preserve">
<style type="text/css">
	.st0{fill:#FFFFFF;}
</style>
<g>
	<path class="st0" d="M51.2,21h-5.1c-0.8,0-1.5-0.4-1.8-1.2s-0.2-1.5,0.4-2.1l3.6-3.6c0.5-0.5,0.8-1.2,0.8-2c0-0.7-0.3-1.4-0.8-2
		l-4.6-4.6c-1-1-2.9-1.1-3.9,0l-3.6,3.6c-0.6,0.6-1.4,0.7-2.1,0.4c-0.8-0.3-1.2-1-1.2-1.8V2.8C33,1.2,31.8,0,30.2,0h-6.4
		C22.2,0,21,1.2,21,2.8v5.1c0,0.8-0.4,1.5-1.2,1.8c-0.7,0.3-1.5,0.2-2.1-0.4l-3.6-3.6c-1.1-1.1-2.9-1.1-3.9,0l-4.6,4.6
		c-0.5,0.5-0.8,1.2-0.8,2c0,0.7,0.3,1.4,0.8,2l3.6,3.6c0.6,0.6,0.7,1.4,0.4,2.1s-1,1-1.8,1h-5C1.2,21,0,22.2,0,23.8v6.4
		C0,31.8,1.2,33,2.8,33h5.1c0.8,0,1.5,0.4,1.8,1.2s0.2,1.5-0.4,2.1l-3.6,3.6c-0.5,0.5-0.8,1.2-0.8,2c0,0.7,0.3,1.4,0.8,2l4.6,4.6
		c1.1,1.1,2.9,1.1,3.9,0l3.6-3.6c0.6-0.6,1.4-0.7,2.1-0.4c0.8,0.3,1.2,1,1.2,1.8v5.1c0,1.5,1.2,2.8,2.8,2.8h6.4
		c1.5,0,2.8-1.2,2.8-2.8v-5.1c0-0.8,0.4-1.5,1.2-1.8s1.5-0.2,2.1,0.4l3.6,3.6c1.1,1.1,2.9,1,3.9,0l4.6-4.6c0.5-0.5,0.8-1.2,0.8-2
		c0-0.7-0.3-1.4-0.8-2l-3.6-3.6c-0.6-0.6-0.7-1.4-0.4-2.1s1-1.2,1.8-1.2h5.1c1.5,0,2.8-1.2,2.8-2.8v-6.4C54,22.2,52.8,21,51.2,21z
		 M52,30.2c0,0.4-0.3,0.8-0.8,0.8h-5.1c-1.6,0-3,0.9-3.6,2.4c-0.6,1.5-0.3,3.1,0.9,4.3l3.6,3.6c0.3,0.3,0.3,0.8,0,1.1L42.4,47
		c-0.3,0.3-0.8,0.3-1.1,0l-3.6-3.6c-1.1-1.1-2.8-1.5-4.3-0.9s-2.4,2-2.4,3.6v5.1c0,0.4-0.4,0.8-0.8,0.8h-6.4c-0.4,0-0.8-0.3-0.8-0.8
		v-5.1c0-1.6-0.9-3-2.4-3.6c-0.5-0.2-1-0.3-1.5-0.3c-1,0-2,0.4-2.8,1.2L12.7,47c-0.3,0.3-0.8,0.3-1.1,0L7,42.4
		c-0.3-0.3-0.3-0.8,0-1.1l3.6-3.6c1.1-1.1,1.5-2.8,0.9-4.3S9.5,31,7.9,31H2.8C2.3,31,2,30.6,2,30.2v-6.4C2,23.4,2.3,23,2.8,23h5.1
		c1.6,0,3-0.9,3.6-2.4s0.3-3.1-0.9-4.3L7,12.7c-0.3-0.3-0.3-0.8,0-1.1L11.6,7c0.3-0.3,0.8-0.3,1.1,0l3.6,3.6
		c1.1,1.1,2.8,1.5,4.3,0.9c1.5-0.6,2.4-2,2.4-3.6V2.8C23,2.3,23.4,2,23.8,2h6.4C30.6,2,31,2.3,31,2.8v5.1c0,1.6,0.9,3,2.4,3.6
		c1.5,0.6,3.1,0.3,4.3-0.9L41.3,7c0.3-0.3,0.8-0.3,1.1,0l4.6,4.6c0.3,0.3,0.3,0.8,0,1.1l-3.6,3.6c-1.1,1.1-1.5,2.8-0.9,4.3
		c0.6,1.5,2,2.4,3.6,2.4h5.1c0.4,0,0.8,0.3,0.8,0.8C52,23.8,52,30.2,52,30.2z"/>
	<path class="st0" d="M27,18c-5,0-9,4-9,9s4,9,9,9s9-4,9-9S32,18,27,18z M27,34c-3.9,0-7-3.1-7-7s3.1-7,7-7s7,3.1,7,7S30.9,34,27,34
		z"/>
</g>
</svg>
