<?xml version="1.0" encoding="utf-8"?>
<!-- Generator: Adobe Illustrator 21.0.0, SVG Export Plug-In . SVG Version: 6.00 Build 0)  -->
<svg version="1.1" id="Layer_1" xmlns="http://www.w3.org/2000/svg" xmlns:xlink="http://www.w3.org/1999/xlink" x="0px" y="0px"
	 viewBox="0 0 2500 1699" style="enable-background:new 0 0 2500 1699;" xml:space="preserve">
<g>
	<path style="fill:#FFFFFF;" d="M137.1,1273.3L9,1691.6h100.8l23.1-77.9h125l22.5,77.9h109.7L262,1273.3H137.1z M158.3,1529.5
		l38.1-130.1l37.6,130.1H158.3z M631.1,1500.7c-1.5-1.6-3-3.1-4.6-4.6c3.2-1.2,6.2-2.5,9.2-3.8c11.9-5.4,22.7-12.9,31.8-22.3
		c9.2-9.5,16.3-20.8,21-33.1c4.9-12.6,7.4-27,7.4-42.9c0-21.9-4-40.8-11.7-56.3c-7.7-15.5-19.4-28.7-33.8-38.3
		c-14.1-9.5-31.3-16.3-51.1-20.3c-19-3.9-40.4-5.8-63.6-5.8H404.8v418.3h100.3v-163.5h3c11,0,20.1,2.4,28,7.4
		c7.8,4.9,13.7,12.2,18.3,22.3l60.6,133.8h116.7L658,1542.4C649.1,1524.2,640.3,1510.6,631.1,1500.7L631.1,1500.7z M587.5,1420.5
		c-2.9,5.5-7.1,10.3-12.3,13.8c-5.7,4-12.7,7-21,9.1c-8.7,2.2-18.6,3.3-29.5,3.3h-19.5v-88.1h22c23,0,40,3.6,50.7,10.7
		c9.3,6.2,13.8,16.6,13.8,32C591.7,1408.7,590.3,1415,587.5,1420.5L587.5,1420.5z M1025.6,1322.9c-16.9-17-38.2-29.7-63.3-37.8
		c-24.5-7.9-53.3-11.9-85.7-11.9H744v418.3h115.5c37.3,0,69.9-5.1,96.9-15.1c27.4-10.1,50.4-24.9,68.1-43.8
		c17.7-18.8,30.9-41.9,39.2-68.4c8.1-26,12.3-55.2,12.3-86.9c0-34.5-4.1-64.8-12.3-90C1055.3,1361.6,1042.5,1339.9,1025.6,1322.9z
		 M943.6,1577.2c-17.4,19.4-42.7,28.8-77.3,28.8h-22.1v-247h27.4c19.3,0,35.6,2.7,48.2,8.1c12.3,5.2,21.8,12.6,29,22.5
		c7.4,10.2,12.8,23,16,38c3.3,15.9,5.1,34.3,5.1,54.7C970,1525.8,961.1,1557.7,943.6,1577.2L943.6,1577.2z M1317.6,1539.4
		c0,14.4-1.3,26.7-4,36.5c-2.5,9.2-6.1,16.7-10.8,22.3c-4.5,5.3-10.3,9.4-16.9,11.6c-7.4,2.7-16.9,4-28.3,4c-12,0-21.9-1.5-29.4-4.6
		c-6.9-2.7-13-7.1-17.7-12.8c-4.7-5.7-8.1-12.9-10.1-21.3c-2.2-9.3-3.3-20.3-3.3-32.7v-269.1h-100.3v273.7c0,22.6,2.8,43.4,8.3,61.7
		c5.7,19,15.2,35.5,28.1,48.9c12.9,13.4,29.8,23.7,50.3,30.7c19.9,6.8,43.9,10.3,71.3,10.3c24.6,0,47.1-3.5,67-10.3
		c20.3-7,37.8-17.5,52-31.4c14.2-13.9,25.3-31.4,32.8-51.9c7.4-20.2,11.2-43.9,11.2-70.4v-261.3h-100.3L1317.6,1539.4
		 M1469.2,1357.4h90v249.4h-90v84.8h281.6v-84.8h-90v-249.4h90v-84.2h-281.6V1357.4 M2030.1,1511.6l-112.2-238.4h-113.5v418.3h93.4
		v-242.9l112.7,242.9h113v-418.3h-93.5L2030.1,1511.6 M2448.3,1322.8c-29.3-37.3-73.2-56.1-130.5-56.1c-24.5,0-47.9,4.3-69.5,12.9
		c-21.9,8.7-41.3,22.2-57.5,40.2c-16.1,17.8-28.9,40.8-38.1,68.2c-9,27.1-13.6,59.5-13.6,96.5c0,68.3,14.5,121.4,43.1,157.9
		c29.3,37.4,73.2,56.3,130.5,56.3c24.5,0,47.9-4.3,69.5-12.9c21.9-8.7,41.3-22.2,57.5-40.2c16.1-17.8,28.9-40.8,38.1-68.2
		c9-27,13.6-59.5,13.6-96.5C2491.4,1412.3,2476.9,1359.2,2448.3,1322.8L2448.3,1322.8z M2382.3,1540.1c-2.9,15.4-7.4,28.5-13.3,38.7
		c-5.7,9.8-12.7,16.9-21.4,21.8c-8.7,4.9-19.6,7.4-32.2,7.4c-25.1,0-42.6-9.3-53.4-28.5c-12-21.1-18-54.3-18-98.8
		c0-20.9,1.5-39.6,4.5-55.7c2.9-15.4,7.4-28.4,13.4-38.6c5.8-9.8,12.8-17,21.5-21.9c8.6-4.9,19.4-7.4,32-7.4
		c25.3,0,42.8,9.3,53.6,28.5c11.9,21.1,17.9,54.3,17.9,98.8C2386.8,1505.3,2385.2,1524.1,2382.3,1540.1L2382.3,1540.1z M2346.5,56
		h17.8v46.8h12.6V56h17.9V44.4h-48.4V56 M2438.8,44.4l-12.2,39.8l-12.6-39.8h-16.5v58.4h11.9V65.5l11.8,37.3h10.8l11.2-36.4v36.4
		h11.8V44.4H2438.8 M1857.9,1174.9c-159,0-295-53.6-414.7-163.3c-73.9-67.7-134.9-150.7-191-237c-56.1,86.3-117,169.3-190.9,237
		c-128.6,117.8-276,171-450.6,162.4c-333-1.4-603.4-264.2-603.4-587C7.3,263.3,279.2,0,613.5,0c182.9,0,336.9,60.5,470.7,185
		c64.3,59.8,118.6,129.2,168.1,201.8c49.5-72.6,103.8-142,168.1-201.8C1554.2,60.5,1708.2,0,1891.1,0c334.3,0,606.2,263.3,606.2,587
		c0,322.8-270.4,585.6-603.4,587C1881.9,1174.6,1869.9,1174.9,1857.9,1174.9L1857.9,1174.9z M1374,579.2
		c66.3,107.6,130.7,207.8,209.2,279.7C1671.7,940,1765,973.4,1885.6,967l5.4-0.1c220,0,399-170.4,399-379.8
		c0-209.4-179-379.8-399-379.8c-129.9,0-234.6,41.2-329.6,129.5C1490.5,402.7,1431.9,487.3,1374,579.2L1374,579.2z M613.5,207.2
		c-220,0-399,170.4-399,379.8c0,209.4,179,379.8,399,379.8l5.4,0.1c120.6,6.4,213.9-27,302.4-108.1c78.4-71.9,142.8-172,209.2-279.7
		c-57.9-91.9-116.4-176.4-187.4-242.5C848.1,248.3,743.3,207.2,613.5,207.2L613.5,207.2z"/>
	<path style="fill:#FFFFFF;" d="M1918.5,511.7V399.4h-116.9v112.3h-112.3v116.4h112.3v113.2h116.9V628.1h112.3V511.7H1918.5
		 M445.2,510.3h369.3v120H445.2V510.3z"/>
</g>
</svg>
