<?xml version="1.0" encoding="utf-8"?>
<!-- Generator: Adobe Illustrator 21.0.0, SVG Export Plug-In . SVG Version: 6.00 Build 0)  -->
<svg version="1.1" id="Layer_1" xmlns="http://www.w3.org/2000/svg" xmlns:xlink="http://www.w3.org/1999/xlink" x="0px" y="0px"
	 viewBox="0 0 293.4 499.5" style="enable-background:new 0 0 293.4 499.5;" xml:space="preserve">
<style type="text/css">
	.st0{stroke:#000000;stroke-miterlimit:10;}
	.st1{fill:#FFFFFF;stroke:#B7B7B7;stroke-width:0.5;stroke-miterlimit:10;}
	.st2{opacity:0.26;fill:#FFFFFF;stroke:#B7B7B7;stroke-width:0.5;stroke-miterlimit:10;enable-background:new    ;}
	.st3{opacity:0.26;fill:none;stroke:#B7B7B7;stroke-width:0.5;stroke-miterlimit:10;enable-background:new    ;}
</style>
<title>bendFinger</title>
<path class="st0" fill="#FFFFFF" d="M3.1,324.9C2.4,373,2.5,422.5,20.8,467.8c8.4,20.6,20.5,34.3,44.6,30.6c20-3,25.6-6.8,45.2-10.2
	c14.5-2.6,36.2,1.1,49.9,5h0.2c13.7,3.9,28.2,3.7,41.8-0.6c14.7-4.6,23.1-19.2,32.3-30.5s17-23.7,24.6-36.1
	c6.8-11.1,14.2-22.2,17.6-34.8s1.6-25.8,1.3-38.6c-0.4-13,0.8-26,3.6-38.6c2.5-11.1,6.6-21.5,8.8-32.5l0,0c0.5-2.6,0.9-5.3,1.2-7.9
	c1.4-13.5,0.7-27.4,0.6-40.8c-0.1-7.3,0.8-14.6,0.1-21.9c-0.6-6.5-1.7-16.5-9.6-17.9c-11.3-1.9-21.5,7.3-27.5,15.8
	c-8.1,11.2-10.9,27.2-13,40.6c-1.1,7.2-1.3,14.1-2.3,21l0,0c-0.6,4.3-1.6,8.5-3,12.6c-2.9,8.3-4.8,16.9-7.2,25.3
	c-0.9,2.9-1.6,5.8-2.5,8.6c0,0-2.5,5.9-3,4.8c-5.6-12.9-7.3-27.5-9.3-41.3c-1.3-9.1-2.9-18.1-4-27.2c-0.2-1.8-0.4-3.5-0.5-5.2
	l-45-27.7c-0.9,3.3-2.5,6.2-5.6,6.4c-5.6,0.4-6.7-8.4-7.5-12.6c-0.1-0.3-0.1-0.7-0.2-1l-44.9-2.6c-0.4,3.1-1,6.2-1.9,9.3
	c-0.2,1.1-0.8,2.1-1.7,2.8c-1.3,0.5-2.8,0-3.6-1.2c-1.5-2.5-2.3-5.3-2.2-8.2l-45.9,15.5c-0.3,4.7-0.8,9.3-1.6,13.9
	c-0.1,0.8-0.3,1.5-0.8,2.1c-2.6,2.7-4.6-3-5.4-5.9L2.9,265C3.3,284.9,3.4,304.8,3.1,324.9z"/>
<path id="sensor13" class="st0" fill="#FFFFFF" d="M0.5,187.6L0.5,187.6c0,2.8,0,5.5,0.1,8.3c0.1,3.9,0.2,7.7,0.4,11.6c0.8,19.2,1.4,38.4,1.9,57.5
	l41.5-26.3c-0.1-0.5-0.3-0.9-0.3-1.2c-1.3-5.3-1.5-11.1-2-16.5c-1.1-11.2-1.7-22.4-2.1-33.6l0,0c-0.5-12.7-0.6-25.5-0.9-38.2
	c-0.1-4.6,0.2-9.3,0.5-14.1l0,0c1.1-15,3-30.6-1.7-44.4c-1-3.1-2.8-5.9-5.3-7.9c-5.1-3.9-15.3-4.3-19.9,0.7
	c-5.5,6.1-7.2,15-7.8,23.4c-0.1,2.3-0.2,4.6-0.2,6.8c0,1.7,0.3,21.5-1,21.5c-0.1,0.9-0.2,1.7-0.3,2.6C1.4,154.3,0.5,170.9,0.5,187.6
	L0.5,187.6C0.5,187.5,0.5,187.5,0.5,187.6z"/>
<path id="sensor14" class="st0" fill="#FFFFFF" d="M51.2,180.1c0.7,16.2,2,32.4,1,48.6l45.9-15.5c-0.1-2.6,0.1-5.2,0.1-7.6
	c-0.2-8.4-0.7-17-1.6-25.4c-1-8.7-1.8-17.4-2.5-26.1l0,0c-1.4-19.5-1.9-39.2-1.8-58.7l0,0c0-6.5,0.1-13,0.3-19.5
	c0.3-12.9,2.6-28.1-6.5-38.7c-6.8-7.9-18.7-10.8-27-3.4c-7,6.2-6.5,19-7,27.4c-0.6,10.7-0.4,21.3-0.3,32v2l0,0
	c-0.1,19.6-0.8,39.1-0.9,58.7l0,0C50.8,162.6,50.9,171.3,51.2,180.1z"/>
<path id="sensor15" class="st0" fill="#FFFFFF" d="M152.4,213.1c-1.3-8.1-0.3-16.6-0.2-24.8c0.1-9.1,0.1-18.2-0.1-27.3c-0.1-8.6-0.3-17.3-0.5-25.9
	l0,0c-0.2-9.3-0.4-18.5-0.4-27.8c-0.1-12.2,0.1-24.4,0.3-36.7l0,0c0.1-3,0.1-5.9,0.2-8.9c0.3-14.3,0.6-28.2-2.2-42.3
	c-1.8-9.4-6.7-18-17.1-18.9C120.4-0.5,114,11,112.2,21.4c-0.9,5.5-1.4,11.1-1.5,16.7c-0.3,10.9,0.6,21.7,0.9,32.6l0,0
	c0.1,0.9,0.1,1.9,0.1,2.9c0.2,12.6-0.6,25.3-1.1,37.8c-0.3,7.9-0.6,15.8-1,23.8l0,0c-0.7,16.9-1.3,33.7-1.3,50.4
	c0,8.3,0.2,16.6-0.8,24.9L152.4,213.1z"/>
<path id="sensor16" class="st0" fill="#FFFFFF" d="M210.6,247.9c-0.5-6.8-0.6-13.6-0.1-20.4c0.9-18.4,2.2-36.7,3.2-55.1c0.3-5.3,0.6-10.7,0.8-16
	l0,0c0.5-9.8,0.8-19.5,1.1-29.3c0.3-9,1.1-18.2,0.9-27.2V86.4h-0.1c0.1-5.8,0.1-11.7,0.1-17.6c0-9.1-0.4-19-5.6-26.9
	c-4.4-6.7-13.4-10.4-20.7-6c-10.6,6.4-11,21.6-11.7,32.4c-0.9,14-1.2,27.9-1.9,41.9c-0.7,15.4-1.9,30.8-3.4,46.1
	c-1.7,18.6-3.9,37.2-6.2,55.7c-0.2,2.7-0.6,5.4-1.2,8.1L210.6,247.9z"/>
<path class="st1" d="M69.5,277c-4.6-15,0-33.5,0-33.5"/>
<path class="st1" d="M122.1,266.2c-4.6-13.5,0-30.1,0-30.1"/>
<path class="st1" d="M177.3,283.6c-4.6-15,0-33.5,0-33.5"/>
<path class="st1" d="M29.9,304.7c-4.6-15,0-33.5,0-33.5"/>
<path class="st1" d="M76.4,281.8c4.6-16.7,0-37.3,0-37.3"/>
<path class="st1" d="M128.9,279c4.6-16.7,0-37.3,0-37.3"/>
<path class="st1" d="M182.2,292.4c4.6-18.9,0-42.3,0-42.3"/>
<path class="st1" d="M36.9,312.6c4.6-16.7,0-37.3,0-37.3"/>
<path class="st2" d="M121.1,434.6c3-14.4,1-136.1,1-136.1"/>
<line class="st3" x1="98.1" y1="438.6" x2="74.5" y2="302.4"/>
<line class="st3" x1="76.4" y1="445.9" x2="37.9" y2="333.5"/>
<line class="st3" x1="152.4" y1="442.5" x2="177.3" y2="317.7"/>
</svg>
