<svg id="Layer_1" data-name="Layer 1" xmlns="http://www.w3.org/2000/svg" viewBox="0 0 84.43 40.24"><defs><style>.cls-1{fill:#fff;}.cls-2{fill:none;stroke:#ff004e;stroke-miterlimit:10;stroke-width:0.5px;opacity:0.7;}</style></defs><title>btnFlipHand</title><path class="cls-1" d="M56.19,21.08c1.49-3,4.51-5.06,7.56-6.31a5,5,0,0,1,2.2-.47,2.28,2.28,0,0,1,2,1.31c.25.61-.18,1.1-.63,1.46s-1,.68-1.52,1.06a11.74,11.74,0,0,0-1.23,1.3C64,20,63.48,20.48,63,21a27.38,27.38,0,0,0-2.7,3.1,37.36,37.36,0,0,1-6.09-3,5.65,5.65,0,0,1,1.75-.08,10.88,10.88,0,0,1,2.28.22m3.39,1.06-7.42-1.21a11.49,11.49,0,0,0-1.55-1.51l.07-.09a16.37,16.37,0,0,1,3.75-3.45,22.39,22.39,0,0,1,2.44-1.18c.89-.41,1.77-.83,2.62-1.31A17.74,17.74,0,0,0,63.91,12a15.89,15.89,0,0,1,2.64-1.67c1.52-.79,3.16-1.28,4.35-2.58a3.87,3.87,0,0,0,.94-3.93A4.15,4.15,0,0,0,69,1.61a9.22,9.22,0,0,0-4.5.15C61.36,2.47,58.63,4.25,56,6c-1.36.88-2.72,1.75-4.15,2.5a22.21,22.21,0,0,1-4.59,1.72c-1.05.29-10.41,1.48-13.59,3.22a21.37,21.37,0,0,0-4,3.15,24.37,24.37,0,0,1-2.09,1.76c-3.39-.48-6.6,1.55-10,1.19a24.52,24.52,0,0,0-2.82,0H0V39.57c9.13,3,11,.65,20.79,1,5.11.17,10.21-1,15.22-1.95,2.53-.48,5.06-1,7.58-1.55s5-1,7.61-1.33a35.51,35.51,0,0,0,6-1.27,47.67,47.67,0,0,1,5.66-1.81c3.6-.67,11.11-5.19,13.36-8.3a.11.11,0,0,0,0-.13,20.5,20.5,0,0,1,4.38-3.39,15.57,15.57,0,0,0,2.93-1.94,1.6,1.6,0,0,0,.53-1.14,2,2,0,0,0-.8-1.33,4.14,4.14,0,0,0-3.12-.91,9,9,0,0,0-2.87.78,1.66,1.66,0,0,0-1-1.57,4.2,4.2,0,0,0-2.57.09,11.94,11.94,0,0,0-5.11,2.75c-.91.87-1.65,1.91-2.48,2.86s-3,3.84-4.41,3.8a.13.13,0,0,0-.12.07l-1.33-.16m-33-5.63a8.56,8.56,0,0,1-1.77,1,11.7,11.7,0,0,1-4,.6.07.07,0,0,0,0,.15m28.05,3.49c.51-.72,1-1.44,1.54-2.15a7.83,7.83,0,0,0,2.9,2.88,0,0,0,0,0,0-.06,6.68,6.68,0,0,1-2.75-2.93.12.12,0,0,0-.06-.07c.38-.51.92-1.2,1.32-1.69m24.67-3.37c-.54.25-1.31.63-1.82.91l-.31.17C74,18,73,18.85,71.8,19.51c-.28.17-.58.31-.87.47a35.43,35.43,0,0,0-4.11,3.09,5.15,5.15,0,0,1-3,1.37c-.27,0-3.57,3.09-3.84,3.08" transform="translate(0.08 -1.14)"/><path class="cls-2" d="M59.19,7.19c.21.12.46.17.68.29a2.39,2.39,0,0,1,.6.49,4.12,4.12,0,0,1,.76,1.38,14.28,14.28,0,0,0,1.09,2.82M0,39.57c9.13,3,11,.65,20.79,1,5.11.17,10.21-1,15.22-1.95,2.53-.48,5.06-1,7.58-1.55s5-1,7.61-1.33a35.51,35.51,0,0,0,6-1.27,47.67,47.67,0,0,1,5.66-1.81c3.6-.67,11.11-5.19,13.36-8.3a.11.11,0,0,0,0-.13,20.5,20.5,0,0,1,4.38-3.39,15.57,15.57,0,0,0,2.93-1.94,1.6,1.6,0,0,0,.53-1.14,2,2,0,0,0-.8-1.33,4.14,4.14,0,0,0-3.12-.91,9,9,0,0,0-2.87.78,1.66,1.66,0,0,0-1-1.57,4.2,4.2,0,0,0-2.57.09,11.94,11.94,0,0,0-5.11,2.75c-.91.87-1.65,1.91-2.48,2.86s-3,3.84-4.41,3.8a.13.13,0,0,0-.12.07l-1.33-.16m-6.09-3a11.49,11.49,0,0,0-1.55-1.51l.07-.09a16.37,16.37,0,0,1,3.75-3.45,22.39,22.39,0,0,1,2.44-1.18c.89-.41,1.77-.83,2.62-1.31A17.74,17.74,0,0,0,63.91,12a15.89,15.89,0,0,1,2.64-1.67c1.52-.79,3.16-1.28,4.35-2.58a3.87,3.87,0,0,0,.94-3.93A4.15,4.15,0,0,0,69,1.61a9.22,9.22,0,0,0-4.5.15C61.36,2.47,58.63,4.25,56,6c-1.36.88-2.72,1.75-4.15,2.5a22.21,22.21,0,0,1-4.59,1.72c-1.05.29-10.41,1.48-13.59,3.22a21.37,21.37,0,0,0-4,3.15,24.37,24.37,0,0,1-2.09,1.76c-3.39-.48-6.6,1.55-10,1.19a24.52,24.52,0,0,0-2.82,0H0m27.31-1a8.56,8.56,0,0,1-1.77,1,11.7,11.7,0,0,1-4,.6.07.07,0,0,0,0,.15m28.05,3.49c.51-.72,1-1.44,1.54-2.15a7.83,7.83,0,0,0,2.9,2.88,0,0,0,0,0,0-.06,6.68,6.68,0,0,1-2.75-2.93.12.12,0,0,0-.06-.07c.38-.51.92-1.2,1.32-1.69m3.6,1.15c1.49-3,4.51-5.06,7.56-6.31A5,5,0,0,1,66,14a2.28,2.28,0,0,1,2,1.31c.25.61-.18,1.1-.63,1.46s-1,.68-1.52,1.06a11.74,11.74,0,0,0-1.23,1.3c-.51.54-1.06,1-1.56,1.6a30.55,30.55,0,0,0-2.75,3.37c-1.38-.19-2.76-.45-4.12-.71a.15.15,0,0,0-.17.11c-.19-.23-.37-.47-.55-.71-.41-.55-.81-1.12-1.25-1.65A6,6,0,0,1,56,20.82a10.88,10.88,0,0,1,2.28.22m19.05-4.76c-.54.25-1.31.63-1.82.91l-.31.17C74,18,73,18.85,71.8,19.51c-.28.17-.58.31-.87.47a35.43,35.43,0,0,0-4.11,3.09,5.15,5.15,0,0,1-3,1.37c-.27,0-2-.14-2.26-.16M67.23,8.37a.06.06,0,0,0,.06,0c1.08,0,2.45-.06,3.12-1a2.46,2.46,0,0,0,.13-2,4.74,4.74,0,0,0-1.27-2.12,2.92,2.92,0,0,0-1.8-.89,3.88,3.88,0,0,0-2.1.54,2.05,2.05,0,0,0-1,1.23,3.3,3.3,0,0,0,.26,2A3.1,3.1,0,0,0,67.23,8.37Zm-10.11.31a5.58,5.58,0,0,0,2.27,3.94M58.27,8.47c.16.33.42.63.61.94l.67,1.12a7.59,7.59,0,0,0,1.53,1.9M57.93,7.06a5.59,5.59,0,0,1,.64.55,5.28,5.28,0,0,1,.58.82,8.82,8.82,0,0,0,1,1.42M56,23.52s1.42,2,2.49,1.8" transform="translate(0.08 -1.14)"/></svg>