<?xml version="1.0" encoding="utf-8"?>
<!-- Generator: Adobe Illustrator 21.0.0, SVG Export Plug-In . SVG Version: 6.00 Build 0)  -->
<svg version="1.1" id="Layer_1" xmlns="http://www.w3.org/2000/svg" xmlns:xlink="http://www.w3.org/1999/xlink" x="0px" y="0px"
	 viewBox="0 0 50 50" style="enable-background:new 0 0 50 50;" xml:space="preserve">
<style type="text/css">
	.st0{fill:none;stroke:#FFFFFF;stroke-linecap:round;stroke-linejoin:round;stroke-miterlimit:10;}
</style>
<g>
	<path class="st0" d="M16.6,17.7c-1.6,0.5-3.1,1.3-4.3,2.4c-4.3,4-4.6,10.8-0.6,15.1c4,4.3,10.8,4.6,15.1,0.6
		c4.3-4,4.6-10.8,0.6-15.1c-0.4-0.4-0.8-0.8-1.3-1.2l0,0 M33.4,28.3c1.6-0.5,3-1.3,4.3-2.4c4.3-4,4.6-10.8,0.6-15.1
		c-4-4.3-10.8-4.6-15.1-0.6l0,0c-4.3,4-4.6,10.8-0.6,15.1c0.4,0.4,0.8,0.8,1.3,1.2 M23.1,10.2"/>
</g>
</svg>
