<svg id="Layer_1" data-name="Layer 1" xmlns="http://www.w3.org/2000/svg" viewBox="0 0 35.56 46.78"><defs><style>.cls-1{fill:none;stroke:#fff;stroke-miterlimit:10;stroke-width:2px;}</style></defs><title>delete</title><path class="cls-1" d="M37.46,46.78c-1,.94-4.47,1-4.47,1H17.82s-3.51-.05-4.5-1S12,41.46,12,41.46L10.32,7.74H40.46L38.78,41.46S38.61,45.69,37.46,46.78Z" transform="translate(-7.61 -2)"/><line class="cls-1" x1="25.39" y1="11.45" x2="25.39" y2="40.06"/><line class="cls-1" x1="17.81" y1="11.45" x2="17.81" y2="40.06"/><line class="cls-1" x1="10.16" y1="11.45" x2="10.16" y2="40.06"/><line class="cls-1" y1="5.74" x2="35.56" y2="5.74"/><path class="cls-1" d="M32.87,7.74V5a2,2,0,0,0-2-2h-11a2,2,0,0,0-2,2V7.74Z" transform="translate(-7.61 -2)"/></svg>