<?xml version="1.0" encoding="utf-8"?>
<!-- Generator: Adobe Illustrator 21.0.0, SVG Export Plug-In . SVG Version: 6.00 Build 0)  -->
<svg version="1.1" id="Layer_1" xmlns="http://www.w3.org/2000/svg" xmlns:xlink="http://www.w3.org/1999/xlink" x="0px" y="0px"
	 viewBox="0 0 45.9 42.3" style="enable-background:new 0 0 45.9 42.3;" xml:space="preserve">
<style type="text/css">
	.st0{fill:none;stroke:#FFFFFF;stroke-miterlimit:10;}
</style>
<path class="st0" d="M38.9,20.9c-0.5-0.7-1.2-1.1-2-1.2H26.4l-3.6,4.1l-3.6-4.1H9.5c-0.8,0.1-1.5,0.5-2,1.2c0,0-5.4,7-5.1,7h14.4
	v0.3c0.2,4.1,3,7.4,6.2,7.4s6-3.4,6.2-7.4v-0.3H44C44.2,27.9,38.9,20.9,38.9,20.9z"/>
<polygon class="st0" points="27.4,14.4 27.4,0.5 18.1,0.5 18.1,14.4 14.9,14.4 22.8,23.6 30.6,14.4 "/>
<path class="st0" d="M31.5,30.9h13.9v-1.2c-0.1-0.5-0.3-0.9-0.7-1.1c-0.3-0.2-0.7-0.3-1.1-0.4H29.2v0.3c-0.2,3.7-2.5,6.8-5.4,7.4
	l0,0c-0.6,0.1-1.2,0.1-1.7,0l0,0c-2.9-0.5-5.2-3.6-5.4-7.4v-0.3H2.3c-0.4,0-0.8,0.1-1.1,0.4c-0.4,0.3-0.6,0.7-0.7,1.2v1.2h13.9
	c0.1,0,0.2,0.1,0.2,0.2s-0.1,0.2-0.2,0.2H0.5v8.8c0.2,0.9,0.9,1.5,1.8,1.6h41.3c0.9-0.1,1.7-0.8,1.8-1.7v-8.7H31.5
	c-0.1,0-0.2-0.1-0.2-0.2S31.4,30.9,31.5,30.9z"/>
<title>downloadBtn</title>
</svg>
