<svg id="Layer_1" data-name="Layer 1" xmlns="http://www.w3.org/2000/svg" viewBox="0 0 45.93 42.26"><defs><style>.cls-1{fill:none;stroke:#bfcadc;stroke-miterlimit:10;}</style></defs><title>downloadActive</title><path class="cls-1" d="M41.28,24.39a2.9,2.9,0,0,0-2-1.18H28.8l-3.65,4.13L21.5,23.21H11.84a2.75,2.75,0,0,0-2,1.18s-5.38,7-5.1,7H19.16v.27c.21,4.08,3,7.44,6.21,7.44s6-3.36,6.21-7.44v-.27H46.38C46.61,31.42,41.28,24.39,41.28,24.39Z" transform="translate(-2.38 -3.49)"/><polygon class="cls-1" points="27.37 14.39 27.37 0.5 18.09 0.5 18.09 14.39 14.91 14.39 22.76 23.64 30.61 14.39 27.37 14.39"/><path class="cls-1" d="M33.89,34.36H47.8V33.14A1.85,1.85,0,0,0,47.09,32,2.07,2.07,0,0,0,46,31.64H31.57v.27c-.2,3.72-2.5,6.83-5.36,7.35h0a4,4,0,0,1-1.74,0h0c-2.86-.52-5.17-3.63-5.36-7.35v-.27H4.66A2.07,2.07,0,0,0,3.59,32a1.85,1.85,0,0,0-.71,1.18v1.23H16.79c.11,0,.18.09.18.23s-.07.23-.18.23H2.88v8.76A2.07,2.07,0,0,0,4.7,45.25H46a2.07,2.07,0,0,0,1.82-1.68V34.82H33.89c-.11,0-.18-.09-.18-.23S33.78,34.36,33.89,34.36Z" transform="translate(-2.38 -3.49)"/></svg>