<?xml version="1.0" encoding="utf-8"?>
<!-- Generator: Adobe Illustrator 21.0.0, SVG Export Plug-In . SVG Version: 6.00 Build 0)  -->
<svg version="1.1" id="Layer_1" xmlns="http://www.w3.org/2000/svg" xmlns:xlink="http://www.w3.org/1999/xlink" x="0px" y="0px"
	 viewBox="0 0 293.4 499.5" style="enable-background:new 0 0 293.4 499.5;" xml:space="preserve">
<style type="text/css">
	.st0{fill:#FFFFFF;stroke:#000000;stroke-miterlimit:10;}
	.st1{fill:#FFFFFF;stroke:#B7B7B7;stroke-width:0.5;stroke-miterlimit:10;}
	.st2{fill:#17C0B7;stroke:#000000;stroke-miterlimit:10;}
</style>
<path class="st0" d="M290.5,265l-41.4-26.2c-0.8,2.8-2.8,8.6-5.4,5.9c-0.5-0.6-0.7-1.3-0.8-2.1c-0.8-4.6-1.3-9.2-1.6-13.9
	l-45.9-15.5c0.1,2.9-0.7,5.7-2.2,8.2c-0.8,1.2-2.3,1.7-3.7,1.2c-0.9-0.7-1.5-1.7-1.7-2.8c-0.8-3.1-1.5-6.2-1.9-9.3l-44.9,2.6
	c-0.1,0.3-0.1,0.7-0.2,1c-0.8,4.2-1.9,13-7.5,12.6c-3.2-0.2-4.8-3.1-5.6-6.4L82.8,248c-0.1,1.7-0.3,3.4-0.5,5.2
	c-1.1,9.1-2.7,18.1-4,27.2c-2,13.8-3.8,28.4-9.3,41.3c-0.5,1.1-3-4.8-3-4.8c-0.9-2.9-1.6-5.8-2.5-8.6c-2.5-8.4-4.3-17.1-7.2-25.3
	c-1.4-4.1-2.4-8.3-3-12.6l-50.5,11c2.2,11,6.3,21.4,8.8,32.5c2.8,12.7,4,25.6,3.6,38.6c-0.4,12.9-2.1,26,1.3,38.7S27.3,415,34.1,426
	c7.6,12.4,15.4,24.8,24.5,36.1s17.6,25.9,32.3,30.5c13.6,4.3,28.1,4.6,41.8,0.6h0.2c13.8-3.9,35.4-7.6,49.9-5
	c19.6,3.5,25.2,7.2,45.2,10.2c24.1,3.7,36.2-10,44.6-30.7c18.4-45.3,18.5-94.8,17.7-142.9C290,304.9,290,284.9,290.5,265z"/>
<g>
	<path class="st1" d="M84.2,291.2c0,0,65.9,46.6,65.9,157.3"/>
	<path class="st1" d="M205.2,364.4c0,0-66.8-62.2-105-60.8"/>
	<path class="st1" d="M167.1,247.7c0,0,72,99.6,115.7,115.5"/>
</g>
<path id="sensor12" class="st0" d="M292.4,207.5c0.2-3.9,0.3-7.7,0.4-11.6c0.1-2.8,0.1-5.6,0.1-8.4h-39.4c-0.4,11.2-1,22.4-2.1,33.6
	c-0.5,5.4-0.7,11.2-2,16.5c-0.1,0.4-0.2,0.8-0.3,1.2l41.5,26.3C291,245.9,291.6,226.7,292.4,207.5z"/>
<path id="sensor11" class="st0" d="M289.6,135.2h-35.8c0.3,4.8,0.6,9.5,0.5,14.1c-0.3,12.8-0.4,25.5-0.9,38.3h39.4
	c0-16.6-0.9-33.3-2.9-49.8C289.8,136.9,289.7,136,289.6,135.2z"/>
<path id="sensor10" class="st0" d="M288.4,106.9c-0.5-8.4-2.2-17.3-7.8-23.4c-4.5-5-14.8-4.6-19.8-0.7c-2.5,2.1-4.3,4.8-5.3,7.9
	c-4.7,13.8-2.8,29.5-1.7,44.5h35.8c-1.3,0-1-19.8-1-21.5C288.6,111.5,288.6,109.2,288.4,106.9z"/>
<path id="sensor9" class="st0" d="M242.2,180c0.3-8.7,0.4-17.4,0.4-26.1h-43.2c-0.7,8.8-1.5,17.5-2.5,26.2c-0.9,8.4-1.4,17-1.6,25.4
	c-0.1,2.4,0.1,5,0.1,7.6l45.9,15.5C240.2,212.5,241.5,196.2,242.2,180z"/>
<path id="sensor8" class="st0" d="M241.6,95.2h-40.4c0.1,19.6-0.4,39.2-1.8,58.8h43.2C242.5,134.4,241.7,114.8,241.6,95.2z"/>
<path id="sensor7" class="st0" d="M241.6,93.1c0.1-10.7,0.3-21.3-0.3-32c-0.5-8.4,0-21.3-7-27.4c-8.3-7.4-20.1-4.5-26.9,3.4
	c-9.1,10.6-6.8,25.8-6.5,38.7l0.3,19.5h40.4V93.1z"/>
<path id="sensor6" class="st0" d="M185.1,185.6c0-16.7-0.6-33.6-1.3-50.4h-42.1c-0.2,8.6-0.4,17.3-0.5,25.9
	c-0.1,9.1-0.2,18.2-0.1,27.3c0.1,8.2,1.1,16.6-0.2,24.8l44.9-2.6C184.8,202.2,185.1,193.9,185.1,185.6z"/>
<path id="sensor5" class="st0" d="M182.8,111.4c-0.5-12.6-1.3-25.3-1.1-37.8c0-1,0-1.9,0.1-2.9h-40c0.3,12.2,0.4,24.4,0.3,36.7
	c0,9.3-0.2,18.6-0.4,27.9h42.1C183.5,127.3,183.1,119.3,182.8,111.4z"/>
<path id="sensor4" class="st0" d="M182.7,38.1c-0.1-5.6-0.6-11.2-1.5-16.7C179.4,11,173-0.5,160.9,0.6c-10.4,0.9-15.3,9.6-17.1,18.9
	c-2.8,14.1-2.5,28-2.2,42.3c0.1,3,0.1,5.9,0.2,8.9h40C182.1,59.8,183,48.9,182.7,38.1z"/>
<path id="sensor3" class="st0" d="M126.5,212.2c-2.3-18.5-4.5-37.1-6.2-55.8H78.9c0.2,5.3,0.5,10.7,0.8,16c1,18.4,2.3,36.7,3.2,55.1
	c0.4,6.8,0.4,13.6-0.2,20.4l44.9-27.6C127.1,217.6,126.7,214.9,126.5,212.2z"/>
<path id="sensor2" class="st0" d="M116.8,110.3c-0.3-6.1-0.5-12.3-0.8-18.4H77.1c0,3.9,0.1,7.9,0.2,11.8c0.3,17.6,0.9,35.2,1.7,52.8
	h41.3C118.8,141.1,117.6,125.7,116.8,110.3z"/>
<path id="sensor1" class="st0" d="M114.9,68.4c-0.7-10.8-1.1-26-11.7-32.4c-7.3-4.4-16.3-0.7-20.7,6c-5.2,7.9-5.6,17.8-5.6,26.9
	c0,7.7,0.1,15.3,0.2,23h39C115.8,84.1,115.4,76.2,114.9,68.4z"/>
<path class="st2" d="M51,249.3c-2.1-13.4-4.9-29.4-13-40.6c-6-8.4-16.2-17.7-27.5-15.8c-8,1.3-9.1,11.3-9.7,17.9
	c-0.7,7.3,0.2,14.6,0.1,21.9c-0.1,13.4-0.8,27.3,0.6,40.9c0.3,2.7,0.7,5.3,1.2,7.9l50.4-11.2C52.2,263.4,52.1,256.5,51,249.3z"/>
<path class="st1" d="M149.5,267c-4.6-15,0-33.5,0-33.5"/>
</svg>
