<?xml version="1.0" encoding="utf-8"?>
<!-- Generator: Adobe Illustrator 21.0.0, SVG Export Plug-In . SVG Version: 6.00 Build 0)  -->
<svg version="1.1" id="Layer_1" xmlns="http://www.w3.org/2000/svg" xmlns:xlink="http://www.w3.org/1999/xlink" x="0px" y="0px"
	 viewBox="0 0 293.4 499.5" style="enable-background:new 0 0 293.4 499.5;" xml:space="preserve">
<style type="text/css">
	.st0{fill:#FFFFFF;stroke:#000000;stroke-miterlimit:10;}
	.st1{fill:#FFFFFF;stroke:#B7B7B7;stroke-width:0.5;stroke-miterlimit:10;}
	.st2{opacity:0.26;fill:#FFFFFF;stroke:#B7B7B7;stroke-width:0.5;stroke-miterlimit:10;enable-background:new    ;}
	.st3{opacity:0.26;fill:none;stroke:#B7B7B7;stroke-width:0.5;stroke-miterlimit:10;enable-background:new    ;}
</style>
<path id="sensor10" class="st0" d="M4.8,113.7c0,1.7-1,18.7-1,21.5h35.8c1.1-15,3-30.7-1.7-44.5c-1-3.1-2.8-5.8-5.3-7.9
	c-5-3.9-15.3-4.3-19.8,0.7c-5.6,6.1-7.3,15-7.8,23.4C4.8,109.2,4.8,111.5,4.8,113.7z"/>
<path id="sensor7" class="st0" d="M51.8,95.3h40.4l0.3-19.5c0.3-12.9,2.6-28.1-6.5-38.7c-6.8-7.9-18.6-10.8-26.9-3.4
	c-7,6.1-6.5,19-7,27.4c-0.6,10.7-0.4,21.3-0.3,32V95.3z"/>
<path id="sensor4" class="st0" d="M111.6,70.7h40c0.1-3,0.1-5.9,0.2-8.9c0.3-14.3,0.6-28.2-2.2-42.3c-1.8-9.3-6.7-18-17.1-18.9
	C120.4-0.5,114,11,112.2,21.4c-0.9,5.5-1.4,11.1-1.5,16.7C110.4,48.9,111.3,59.8,111.6,70.7z"/>
<path id="sensor1" class="st0" d="M177.3,91.9h39c0.1-7.7,0.2-15.3,0.2-23c0-9.1-0.4-19-5.6-26.9c-4.4-6.7-13.4-10.4-20.7-6
	c-10.6,6.4-11,21.6-11.7,32.4C178,76.2,177.6,84.1,177.3,91.9z"/>
<path class="st0" d="M292.6,210.9c-0.6-6.5-1.7-16.5-9.6-17.9c-11.3-1.9-21.5,7.3-27.5,15.8c-8.1,11.2-10.9,27.2-13,40.6
	c-1.1,7.2-1.3,14.1-2.3,21h-0.1c-0.6,4.3-1.6,8.5-3,12.6c-2.9,8.2-4.7,16.9-7.2,25.3c-0.9,2.8-1.6,5.7-2.5,8.6c0,0-2.1,4.9-2.8,4.9
	l-0.1-0.1c-5.6-12.9-7.3-27.5-9.3-41.3c-1.3-9.1-2.9-18.1-4-27.2c-0.2-1.8-0.4-3.5-0.5-5.2l-0.1-0.1c-0.5-6.3-0.4-12.7-0.1-19
	c0.9-18.8,2.2-37.4,3.2-56.2c0.3-5.4,0.6-10.9,0.8-16.3h-0.1c0.8-17.6,1.4-35.1,1.7-52.7c0.1-3.9,0.2-7.9,0.2-11.8h-38.9
	c-0.3,6.1-0.5,12.3-0.8,18.4c-0.8,15.4-2,30.7-3.5,46.1l0,0c-1.7,19.1-3.9,38.1-6.2,56.9c-0.2,2.4-0.5,4.8-0.9,7.2l-0.3-0.2
	c-0.9,3.3-2.5,6.2-5.6,6.4c-5.6,0.4-6.7-8.4-7.5-12.6c-0.1-0.3-0.1-0.7-0.2-1h-0.2c-0.9-7.7,0-15.6,0.1-23.4c0.1-9.3,0-18.7-0.1-28
	c-0.1-8.8-0.3-17.7-0.5-26.5l0,0c-0.2-9.3-0.4-18.5-0.4-27.8c-0.1-12.3,0-24.5,0.3-36.7h-40c0.1,1,0.1,1.9,0.1,2.9
	c0.2,12.5-0.6,25.2-1.1,37.8c-0.3,7.9-0.7,15.8-1,23.8l0,0c-0.7,17.2-1.3,34.5-1.3,51.7c0,7.9,0.2,15.7-0.5,23.7h-0.3
	c-0.2,1.3-0.4,2.7-0.6,4c-0.2,1.2-0.5,2.4-0.8,3.6c-0.1,0.6-0.3,1.1-0.5,1.7c-0.2,1.1-0.8,2.1-1.7,2.8c-0.2,0.1-0.3,0.1-0.5,0.1
	s-0.4,0.1-0.5,0.1c-1,0-2-0.5-2.6-1.4c-1.5-2.5-2.3-5.3-2.2-8.2c0.1-2,0.1-3.9,0.1-5.8c-0.2-8.7-0.7-17.6-1.6-26.4
	c-1-9-1.8-18.1-2.5-27.2H94c-1.4-19.6-1.9-39.1-1.8-58.7H51.8c-0.1,19.6-0.9,39.1-1,58.7l0,0v0.1l0,0l0,0c0,9,0.1,18,0.4,27
	c0.7,15.9,1.8,31.9,1,47.7h-0.1c-0.3,4.7-0.8,9.3-1.6,13.9c-0.1,0.8-0.3,1.5-0.8,2.1c-0.5,0.5-0.9,0.7-1.4,0.7c-0.1,0-0.2,0-0.4-0.1
	c-1.7-0.6-3-4.3-3.6-6.5h-0.1c-0.1-0.4-0.2-0.8-0.3-1.2c-1.3-5.3-1.5-11.1-2-16.5c-1.1-11.2-1.7-22.3-2-33.5H40
	c-0.5-12.8-0.5-25.5-0.8-38.3c-0.1-4.6,0.2-9.3,0.5-14.1H3.8c-0.1,0.8-0.2,1.7-0.3,2.6c-2,16.5-2.9,33.1-2.9,49.7l0,0
	c0,2.8-0.1,5.6,0.1,8.4c0.1,3.9,0.2,7.7,0.4,11.6c0.8,19.2,1.4,38.4,1.8,57.6H3c0.4,19.9,0.5,39.8,0.2,59.8C3,330.4,3,336,2.9,341.5
	c-0.2,31.3,0.8,63,7.7,93.4c2.5,11.1,5.8,22.1,10.2,32.8c7.6,18.7,18.3,31.7,38.1,31.2c2.1,0,4.2-0.2,6.5-0.6
	c20-3,25.6-6.7,45.2-10.2c3.6-0.6,7.7-0.9,12-0.9c2.9,0,6,0.2,9,0.5c7.8,0.7,15.7,2.1,22.6,3.7c2.2,0.5,4.4,1.1,6.3,1.6h0.2
	c0.4,0.1,0.9,0.2,1.3,0.4c13.3,3.6,27.3,3.2,40.5-1c14.7-4.6,23.2-19.2,32.3-30.5c1.1-1.3,2.1-2.7,3.2-4.1
	c7.8-10.2,14.7-21.1,21.4-32c6.8-11.1,14.2-22.2,17.6-34.8c3.4-12.6,1.6-25.8,1.3-38.6c-0.4-13,0.8-26,3.6-38.6
	c2.5-11.1,6.6-21.5,8.8-32.5c0.5-2.6,0.9-5.3,1.2-7.9c1.4-13.5,0.7-27.4,0.6-40.8C292.4,225.5,293.3,218.2,292.6,210.9z"/>
<path class="st1" d="M69.5,277c-4.6-15,0-33.5,0-33.5"/>
<path class="st1" d="M122.1,266.2c-4.6-13.5,0-30.1,0-30.1"/>
<path class="st1" d="M177.3,283.6c-4.6-15,0-33.5,0-33.5"/>
<path class="st1" d="M29.9,304.7c-4.6-15,0-33.5,0-33.5"/>
<path class="st1" d="M76.4,281.8c4.6-16.7,0-37.3,0-37.3"/>
<path class="st1" d="M128.9,279c4.6-16.7,0-37.3,0-37.3"/>
<path class="st1" d="M182.2,292.4c4.6-18.9,0-42.3,0-42.3"/>
<path class="st1" d="M36.9,312.6c4.6-16.7,0-37.3,0-37.3"/>
<path class="st2" d="M121.1,434.6c3-14.4,1-136.1,1-136.1"/>
<line class="st3" x1="98.1" y1="438.6" x2="74.5" y2="302.4"/>
<line class="st3" x1="76.4" y1="445.9" x2="37.9" y2="333.5"/>
<line class="st3" x1="152.4" y1="442.5" x2="177.3" y2="317.7"/>
</svg>
