<svg id="Layer_1" data-name="Layer 1" xmlns="http://www.w3.org/2000/svg" viewBox="0 0 36.91 43.77"><defs><style>.cls-1{fill:none;stroke:#17c0b7;stroke-miterlimit:10;}</style></defs><title>gestureActive</title><path class="cls-1" d="M40.46,39.07l2.81-1.51c-1.37-3.37-6.42-14.37-6.42-14.37s1.66-5.74,1.69-7.71a10.42,10.42,0,0,0-1.61-5.06c-.7-.84-3.85-2.09-3.85-2.09-1.36,1.12,1.33,4.26,1.33,4.26a11.84,11.84,0,0,1,.42,3.1,11.12,11.12,0,0,1-1.57,2.48" transform="translate(-7 -1.53)"/><path class="cls-1" d="M40.47,39.09,29.79,44.71,12.53,31.14l-2.26-.79-1-.39c-.7-.27-1.56-.54-1.68-1.22-.18-.94.25-2.86,3.49-2.84a7.81,7.81,0,0,1,2.15.34c2.87.84,5.93,4.92,7.19,1.31,0,0,2.45-3.72-5.42-6.37L12,23.95a14.9,14.9,0,0,1-1,1.95,5,5,0,0,0-2.85.78c-.62-1.12,0-4,.5-5.17A15.13,15.13,0,0,1,11,18.43a10.79,10.79,0,0,1,2.86-2.07c2.43-.61,9.88,1.77,9.88,1.77L17,13l-4.58-2.81s-3.78-1.45-2-4.09c0,0,8.17,2.19,10.52,3.69,2,1.3,6.66,6.9,6.66,6.9l-1-4.58-2.72-5s-5.75-2.38-3.74-5c0,0,5.16.9,6.58,1.85s3.06,3.9,3.77,5.38c1.26,2.6,3.35,11.06,3.35,11.06" transform="translate(-7 -1.53)"/><path class="cls-1" d="M23.22,2.76s-.15,1.23-1,1.52A19.33,19.33,0,0,0,19.77,3" transform="translate(-7 -1.53)"/><path class="cls-1" d="M35.08,9.24s-.1.82-.68,1a12.85,12.85,0,0,0-1.61-.85" transform="translate(-7 -1.53)"/></svg>