<?xml version="1.0" encoding="utf-8"?>
<!-- Generator: Adobe Illustrator 21.0.0, SVG Export Plug-In . SVG Version: 6.00 Build 0)  -->
<svg version="1.1" id="Layer_1" xmlns="http://www.w3.org/2000/svg" xmlns:xlink="http://www.w3.org/1999/xlink" x="0px" y="0px"
	 viewBox="0 0 1155.3 801.6" style="enable-background:new 0 0 1155.3 801.6;" xml:space="preserve">
<style type="text/css">
	.st0{fill:none;stroke:#000000;stroke-width:1.5;stroke-miterlimit:10;}
</style>
<g id="Layer_2">
</g>
<path class="st0" d="M589.2,800.8c0,0,0.5-3.1,1.4-8.7c0.9-5.6,2.2-13.7,3.8-23.6c1.6-9.9,3.4-21.6,5.4-34.5
	c2-12.9,4.1-26.9,6.3-41.4s4.4-29.5,6.5-44.4s4.2-29.5,6-43.4c1.8-13.9,3.5-26.9,4.8-38.5c1.3-11.6,2.3-21.6,2.9-29.5
	c0.6-8.2,1.1-20.4,1.4-35.5s0.7-33.1,0.9-52.9s0.3-41.3,0.4-63.6c0.1-22.2,0.1-45.1,0.1-67.4c0-22.4-0.1-44.2-0.2-64.5
	c-0.1-20.3-0.2-38.9-0.3-54.8s-0.2-29.1-0.2-38.3s-0.1-14.7-0.1-15.1c0-3-0.2-6-0.7-8.8s-1.1-5.6-2-8.2c-0.9-2.6-1.9-5.1-3.1-7.5
	c-1.2-2.3-2.6-4.5-4.2-6.5c-1.5-2-3.2-3.8-5-5.4s-3.8-3-5.8-4.1s-4.2-2-6.4-2.6c-2.2-0.6-4.5-0.9-6.9-0.9c-2.4,0-4.8,0.3-7.1,0.9
	c-2.3,0.6-4.5,1.5-6.7,2.6s-4.2,2.5-6.1,4.1s-3.7,3.4-5.4,5.4c-1.7,2-3.2,4.2-4.5,6.5c-1.3,2.3-2.5,4.8-3.4,7.5
	c-0.9,2.6-1.7,5.4-2.2,8.2s-0.8,5.8-0.8,8.8v17.9v17.9v17.9v17.9v17.9v17.9V270v17.9l-0.4,0.4l-0.4,0.4l-0.4,0.4l-0.4,0.4l-0.4,0.4
	l-0.4,0.4l-0.4,0.4l-0.4,0.4l-0.4-0.4l-0.3-0.4l-0.4-0.4l-0.3-0.4l-0.3-0.4l-0.4-0.4l-0.3-0.4l-0.3-0.4V261v-26.8v-26.9v-26.8v-26.9
	v-26.9V99.9V73.1c0-3-0.3-6-0.8-8.9c-0.5-2.9-1.3-5.6-2.2-8.3s-2.1-5.1-3.5-7.5s-2.9-4.5-4.6-6.5c-1.7-2-3.6-3.8-5.6-5.4
	c-2-1.6-4.2-2.9-6.5-4.1c-2.3-1.1-4.7-2-7.1-2.6c-2.5-0.6-5-0.9-7.7-0.9c-2.6,0-5.2,0.3-7.7,0.9c-2.5,0.6-4.9,1.5-7.1,2.6
	c-2.3,1.1-4.4,2.5-6.5,4.1c-2,1.6-3.9,3.4-5.6,5.4c-1.7,2-3.3,4.2-4.6,6.5s-2.5,4.8-3.5,7.5s-1.7,5.4-2.2,8.3
	c-0.5,2.9-0.8,5.8-0.8,8.9l0,21.5l0,21.5l0,21.5l0,21.5l0,21.5l0,21.5l0,21.5l0,21.5l-0.4,0.4l-0.3,0.4l-0.4,0.4l-0.4,0.4l-0.4,0.4
	l-0.3,0.4l-0.4,0.4l-0.4,0.4l-0.4-0.4l-0.3-0.4l-0.4-0.4l-0.4-0.4l-0.4-0.4l-0.3-0.4l-0.4-0.4l-0.4-0.4v-25v-25v-25v-25v-25v-25v-25
	v-25c0-3-0.2-6-0.7-8.8c-0.4-2.9-1.1-5.6-1.9-8.2c-0.9-2.6-1.9-5.1-3.2-7.5c-1.3-2.3-2.7-4.5-4.3-6.5c-1.6-2-3.4-3.8-5.4-5.4
	s-4.1-3-6.4-4.1c-2.3-1.1-4.8-2-7.4-2.6c-2.6-0.6-5.4-0.9-8.3-0.9c-2.6,0-5.2,0.3-7.7,0.9s-4.9,1.5-7.1,2.6s-4.4,2.5-6.5,4.1
	s-3.9,3.4-5.6,5.4s-3.3,4.2-4.6,6.5S399,25,398,27.6s-1.7,5.4-2.2,8.3s-0.8,5.8-0.8,8.9v25v25v25v25v25v25v25v25l-0.3,0.4l-0.3,0.4
	l-0.3,0.4l-0.3,0.4l-0.3,0.4L393,247l-0.3,0.4l-0.3,0.4l-0.4-0.4l-0.4-0.4l-0.4-0.4l-0.4-0.4l-0.4-0.4l-0.4-0.4l-0.4-0.4l-0.4-0.4
	v-21.5v-21.5v-21.5v-21.5v-21.5V116V94.5V73.1c0-3-0.3-6-0.8-8.9c-0.5-2.9-1.3-5.6-2.2-8.3s-2.1-5.1-3.5-7.5s-2.9-4.5-4.6-6.5
	c-1.7-2-3.6-3.8-5.6-5.4c-2-1.6-4.2-2.9-6.5-4.1c-2.3-1.1-4.7-2-7.1-2.6c-2.5-0.6-5-0.9-7.7-0.9c-1.1,0-2.2,0.1-3.3,0.2
	c-1.1,0.1-2.2,0.3-3.2,0.5c-1.1,0.2-2.1,0.5-3.2,0.8c-1,0.3-2.1,0.7-3.1,1.1s-2,0.9-3,1.4s-1.9,1.1-2.9,1.7c-0.9,0.6-1.9,1.3-2.8,2
	c-0.9,0.7-1.8,1.4-2.6,2.2c-0.7,0.6-1.3,1.3-1.9,1.9s-1.2,1.4-1.8,2.1c-0.6,0.7-1.1,1.4-1.7,2.2c-0.5,0.8-1,1.5-1.5,2.3
	s-1,1.6-1.4,2.4c-0.4,0.8-0.9,1.7-1.2,2.5c-0.4,0.9-0.8,1.7-1.1,2.6s-0.7,1.8-0.9,2.7c-0.3-0.9-0.6-1.8-1-2.7
	c-0.3-0.9-0.7-1.8-1.1-2.6c-0.4-0.9-0.8-1.7-1.3-2.5c-0.4-0.8-0.9-1.6-1.4-2.4c-0.5-0.8-1-1.6-1.5-2.3c-0.5-0.7-1.1-1.5-1.7-2.2
	s-1.2-1.4-1.8-2.1c-0.6-0.7-1.2-1.3-1.9-1.9c-0.8-0.8-1.7-1.6-2.6-2.3c-0.9-0.7-1.8-1.4-2.8-2c-0.9-0.6-1.9-1.2-2.9-1.7s-2-1-3-1.4
	s-2.1-0.8-3.1-1.1c-1-0.3-2.1-0.6-3.2-0.8c-1.1-0.2-2.1-0.4-3.2-0.5c-1.1-0.1-2.2-0.2-3.3-0.2c-2.6,0-5.2,0.3-7.7,0.9
	c-2.5,0.6-4.9,1.5-7.1,2.6c-2.3,1.1-4.4,2.5-6.5,4.1c-2,1.6-3.9,3.4-5.6,5.4c-1.7,2-3.3,4.2-4.6,6.5s-2.5,4.8-3.5,7.5
	s-1.7,5.4-2.2,8.3c-0.5,2.9-0.8,5.8-0.8,8.9v21.5v21.5v21.5v21.5v21.5v21.5v21.5v21.5l-0.4,0.4l-0.4,0.4l-0.4,0.4l-0.4,0.4l-0.4,0.4
	l-0.4,0.4l-0.4,0.4l-0.4,0.4l-0.4-0.4l-0.4-0.4l-0.4-0.4l-0.4-0.4l-0.4-0.4l-0.4-0.4l-0.4-0.4l-0.4-0.4v-25.1v-25.1v-25.1V145v-25.1
	V94.9V69.8V44.8c0-3-0.3-6-0.8-8.9s-1.3-5.6-2.2-8.3s-2.1-5.1-3.5-7.5s-2.9-4.5-4.6-6.5s-3.6-3.8-5.6-5.4s-4.2-2.9-6.5-4.1
	s-4.7-2-7.1-2.6s-5-0.9-7.7-0.9s-5.2,0.3-7.7,0.9s-4.9,1.5-7.1,2.6s-4.4,2.5-6.5,4.1s-3.9,3.4-5.6,5.4s-3.3,4.2-4.6,6.5
	s-2.5,4.8-3.5,7.5s-1.7,5.4-2.2,8.3s-0.8,5.8-0.8,8.9v25v25.1v25v25V170v25.1v25v25.1l-0.4,0.4l-0.4,0.4l-0.4,0.4l-0.4,0.4l-0.4,0.4
	l-0.4,0.4l-0.4,0.4l-0.4,0.4l-0.4-0.4l-0.4-0.4l-0.4-0.4l-0.4-0.4l-0.4-0.4l-0.4-0.4l-0.4-0.4l-0.4-0.4v-21.5v-21.5v-21.5v-21.5
	v-21.5v-21.5V94.6V73.1c0-3-0.3-6-0.8-8.9c-0.5-2.9-1.3-5.6-2.2-8.3s-2.1-5.1-3.5-7.5s-2.9-4.5-4.6-6.5c-1.7-2-3.6-3.8-5.6-5.4
	c-2-1.6-4.2-2.9-6.5-4.1c-2.3-1.1-4.7-2-7.1-2.6c-2.5-0.6-5-0.9-7.7-0.9s-5.2,0.3-7.7,0.9c-2.5,0.6-4.9,1.5-7.1,2.6
	c-2.3,1.1-4.4,2.5-6.5,4.1c-2,1.6-3.9,3.4-5.6,5.4c-1.7,2-3.3,4.2-4.6,6.5s-2.5,4.8-3.5,7.5s-1.7,5.4-2.2,8.3
	c-0.5,2.9-0.8,5.8-0.8,8.9v27v27v27v27v27v27v27v27l-0.3,0.4l-0.3,0.4l-0.3,0.4l-0.4,0.4l-0.3,0.4l-0.3,0.4l-0.3,0.4l-0.4,0.4
	l-0.3-0.4l-0.3-0.4l-0.3-0.4l-0.4-0.4l-0.3-0.4l-0.3-0.4l-0.3-0.4l-0.4-0.4v-18v-18v-18v-18v-18v-18v-18v-18c0-1.4-0.1-2.9-0.2-4.3
	c-0.1-1.4-0.3-2.8-0.5-4.2c-0.2-1.4-0.5-2.8-0.8-4.1c-0.3-1.4-0.7-2.7-1.2-4c-0.4-1.3-0.9-2.6-1.5-3.9c-0.5-1.3-1.1-2.5-1.8-3.7
	s-1.3-2.4-2.1-3.5c-0.7-1.1-1.5-2.2-2.4-3.3c-0.8-1-1.7-2-2.6-2.9s-1.8-1.8-2.8-2.6s-1.9-1.5-3-2.2s-2-1.3-3.1-1.9
	c-1.1-0.6-2.1-1-3.2-1.5s-2.2-0.8-3.3-1.1s-2.2-0.5-3.4-0.6c-1.1-0.1-2.3-0.2-3.4-0.2c-2.4,0-4.7,0.3-7,0.9
	c-2.3,0.6-4.5,1.5-6.6,2.6s-4.1,2.5-6,4.1c-1.9,1.6-3.6,3.4-5.2,5.4c-1.6,2-3.1,4.2-4.3,6.5s-2.4,4.8-3.3,7.5
	c-0.9,2.6-1.6,5.4-2.1,8.2s-0.7,5.8-0.7,8.8c0,0.4,0,5.7-0.1,14.8c-0.1,9.1-0.2,22-0.3,37.6S2.1,231.2,2,251.1
	c-0.1,20-0.2,41.5-0.2,63.7c0,22.1,0,44.8,0,66.9s0.2,43.7,0.4,63.7s0.5,38.3,0.9,53.9c0.4,15.6,0.9,28.5,1.6,37.6
	c0.6,7.9,1.6,18,2.9,29.6s3,24.6,4.8,38.5s3.9,28.5,6,43.4s4.4,29.9,6.5,44.4s4.3,28.5,6.3,41.4s3.8,24.6,5.4,34.5
	c1.6,9.9,2.9,18,3.8,23.6s1.4,8.7,1.4,8.7h68.4h68.4h68.4h68.4H384h68.4h68.4H589.2z"/>
<path class="st0" d="M818.3,671.7c0,0,0.4-0.1,1.2-0.2c0.8-0.2,1.8-0.4,3.2-0.7c1.3-0.3,2.9-0.7,4.7-1.1c1.8-0.5,3.7-1,5.7-1.6
	c2-0.6,4.1-1.2,6.2-1.9s4.2-1.5,6.3-2.3c2-0.8,4-1.7,5.8-2.6c1.8-0.9,3.4-1.9,4.8-2.9c0.1,0,0.1-0.1,0.2-0.1c0.1,0,0.1-0.1,0.2-0.2
	s0.1-0.1,0.2-0.1c0.1-0.1,0.1-0.1,0.2-0.2s0.1-0.1,0.2-0.2c0.1,0,0.1-0.1,0.2-0.1c0.1,0,0.1-0.1,0.2-0.2s0.1-0.1,0.2-0.1
	c4.6-4,8.6-8.6,12.1-13.6c3.5-5,6.6-10.4,9.3-16.1c2.7-5.7,5.1-11.6,7.2-17.7c2.1-6.1,4-12.3,5.7-18.5s3.3-12.4,4.8-18.4
	c1.5-6,3.1-11.9,4.6-17.5c1.6-5.6,3.3-10.8,5.1-15.6c1.9-4.8,3.9-9.1,6.2-12.9c0.6-1,1.3-2,2-3c0.7-0.9,1.4-1.9,2.1-2.7
	c0.7-0.9,1.4-1.7,2.2-2.5c0.7-0.8,1.5-1.5,2.3-2.2c0.8-0.7,1.5-1.4,2.3-2c0.8-0.6,1.6-1.2,2.4-1.8c0.8-0.6,1.6-1.1,2.5-1.6
	c0.8-0.5,1.7-1,2.5-1.4c0.8-0.4,1.6-0.8,2.4-1.1s1.6-0.7,2.4-0.9s1.6-0.5,2.4-0.8c0.8-0.2,1.6-0.4,2.5-0.6c0.8-0.2,1.6-0.3,2.5-0.4
	c0.8-0.1,1.7-0.2,2.5-0.3s1.7-0.1,2.5-0.1c0.8,0,1.7,0,2.5,0c2.1,0,4.2,0.2,6.2,0.5c2,0.3,4,0.6,5.9,1c1.9,0.4,3.8,0.9,5.6,1.4
	s3.5,1.1,5.1,1.6c1.6,0.6,3.1,1.1,4.5,1.7c1.4,0.6,2.6,1.1,3.7,1.6c1.1,0.5,2.1,0.9,2.9,1.3c0.8,0.4,1.4,0.7,1.9,0.8
	c0.4-0.2,1.1-0.5,1.9-0.8c0.8-0.4,1.8-0.8,2.9-1.3c1.1-0.5,2.4-1,3.8-1.6c1.4-0.6,2.9-1.1,4.5-1.7s3.3-1.1,5.1-1.7
	c1.8-0.5,3.7-1,5.6-1.4c1.9-0.4,3.9-0.8,5.9-1c2-0.3,4.1-0.4,6.2-0.5c0.8,0,1.7,0,2.5,0c0.8,0,1.7,0.1,2.5,0.1
	c0.8,0.1,1.7,0.2,2.5,0.3c0.8,0.1,1.6,0.3,2.5,0.4c0.8,0.2,1.6,0.4,2.5,0.6c0.8,0.2,1.6,0.5,2.4,0.8s1.6,0.6,2.4,0.9
	c0.8,0.3,1.6,0.7,2.4,1.1c0.9,0.4,1.7,0.9,2.5,1.4c0.8,0.5,1.7,1,2.5,1.6c0.8,0.6,1.6,1.2,2.4,1.8c0.8,0.6,1.6,1.3,2.3,2
	c0.8,0.7,1.5,1.5,2.3,2.2c0.7,0.8,1.5,1.6,2.2,2.5c0.7,0.9,1.4,1.8,2.1,2.7c0.7,0.9,1.4,1.9,2,3c2.3,3.8,4.4,8.1,6.2,12.9
	c1.9,4.8,3.5,10.1,5.1,15.6c1.6,5.6,3.1,11.4,4.6,17.5c1.5,6,3.1,12.2,4.8,18.4c1.7,6.2,3.6,12.4,5.7,18.5s4.5,12.1,7.2,17.7
	c2.7,5.7,5.8,11.1,9.3,16.1c3.5,5,7.5,9.6,12.1,13.6c0.1,0,0.1,0.1,0.2,0.1s0.1,0.1,0.2,0.2c0.1,0,0.1,0.1,0.2,0.1
	c0.1,0.1,0.1,0.1,0.2,0.2s0.1,0.1,0.2,0.2c0.1,0,0.1,0.1,0.2,0.1c0.1,0,0.1,0.1,0.2,0.2c0.1,0,0.1,0.1,0.2,0.1c1.4,1,3,2,4.8,2.9
	c1.8,0.9,3.8,1.8,5.8,2.6c2,0.8,4.2,1.6,6.3,2.3s4.2,1.3,6.2,1.9s3.9,1.1,5.7,1.6s3.4,0.8,4.7,1.1c1.3,0.3,2.4,0.5,3.2,0.7
	c0.8,0.2,1.2,0.2,1.2,0.2c-0.4,5.3-1.6,11.3-3.5,17.7c-1.9,6.4-4.6,13.1-8,20.1s-7.7,14-12.8,21s-11,13.9-17.8,20.5
	c-6.8,6.6-14.5,12.8-23.1,18.6c-8.6,5.7-18.1,10.9-28.5,15.2c-10.4,4.3-21.8,7.9-34.2,10.4s-25.7,4-40.1,4.2l0,0l0,0l0,0l0,0l0,0
	l0,0l0,0l0,0l0,0l0,0l0,0l0,0l0,0l0,0l0,0l0,0c-1.4,0-4.6,0-9.3-0.3c-4.7-0.3-10.9-0.9-18.1-2c-7.2-1.1-15.3-2.7-24.1-5.1
	c-8.7-2.4-18-5.5-27.4-9.5c-9.4-4.1-18.9-9.1-28.1-15.4c-9.2-6.3-18-13.7-26-22.7c-8-8.9-15.3-19.3-21.3-31.3
	S821.4,687.3,818.3,671.7z"/>
<g>
	<path d="M1031.1,128.5h-1.1h-1.1h-1.1h-1.1h-1.1h-1.1h-1.1h-1.1l-0.4,0.9l-0.4,0.9l-0.4,1l-0.4,0.9l-0.4,0.9l-0.4,1l-0.4,0.9
		l-0.4,0.9h-0.2h-0.2h-0.2h-0.2h-0.2h-0.2h-0.2h-0.2l1.1-2.7l1.1-2.7l1.1-2.7l1.1-2.7l1.1-2.7l1.1-2.7l1.1-2.7l1.1-2.7h0.1h0.1h0.1
		h0.1h0.1h0.1h0.1h0.1l1.1,2.7l1.1,2.7l1,2.7l1.1,2.7l1,2.7l1.1,2.7l1.1,2.7l1,2.7h-0.2h-0.2h-0.2h-0.2h-0.2h-0.2h-0.2h-0.2
		l-0.4-0.9l-0.4-0.9l-0.4-1l-0.4-0.9l-0.4-0.9l-0.4-1l-0.4-0.9L1031.1,128.5z M1023,127.1h1h1h1h1h1h1h1h1l-0.4-1l-0.4-1l-0.4-1
		l-0.4-1l-0.4-1l-0.4-1l-0.4-1l-0.4-1c0-0.1-0.1-0.2-0.1-0.2c0-0.1-0.1-0.2-0.1-0.3c0-0.1-0.1-0.2-0.1-0.3c0-0.1-0.1-0.2-0.1-0.3
		c0-0.1-0.1-0.2-0.1-0.3c0-0.1-0.1-0.2-0.1-0.3c0-0.1-0.1-0.2-0.1-0.4s-0.1-0.3-0.1-0.4c0,0.1-0.1,0.2-0.1,0.3
		c0,0.1-0.1,0.2-0.1,0.3s-0.1,0.2-0.1,0.3c0,0.1-0.1,0.2-0.1,0.3c0,0.1-0.1,0.2-0.1,0.3s-0.1,0.2-0.1,0.3c0,0.1-0.1,0.2-0.1,0.3
		s-0.1,0.2-0.1,0.3l-0.4,1l-0.4,1l-0.4,1l-0.4,1l-0.4,1l-0.4,1l-0.4,1L1023,127.1z"/>
</g>
<g>
	<path d="M1019.8,204.3h0.7h0.7h0.7h0.7h0.7h0.7h0.7h0.7c0.3,0,0.6,0,0.9,0c0.3,0,0.6,0,0.9,0.1c0.3,0,0.6,0.1,0.8,0.1
		c0.3,0,0.5,0.1,0.8,0.1c0.2,0.1,0.5,0.1,0.7,0.2c0.2,0.1,0.4,0.1,0.6,0.2c0.2,0.1,0.4,0.2,0.6,0.3c0.2,0.1,0.3,0.2,0.5,0.3
		s0.3,0.2,0.4,0.4c0.1,0.1,0.3,0.3,0.4,0.4c0.1,0.1,0.2,0.3,0.3,0.5s0.2,0.3,0.3,0.5c0.1,0.2,0.2,0.4,0.2,0.5
		c0.1,0.2,0.1,0.4,0.2,0.6c0,0.2,0.1,0.4,0.1,0.6c0,0.2,0,0.4,0,0.7c0,0.1,0,0.3,0,0.4s0,0.3-0.1,0.4c0,0.1-0.1,0.3-0.1,0.4
		c0,0.1-0.1,0.3-0.1,0.4c0,0.1-0.1,0.3-0.2,0.4c-0.1,0.1-0.1,0.2-0.2,0.4s-0.1,0.2-0.2,0.3c-0.1,0.1-0.2,0.2-0.2,0.3
		c-0.1,0.1-0.2,0.2-0.3,0.3c-0.1,0.1-0.2,0.2-0.3,0.3s-0.2,0.2-0.4,0.2c-0.1,0.1-0.3,0.2-0.4,0.2c-0.1,0.1-0.3,0.1-0.4,0.2
		s-0.3,0.1-0.5,0.2c-0.2,0-0.3,0.1-0.5,0.1c-0.2,0-0.3,0.1-0.5,0.1v0v0v0v0v0v0v0v0c0.2,0,0.4,0.1,0.6,0.1c0.2,0,0.4,0.1,0.6,0.1
		c0.2,0.1,0.4,0.1,0.5,0.2c0.2,0.1,0.3,0.1,0.5,0.2c0.2,0.1,0.3,0.1,0.5,0.2c0.1,0.1,0.3,0.2,0.4,0.2c0.1,0.1,0.3,0.2,0.4,0.3
		s0.2,0.2,0.3,0.3c0.1,0.1,0.2,0.2,0.3,0.3c0.1,0.1,0.2,0.2,0.2,0.4c0.1,0.1,0.1,0.3,0.2,0.4c0.1,0.1,0.1,0.3,0.2,0.4
		c0.1,0.1,0.1,0.3,0.1,0.4s0.1,0.3,0.1,0.5s0,0.3,0.1,0.5c0,0.2,0,0.3,0,0.5c0,0.3,0,0.5,0,0.7c0,0.2-0.1,0.5-0.1,0.7
		c0,0.2-0.1,0.4-0.2,0.6c-0.1,0.2-0.1,0.4-0.2,0.6s-0.2,0.4-0.3,0.6s-0.2,0.3-0.3,0.5c-0.1,0.2-0.3,0.3-0.4,0.5
		c-0.1,0.2-0.3,0.3-0.5,0.4c-0.2,0.1-0.3,0.3-0.5,0.4c-0.2,0.1-0.4,0.2-0.6,0.3s-0.4,0.2-0.6,0.3s-0.4,0.2-0.7,0.2s-0.5,0.1-0.7,0.2
		c-0.3,0-0.5,0.1-0.8,0.1c-0.3,0-0.5,0.1-0.8,0.1s-0.6,0-0.9,0h-0.8h-0.8h-0.8h-0.8h-0.8h-0.8h-0.8h-0.8V223v-2.7v-2.7V215v-2.7
		v-2.7v-2.7L1019.8,204.3L1019.8,204.3L1019.8,204.3L1019.8,204.3L1019.8,204.3L1019.8,204.3L1019.8,204.3L1019.8,204.3
		L1019.8,204.3z M1021.2,213.9h0.6h0.6h0.6h0.6h0.6h0.6h0.6h0.6c0.3,0,0.5,0,0.7,0c0.2,0,0.5,0,0.7,0c0.2,0,0.4,0,0.6-0.1
		s0.4-0.1,0.6-0.1c0.2,0,0.4-0.1,0.5-0.1s0.3-0.1,0.5-0.2c0.1-0.1,0.3-0.1,0.4-0.2c0.1-0.1,0.3-0.2,0.4-0.2c0.1-0.1,0.2-0.2,0.3-0.3
		c0.1-0.1,0.2-0.2,0.3-0.3c0.1-0.1,0.2-0.2,0.2-0.3c0.1-0.1,0.1-0.2,0.2-0.4c0.1-0.1,0.1-0.3,0.2-0.4c0-0.1,0.1-0.3,0.1-0.4
		c0-0.2,0.1-0.3,0.1-0.5c0-0.2,0-0.3,0-0.5s0-0.3,0-0.5c0-0.2,0-0.3-0.1-0.5c0-0.2-0.1-0.3-0.1-0.4s-0.1-0.3-0.2-0.4
		c-0.1-0.1-0.1-0.3-0.2-0.4s-0.2-0.2-0.3-0.3c-0.1-0.1-0.2-0.2-0.3-0.3s-0.2-0.2-0.4-0.2s-0.3-0.1-0.4-0.2s-0.3-0.1-0.5-0.2
		c-0.2-0.1-0.3-0.1-0.5-0.2s-0.4-0.1-0.6-0.1s-0.4-0.1-0.6-0.1s-0.4-0.1-0.6-0.1c-0.2,0-0.5,0-0.7-0.1c-0.2,0-0.5,0-0.7,0h-0.5h-0.5
		h-0.5h-0.5h-0.5h-0.5h-0.5h-0.5v1v1v1v1v1v1v1L1021.2,213.9L1021.2,213.9L1021.2,213.9L1021.2,213.9L1021.2,213.9L1021.2,213.9
		L1021.2,213.9L1021.2,213.9L1021.2,213.9z M1021.2,215.2v1.1v1.2v1.1v1.1v1.2v1.1v1.2v1.1h0.6h0.6h0.6h0.6h0.6h0.6h0.6h0.6
		c0.5,0,1,0,1.4-0.1s0.8-0.1,1.2-0.2c0.4-0.1,0.7-0.2,1-0.4c0.3-0.1,0.6-0.3,0.8-0.5c0.2-0.2,0.5-0.4,0.6-0.7s0.3-0.5,0.5-0.8
		c0.1-0.3,0.2-0.6,0.3-1c0.1-0.4,0.1-0.7,0.1-1.1c0-0.4,0-0.7-0.1-1c-0.1-0.3-0.2-0.6-0.3-0.9s-0.3-0.5-0.5-0.8s-0.4-0.4-0.7-0.6
		c-0.3-0.2-0.6-0.3-0.9-0.5c-0.3-0.1-0.7-0.3-1.1-0.3c-0.4-0.1-0.8-0.2-1.3-0.2c-0.5,0-1-0.1-1.5-0.1h-0.6h-0.6h-0.6h-0.6h-0.6h-0.6
		h-0.6H1021.2z"/>
</g>
<g>
	<path d="M1029.2,297c-0.3,0-0.7,0-1,0c-0.3,0-0.6,0.1-0.9,0.1c-0.3,0.1-0.6,0.1-0.9,0.2s-0.6,0.2-0.8,0.3s-0.5,0.2-0.8,0.4
		s-0.5,0.3-0.7,0.4s-0.4,0.3-0.6,0.5c-0.2,0.2-0.4,0.4-0.6,0.6s-0.4,0.4-0.5,0.7c-0.2,0.2-0.3,0.5-0.5,0.7c-0.1,0.3-0.3,0.5-0.4,0.8
		s-0.2,0.6-0.3,0.9c-0.1,0.3-0.2,0.6-0.3,0.9s-0.1,0.6-0.2,1c0,0.3-0.1,0.7-0.1,1c0,0.4,0,0.7,0,1.1c0,0.4,0,0.8,0,1.1
		c0,0.4,0.1,0.7,0.1,1.1c0,0.3,0.1,0.7,0.2,1s0.1,0.6,0.2,0.9c0.1,0.3,0.2,0.6,0.3,0.8s0.2,0.5,0.4,0.8c0.1,0.3,0.3,0.5,0.5,0.7
		c0.2,0.2,0.3,0.5,0.5,0.7s0.4,0.4,0.6,0.6s0.4,0.4,0.6,0.5s0.4,0.3,0.7,0.4c0.2,0.1,0.5,0.2,0.7,0.3s0.5,0.2,0.8,0.3
		s0.6,0.1,0.9,0.2s0.6,0.1,0.9,0.1c0.3,0,0.6,0,1,0c0.2,0,0.4,0,0.7,0c0.2,0,0.4,0,0.6,0s0.4,0,0.6-0.1c0.2,0,0.4,0,0.6-0.1
		c0.2,0,0.4-0.1,0.6-0.1c0.2,0,0.4-0.1,0.6-0.1c0.2,0,0.4-0.1,0.6-0.1c0.2-0.1,0.4-0.1,0.6-0.2v0.2v0.2v0.2v0.2v0.2v0.2v0.2v0.2
		c-0.2,0.1-0.4,0.1-0.5,0.2c-0.2,0.1-0.4,0.1-0.6,0.1s-0.4,0.1-0.6,0.1c-0.2,0-0.4,0.1-0.6,0.1c-0.2,0-0.4,0.1-0.7,0.1
		c-0.2,0-0.5,0-0.7,0.1c-0.2,0-0.5,0-0.7,0c-0.3,0-0.5,0-0.8,0c-0.4,0-0.7,0-1.1,0c-0.4,0-0.7-0.1-1-0.1c-0.3-0.1-0.7-0.1-1-0.2
		c-0.3-0.1-0.6-0.2-0.9-0.3c-0.3-0.1-0.6-0.3-0.9-0.4s-0.5-0.3-0.8-0.5c-0.3-0.2-0.5-0.4-0.7-0.6c-0.2-0.2-0.5-0.4-0.7-0.7
		c-0.2-0.2-0.4-0.5-0.6-0.8c-0.2-0.3-0.4-0.5-0.5-0.8c-0.2-0.3-0.3-0.6-0.4-0.9c-0.1-0.3-0.3-0.6-0.4-1c-0.1-0.3-0.2-0.7-0.3-1.1
		c-0.1-0.4-0.2-0.7-0.2-1.1c-0.1-0.4-0.1-0.8-0.1-1.2c0-0.4,0-0.8,0-1.2c0-0.3,0-0.5,0-0.8c0-0.3,0-0.5,0.1-0.8
		c0-0.3,0.1-0.5,0.1-0.8c0-0.2,0.1-0.5,0.1-0.7c0-0.2,0.1-0.5,0.2-0.7c0.1-0.2,0.1-0.5,0.2-0.7c0.1-0.2,0.2-0.4,0.2-0.7
		c0.1-0.2,0.2-0.4,0.3-0.6c0.1-0.2,0.2-0.4,0.3-0.6c0.1-0.2,0.2-0.4,0.4-0.6c0.1-0.2,0.3-0.4,0.4-0.5c0.1-0.2,0.3-0.3,0.4-0.5
		s0.3-0.3,0.5-0.5c0.2-0.1,0.3-0.3,0.5-0.4c0.2-0.1,0.4-0.3,0.5-0.4c0.2-0.1,0.4-0.2,0.6-0.4c0.2-0.1,0.4-0.2,0.6-0.3
		c0.2-0.1,0.4-0.2,0.6-0.3c0.2-0.1,0.4-0.2,0.6-0.2c0.2-0.1,0.4-0.1,0.7-0.2c0.2-0.1,0.5-0.1,0.7-0.2c0.2,0,0.5-0.1,0.7-0.1
		c0.2,0,0.5-0.1,0.7-0.1c0.3,0,0.5,0,0.8,0c0.3,0,0.5,0,0.8,0c0.3,0,0.5,0,0.8,0.1c0.2,0,0.5,0.1,0.7,0.1c0.2,0,0.5,0.1,0.7,0.1
		c0.2,0.1,0.5,0.1,0.7,0.2c0.2,0.1,0.4,0.1,0.7,0.2c0.2,0.1,0.4,0.2,0.6,0.2c0.2,0.1,0.4,0.2,0.6,0.3l-0.1,0.2l-0.1,0.2l-0.1,0.2
		l-0.1,0.2l-0.1,0.2l-0.1,0.2l-0.1,0.2l-0.1,0.2c-0.2-0.1-0.4-0.2-0.6-0.2c-0.2-0.1-0.4-0.2-0.6-0.2c-0.2-0.1-0.4-0.1-0.6-0.2
		c-0.2-0.1-0.4-0.1-0.6-0.2c-0.2,0-0.4-0.1-0.6-0.1s-0.4-0.1-0.6-0.1c-0.2,0-0.4,0-0.6-0.1C1029.6,297,1029.4,297,1029.2,297z"/>
</g>
<g>
	<path class="st0" d="M739,516.3c0,0,0.1-0.4,0.4-1c0.3-0.7,0.7-1.7,1.2-2.9c0.6-1.2,1.3-2.7,2.1-4.3c0.9-1.6,1.9-3.5,3.1-5.4
		s2.5-4,4-6.1c1.5-2.1,3.2-4.3,5.1-6.4c1.9-2.2,3.9-4.3,6.1-6.4c2.2-2.1,4.6-4.1,7.2-6l18.2-14.3l18.2-14.3l18.2-14.3l18.2-14.3
		l18.2-14.3l18.2-14.3l18.2-14.3l18.2-14.3l3.1,4.3l3.1,4.3l3.1,4.3l3.1,4.3l3.1,4.3l3.1,4.3l3.1,4.3l3.1,4.3l-19.3,12.9l-19.3,12.9
		l-19.3,12.9L862,449.4l-19.3,12.8l-19.3,12.9l-19.3,12.9l-19.3,12.9c-2.6,1.9-5.2,3.5-7.9,5c-2.7,1.5-5.3,2.7-8,3.8
		c-2.6,1.1-5.2,2-7.7,2.8s-4.9,1.4-7.1,1.9c-2.2,0.5-4.3,0.9-6.1,1.2c-1.8,0.3-3.4,0.5-4.8,0.7c-1.3,0.1-2.4,0.2-3.1,0.3
		C739.4,516.3,739,516.3,739,516.3z"/>
	<path class="st0" d="M1139.3,226.9c0,0-0.4,0-1.1,0.1c-0.7,0-1.8,0.1-3.1,0.3s-2.9,0.4-4.8,0.7c-1.8,0.3-3.9,0.7-6.1,1.2
		c-2.2,0.5-4.6,1.1-7.1,1.9s-5.1,1.7-7.7,2.8c-2.6,1.1-5.3,2.3-8,3.8c-2.7,1.5-5.3,3.1-7.9,5l-22.4,15.1l-22.4,15.1l-22.4,15.1
		l-22.4,15.1l-22.4,15.1L959,333.2l-22.4,15.1l-22.4,15.1l3.1,4.3l3.1,4.3l3.1,4.3l3.1,4.3l3.1,4.3l3.1,4.3l3.1,4.3l3.1,4.3
		l21.4-16.6l21.4-16.6l21.4-16.6l21.4-16.6l21.4-16.6l21.4-16.6l21.4-16.6l21.4-16.6c2.6-1.9,5-3.9,7.2-6c2.2-2.1,4.3-4.2,6.1-6.4
		c1.9-2.2,3.5-4.3,5.1-6.4s2.9-4.2,4-6.1c1.2-1.9,2.2-3.8,3.1-5.4s1.6-3.1,2.1-4.3s1-2.2,1.3-2.9
		C1139.2,227.2,1139.3,226.9,1139.3,226.9z"/>
</g>
<g>
	<path class="st0" d="M1139.3,132.4c0,0-0.4,0-1.1,0.1c-0.7,0-1.8,0.1-3.1,0.3s-2.9,0.4-4.8,0.7c-1.8,0.3-3.9,0.7-6.1,1.2
		c-2.2,0.5-4.6,1.1-7.1,1.9s-5.1,1.7-7.7,2.8s-5.3,2.3-8,3.8c-2.7,1.5-5.3,3.1-7.9,5l-19.3,12.9l-19.3,12.8l-19.3,12.9l-19.3,12.9
		L997,212.3l-19.3,12.9L958.4,238l-19.3,12.9l3.1,4.3l3.1,4.3l3.1,4.3l3.1,4.3l3.1,4.3l3.1,4.3l3.1,4.3l3.1,4.3l18.2-14.3l18.2-14.3
		l18.2-14.3l18.2-14.3l18.2-14.3l18.2-14.3l18.2-14.3l18.2-14.3c2.6-1.9,5-3.9,7.2-6c2.2-2.1,4.3-4.3,6.1-6.4
		c1.9-2.2,3.5-4.3,5.1-6.5s2.9-4.2,4-6.1c1.2-1.9,2.2-3.8,3.1-5.4c0.9-1.6,1.6-3.1,2.1-4.3c0.6-1.2,1-2.2,1.3-2.9
		C1139.2,132.7,1139.3,132.4,1139.3,132.4z"/>
	<path class="st0" d="M739,421.9c0,0,0.1-0.4,0.4-1c0.3-0.7,0.7-1.7,1.2-2.9c0.6-1.2,1.3-2.7,2.1-4.3c0.9-1.6,1.9-3.5,3.1-5.4
		c1.2-1.9,2.5-4,4-6.1c1.5-2.1,3.2-4.3,5.1-6.4s3.9-4.3,6.1-6.4c2.2-2.1,4.6-4.1,7.2-6l21.3-16.5l21.3-16.6l21.4-16.5l21.3-16.6
		l21.3-16.5l21.4-16.5l21.3-16.6l21.4-16.5l3.1,4.3l3.1,4.3l3.1,4.3l3.1,4.3l3.1,4.3l3.1,4.3l3.1,4.3l3.1,4.3l-22.4,15.1l-22.4,15.1
		l-22.4,15.1l-22.4,15.1L852.1,361L829.6,376l-22.4,15.1l-22.4,15.1c-2.6,1.9-5.3,3.5-7.9,4.9c-2.7,1.4-5.4,2.7-8,3.8
		c-2.6,1.1-5.2,2-7.7,2.8c-2.5,0.8-4.9,1.4-7.1,1.9c-2.2,0.5-4.3,0.9-6.1,1.2c-1.8,0.3-3.4,0.5-4.8,0.7c-1.3,0.1-2.4,0.2-3.1,0.3
		C739.4,421.8,739,421.9,739,421.9z"/>
</g>
<g>
	<path class="st0" d="M772.3,310.3c0,0,0.2-0.4,0.5-1.1c0.4-0.7,0.9-1.8,1.6-3.1c0.7-1.3,1.6-2.9,2.7-4.7c1.1-1.8,2.3-3.8,3.8-5.9
		c1.4-2.1,3.1-4.4,4.9-6.7s3.8-4.7,6-7.2s4.6-4.8,7.2-7.2c2.6-2.4,5.4-4.6,8.4-6.8l21.2-16.4l21.2-16.4l21.2-16.4l21.2-16.4
		l21.2-16.4l21.2-16.4l21.2-16.4l21.2-16.4l3.1,4.3l3.1,4.3l3.1,4.3l3.1,4.3l3.1,4.3l3.1,4.3l3.1,4.3l3.1,4.3l-22.2,15l-22.2,15
		l-22.2,15l-22.2,15l-22.2,15l-22.2,15l-22.2,15l-22.2,15c-3,2.1-6,4.1-9.1,5.8c-3,1.7-6.1,3.2-9.1,4.6c-3,1.3-5.9,2.5-8.7,3.5
		s-5.5,1.8-7.9,2.5c-2.5,0.7-4.8,1.3-6.8,1.7c-2,0.5-3.8,0.8-5.3,1.1c-1.5,0.3-2.7,0.4-3.5,0.5C772.8,310.2,772.3,310.3,772.3,310.3
		z"/>
	<path class="st0" d="M1139.3,44.9c0,0-0.4,0-1.1,0.1c-0.7,0-1.8,0.1-3.1,0.3c-1.3,0.1-2.9,0.4-4.8,0.7c-1.8,0.3-3.9,0.7-6.1,1.2
		s-4.6,1.1-7.1,1.9c-2.5,0.8-5.1,1.7-7.7,2.8c-2.6,1.1-5.3,2.3-8,3.8c-2.7,1.5-5.3,3.1-7.9,5l-14.6,9.4l-14.6,9.4l-14.6,9.5
		l-14.6,9.4l-14.6,9.4l-14.6,9.5l-14.6,9.4l-14.6,9.4l3.1,4.3l3.1,4.3l3.1,4.3l3.1,4.3l3.1,4.3l3.1,4.3l3.1,4.3l3.1,4.3l13.5-10.9
		l13.6-10.9l13.5-10.9l13.6-10.9l13.5-10.9l13.6-10.9l13.6-10.9l13.5-10.9c2.6-1.9,5-3.9,7.2-6c2.2-2.1,4.3-4.2,6.1-6.4
		c1.9-2.2,3.5-4.3,5.1-6.4c1.5-2.1,2.9-4.2,4-6.1c1.2-1.9,2.2-3.8,3.1-5.4s1.6-3.1,2.1-4.3s1-2.2,1.3-2.9
		C1139.2,45.2,1139.3,44.9,1139.3,44.9z"/>
</g>
<path class="st0" d="M275,347c2.6,0,5.2,0.7,7.6,2c2.5,1.3,4.8,3.2,7.1,5.7s4.4,5.5,6.4,9s3.9,7.5,5.6,11.9
	c1.7,4.4,3.3,9.3,4.6,14.4s2.5,10.7,3.5,16.6s1.7,12,2.2,18.3s0.8,12.9,0.8,19.7s-0.3,13.3-0.8,19.7c-0.5,6.4-1.2,12.5-2.2,18.3
	s-2.1,11.4-3.5,16.6s-2.9,10-4.6,14.4c-1.7,4.4-3.6,8.4-5.6,11.9s-4.2,6.5-6.4,9s-4.6,4.4-7.1,5.7c-2.5,1.3-5,2-7.6,2
	s-5.2-0.7-7.6-2c-2.5-1.3-4.8-3.2-7.1-5.7s-4.4-5.5-6.4-9c-2-3.5-3.9-7.5-5.6-11.9c-1.7-4.4-3.3-9.3-4.6-14.4s-2.5-10.7-3.5-16.6
	s-1.7-12-2.2-18.3c-0.5-6.4-0.8-12.9-0.8-19.7s0.3-13.3,0.8-19.7c0.5-6.4,1.2-12.5,2.2-18.3s2.1-11.4,3.5-16.6s2.9-10,4.6-14.4
	c1.7-4.4,3.6-8.4,5.6-11.9c2-3.5,4.2-6.5,6.4-9s4.6-4.4,7.1-5.7C269.9,347.6,272.4,347,275,347z"/>
</svg>
