<?xml version="1.0" encoding="utf-8"?>
<!-- Generator: Adobe Illustrator 21.0.0, SVG Export Plug-In . SVG Version: 6.00 Build 0)  -->
<svg version="1.1" id="Layer_1" xmlns="http://www.w3.org/2000/svg" xmlns:xlink="http://www.w3.org/1999/xlink" x="0px" y="0px"
	 viewBox="0 0 1190.6 841.9" style="enable-background:new 0 0 1190.6 841.9;" xml:space="preserve">
<style type="text/css">
	.st0{fill:#FFFFFF;}
</style>
<path class="st0" d="M642.1,168.9c0-23.5-14.6-42.5-32.6-42.5s-34.6,19-34.6,42.5v143.6l-4.1,5.4l-4.6-5.4V97.2
	c0-23.5-16.3-42.5-36.5-42.5s-36.5,19-36.5,42.5V269l-0.5-0.1l-4.1,5.4l-4.1-4.8V68.9c0.3-23.5-16-42.5-36.2-42.5
	s-36.5,19-36.5,42.5v200l-4.1,5.4l-4.5-5.4V97.2c0-23.5-16.3-42.5-36.5-42.5c-17.4,0-31.9,14.1-35.6,33.1
	c-3.7-18.9-18.2-33.1-35.6-33.1c-20.2,0-36.5,19-36.5,42.5v172.4h-0.3l-4.4,5.2H254l-3.7-4.9v-201c0-23.5-16.3-42.5-36.5-42.5
	s-36.5,19-36.5,42.5v201l-4.2,4.9h-0.3l-3.9-5.2l-0.3,0.1V97.2c0-23.5-16.3-42.5-36.5-42.5s-36.5,19-36.5,42.5v216h-0.2l-3.9,4.6
	h-1.2l-3.3-4.4V169c0-23.5-15.6-42.5-33.6-42.5s-33.7,19-33.7,42.5c0,0-3.3,318.5,2,391.9c4.6,64.2,37,262.6,37,262.6h544.4
	c0,0,32.4-198.5,37-262.6C644.9,494.9,642.1,168.9,642.1,168.9z M319.8,529.6c-0.4,1.2-0.8,2.5-1.2,3.6c-0.4,1.2-0.8,2.4-1.3,3.5
	c-1.3,3.4-2.7,6.6-4.1,9.5c-0.7,1.4-1.5,2.8-2.2,4.1c-0.5,0.9-1,1.7-1.6,2.5c-0.3,0.4-0.5,0.8-0.8,1.2c-1.1,1.5-2.2,3-3.3,4.2
	c-0.3,0.3-0.6,0.6-0.8,0.9c-2.5,2.7-5.2,4.7-7.9,5.9c-0.6,0.3-1.2,0.5-1.8,0.7c-1.5,0.3-3.1,0.6-4.6,0.6s-3.1-0.2-4.6-0.7
	c-0.6-0.2-1.2-0.4-1.8-0.7c-2.7-1.2-5.3-3.2-7.9-5.9c-0.3-0.3-0.6-0.6-0.8-0.9c-1.1-1.3-2.2-2.7-3.3-4.2c-0.3-0.4-0.5-0.8-0.8-1.2
	c-0.5-0.8-1.1-1.7-1.6-2.5c-0.8-1.3-1.5-2.7-2.2-4.1c-1-1.9-1.9-4-2.8-6.1s-1.8-4.4-2.6-6.8c-0.4-1.2-0.8-2.4-1.2-3.6
	c-5.4-17.5-8.3-38.5-8.3-60.8c0-1.8,0-3.7,0.1-5.7v-0.5c0-1.8,0.1-3.6,0.2-5.3v-0.4c0.2-3.7,0.4-7.4,0.8-11v-0.1v-0.1
	c0.2-1.7,0.4-3.5,0.6-5.2v-0.2c4.9-40.7,19.7-69.2,36.2-69.2c16.4,0,31.3,28.5,36.2,69.2v0.1c0.2,1.8,0.4,3.5,0.6,5.3v0.1v0.1
	c0.3,3.6,0.6,7.3,0.8,11v0.4c0.1,1.7,0.1,3.5,0.2,5.3v0.5c0,1.9,0.1,3.9,0.1,5.7C328.1,491.1,325.2,512.1,319.8,529.6z"/>
<path class="st0" d="M1131.4,681.3c-36.6-32-36.4-100.3-55.1-130.3c-5.2-8.3-11.5-13.7-18.3-17.3c-22.3-11.6-49.1-2.2-54-0.3h-2.7
	c-4.9-1.9-31.8-11.3-54,0.3c-6.8,3.5-13.1,9-18.3,17.3c-18.8,30-18.5,98.3-55.1,130.3c-10,8.7-22.7,14.2-39.4,14.5v1.4v14.6
	c4.1,21.3,18.7,46.8,51,72.1c34.1,26.7,68,36.5,94.2,39.5h45.8c26.2-3,60.2-12.8,94.2-39.5c32.3-25.3,46.9-50.8,51-72.1v-14.6v-1.4
	C1154.2,695.5,1141.4,690,1131.4,681.3z"/>
</svg>
