<?xml version="1.0" encoding="utf-8"?>
<!-- Generator: Adobe Illustrator 21.0.0, SVG Export Plug-In . SVG Version: 6.00 Build 0)  -->
<svg version="1.1" id="Layer_1" xmlns="http://www.w3.org/2000/svg" xmlns:xlink="http://www.w3.org/1999/xlink" x="0px" y="0px"
	 viewBox="0 0 1190.6 841.9" style="enable-background:new 0 0 1190.6 841.9;" xml:space="preserve">
<path style="fill:#FFFFFF;stroke:#000000;stroke-width:2;stroke-miterlimit:10;" d="M134.2,691.8"/>
<path style="fill:#FFFFFF;stroke:#000000;stroke-width:3;stroke-miterlimit:10;" d="M287,226.5"/>
<path style="fill:none;stroke:#231F20;stroke-miterlimit:10;" d="M134.2,691.8"/>
<g id="Layer_2">
</g>
<path style="fill:none;stroke:#000000;stroke-width:1.5;stroke-miterlimit:10;" d="M604.4,825c0,0,32.7-200.6,37.2-264
	c4.7-65.3,2-388.9,2-392.1c0-24.2-15.3-44-34.1-44c-19.3,0-36.1,19.8-36.1,44V312l-2.9,3.5l-2.8-3.5V97.2c0-24.3-17-44-38-44
	s-38,19.7-38,44l-0.2,171.7l-2.8,3l-2.8-3v-200c0-24.2-14.4-44-37.7-44c-21,0-38,19.7-38,44v200l-2.7,3l-2.9-3V97.2
	c0-24.3-17-44-38-44c-8.7,0-17.2,3.5-24,9.8c-5.3,4.9-9.3,11.5-11.6,18.8c-2.4-7.3-6.4-13.8-11.6-18.7c-6.7-6.4-15.3-9.9-24-9.9
	c-21,0-38,19.7-38,44v172.2l-2.9,3.2l-2.9-3.2V68.9c0-24.3-17-44-38-44s-38,19.7-38,44v200.4l-2.9,3.2l-2.9-3.2V97.2
	c0-24.3-17-44-38-44s-38,19.7-38,44v215.7l-2.8,3.2l-2.8-3.2V169c0-11.6-3.7-22.6-10.4-31c-6.6-8.3-15.6-13-24.7-13
	c-19.1,0-35.2,20.1-35.2,44c0,3.2-3.2,319.4,2,392c4.6,63.5,37.2,264,37.2,264H604.4z"/>
<ellipse style="fill:none;stroke:#000000;stroke-width:1.5;stroke-miterlimit:10;" cx="290.2" cy="468.7" rx="37.9" ry="97.6"/>
<path style="fill:none;stroke:#000000;stroke-width:1.5;stroke-miterlimit:10;" d="M834.5,695.8c0,0,26.7-5.3,37.9-13.3
	c0.5-0.4,1-0.8,1.4-1.2c36.6-32,36.4-100.3,55.1-130.3c5.2-8.3,11.5-13.7,18.3-17.3c6.3-3.3,13-4.4,19.6-4.3
	c16.7,0.3,32.2,8.5,35.8,10c3.6-1.4,19.2-9.7,35.8-10c6.6-0.1,13.3,1,19.6,4.3c6.8,3.6,13.1,9,18.3,17.3
	c18.7,30,18.5,98.3,55.1,130.3c0.5,0.4,0.9,0.8,1.4,1.2c11.2,8,37.9,13.3,37.9,13.3c-3.4,42.8-53.1,125.9-168.1,127.6l0,0l0,0
	C991.7,823.6,859.2,820.6,834.5,695.8z"/>
<g>
	<path d="M1047.3,152.6h-8.7l-3,7.6h-1.7l8.6-21.5h1l8.4,21.5h-1.7L1047.3,152.6z M1039.2,151.2h7.7l-2.9-7.7
		c-0.2-0.6-0.5-1.4-0.9-2.5c-0.3,0.9-0.6,1.8-0.9,2.5L1039.2,151.2z"/>
</g>
<g>
	<path d="M1036,228.4h5.9c2.6,0,4.6,0.4,5.8,1.3s1.9,2.3,1.9,4.1c0,1.2-0.4,2.3-1.1,3.1s-1.9,1.4-3.3,1.6v0.1c1.7,0.3,3,0.8,3.8,1.6
		c0.8,0.8,1.2,2,1.2,3.4c0,2-0.7,3.5-2,4.6s-3.2,1.6-5.6,1.6h-6.6V228.4z M1037.4,238h4.7c2,0,3.5-0.3,4.4-1
		c0.9-0.7,1.4-1.7,1.4-3.1s-0.5-2.5-1.5-3.1c-1-0.6-2.6-1-4.6-1h-4.3V238z M1037.4,239.3v9.2h5c4,0,5.9-1.6,5.9-4.8
		c0-2.9-2.1-4.4-6.3-4.4H1037.4z"/>
</g>
<g>
	<path d="M1045.4,321.1c-2.7,0-4.8,0.9-6.3,2.6s-2.3,4.1-2.3,7.1c0,3.1,0.7,5.4,2.2,7.1s3.5,2.5,6.2,2.5c1.8,0,3.4-0.2,5-0.7v1.3
		c-1.4,0.5-3.2,0.7-5.3,0.7c-3,0-5.4-1-7.1-2.9s-2.6-4.7-2.6-8.1c0-2.2,0.4-4.1,1.2-5.8s2-2.9,3.6-3.8c1.5-0.9,3.3-1.4,5.4-1.4
		c2.1,0,4,0.4,5.6,1.2l-0.6,1.3C1048.7,321.5,1047.1,321.1,1045.4,321.1z"/>
</g>
<path style="fill:#FFFFFF;stroke:#000000;stroke-width:3;stroke-miterlimit:10;" d="M1306.1,530.4"/>
<g>
	<path style="fill:none;stroke:#000000;stroke-width:1.5;stroke-miterlimit:10;" d="M755.2,540.5c0,0,8.5-23.6,29.3-38.6
		l145.9-114.4l25,34.6L801,524.9C780.3,539.9,755.2,540.5,755.2,540.5z"/>
	<path style="fill:none;stroke:#000000;stroke-width:1.5;stroke-miterlimit:10;" d="M1155.5,251c0,0-25,0.7-45.8,15.7L930.3,387.5
		l25,34.6l170.9-132.5C1146.9,274.6,1155.5,251,1155.5,251z"/>
</g>
<g>
	<path style="fill:none;stroke:#000000;stroke-width:1.5;stroke-miterlimit:10;" d="M1155.5,156.5c0,0-25,0.7-45.8,15.7L955.3,275
		l25,34.6l145.9-114.4C1146.9,180.1,1155.5,156.5,1155.5,156.5z"/>
	<path style="fill:none;stroke:#000000;stroke-width:1.5;stroke-miterlimit:10;" d="M755.2,446c0,0,8.5-23.6,29.3-38.6L955.3,275
		l25,34.6L801,430.4C780.2,445.3,755.2,446,755.2,446z"/>
</g>
<g>
	<path style="fill:none;stroke:#000000;stroke-width:1.5;stroke-miterlimit:10;" d="M788.5,334.4c0,0,11.2-25.5,35.1-42.8
		l169.3-131.3l25,34.6L840.1,314.6C816.2,331.8,788.5,334.4,788.5,334.4z"/>
	<path style="fill:none;stroke:#000000;stroke-width:1.5;stroke-miterlimit:10;" d="M1155.5,69c0,0-25,0.7-45.8,15.7l-116.9,75.6
		l25,34.6l108.4-87.3C1146.9,92.6,1155.5,69,1155.5,69z"/>
</g>
</svg>
