<?xml version="1.0" encoding="utf-8"?>
<!-- Generator: Adobe Illustrator 21.0.0, SVG Export Plug-In . SVG Version: 6.00 Build 0)  -->
<svg version="1.1" id="Layer_1" xmlns="http://www.w3.org/2000/svg" xmlns:xlink="http://www.w3.org/1999/xlink" x="0px" y="0px"
	 viewBox="0 0 74 112" style="enable-background:new 0 0 74 112;" xml:space="preserve">
<g>
	<g>
		<path style="fill:#FFFFFF;" d="M37.7,109.5c-22.9,0-34.6-18-34.6-53.5c0-35.5,11.6-53.5,34.6-53.5C61,2.5,72.3,20,72.3,56
			c0,16.6-2.3,29-6.9,37.7C59.7,104.2,50.4,109.5,37.7,109.5z"/>
		<path d="M37.7,3c26.6,0,34.1,23.7,34.1,53s-7,53-34.1,53C11.3,109,3.6,85.3,3.6,56S11.8,3,37.7,3 M37.7,2C25.2,2,15.9,7.4,10,18.1
			C5.1,27,2.6,39.8,2.6,56c0,35.8,11.8,54,35.1,54c12.9,0,22.4-5.4,28.1-16c4.7-8.8,7-21.2,7-37.9c0-16.6-2.4-29-7.2-37.9
			C59.8,7.4,50.4,2,37.7,2L37.7,2z"/>
	</g>
	<g>
		<path style="fill:#FFFFFF;" d="M37.7,104.4C22,104.4,9.2,91.6,9.2,75.9V36.1C9.2,20.4,22,7.6,37.7,7.6c15.7,0,28.5,12.8,28.5,28.5
			v39.8C66.2,91.6,53.4,104.4,37.7,104.4z"/>
		<path d="M37.7,8.6c15.2,0,27.5,12.3,27.5,27.5v39.8c0,15.2-12.3,27.5-27.5,27.5S10.2,91.1,10.2,75.9V36.1
			C10.2,20.9,22.5,8.6,37.7,8.6 M37.7,6.6L37.7,6.6C21.5,6.6,8.2,19.9,8.2,36.1v39.8c0,16.2,13.3,29.5,29.5,29.5h0
			c16.2,0,29.5-13.3,29.5-29.5V36.1C67.2,19.9,53.9,6.6,37.7,6.6L37.7,6.6z"/>
	</g>
	<g>
		<path style="fill:#FFFFFF;" d="M4.1,80.8c-0.7,0-1.3-0.6-1.3-1.3V34.2c0-0.7,0.6-1.3,1.3-1.3s1.3,0.6,1.3,1.3v45.2
			C5.4,80.2,4.8,80.8,4.1,80.8z"/>
		<path d="M4.1,33.4c0.5,0,0.8,0.4,0.8,0.8v45.3c0,0.5-0.4,0.8-0.8,0.8s-0.8-0.4-0.8-0.8V34.2C3.2,33.7,3.6,33.4,4.1,33.4 M4.1,32.4
			c-1,0-1.8,0.8-1.8,1.8v45.3c0,1,0.8,1.8,1.8,1.8s1.8-0.8,1.8-1.8V34.2C5.9,33.2,5.1,32.4,4.1,32.4L4.1,32.4z"/>
	</g>
</g>
</svg>
