<svg id="Layer_1" data-name="Layer 1" xmlns="http://www.w3.org/2000/svg" viewBox="0 0 582.82 354.99"><title>isometricHoop</title><polygon points="33.06 139.98 33.85 162.43 52.62 146.96 33.06 139.98" style="fill:#d1cfcf;stroke:#000;stroke-miterlimit:10"/><path d="M706.13,210.29c20.45,77.34-11.34,110.73-137,183.27-71.31,41.17-134.52,66.19-191.78,76.29-69.74,11.81-132.71,1.75-187.61-29.95-99-57.15-76.68-165.88,80.25-224,206-76.35,292.08-96.37,381.39-60.34C670.12,175.95,696.36,193.94,706.13,210.29Z" transform="translate(-129.54 -120.14)" style="fill:#a8a8a8"/><path d="M189.75,439.9c-99-57.15-76.68-165.88,80.25-224,206-76.35,292.08-96.37,381.39-60.34,18.73,20.43,45,38.42,54.74,54.77,20.45,77.34-11.34,110.73-137,183.27-71.31,41.17-134.52,66.19-191.78,76.29C307.62,481.66,244.65,471.6,189.75,439.9Z" transform="translate(-129.54 -120.14)" style="fill:none;stroke:#000;stroke-miterlimit:10"/><path d="M189.75,419.87c-99-57.15-72.24-131,80.26-219S550,97.1,649.39,154.5c100.72,58.15,74.39,129.76-80.26,219-71.31,41.17-134.52,66.18-191.78,76.28C307.61,461.64,244.64,451.57,189.75,419.87Z" transform="translate(-129.54 -120.14)" style="fill:#d1cfcf;stroke:#000;stroke-miterlimit:10"/><path d="M211.65,407.23c-67.87-39.18-68.21-102.87-.77-141.81l171-98.71c67.44-38.94,177.76-38.74,245.63.44S695.7,270,628.25,309l-171,98.71C389.84,446.61,279.52,446.41,211.65,407.23Z" transform="translate(-129.54 -120.14)" style="fill:#fff;stroke:#3f3f3f;stroke-miterlimit:10;stroke-width:6px"/><path d="M375.71,144.8a17.06,17.06,0,0,0-15.51,0L165.59,257.12c-4.3,2.48-4.27,6.46,0,9a17.06,17.06,0,0,0,15.51,0l194.6-112.35c4.3-2.48,4.27-6.46,0-9Z" transform="translate(-129.54 -120.14)" style="fill:#d1cfcf;stroke:#000;stroke-miterlimit:10"/><path d="M371.41,147.28c2.16,1.25,1.74,3,0,4L176.83,263.61a7.48,7.48,0,0,1-6.89,0,2.18,2.18,0,0,1,0-4l194.6-112.35c1.72-1.49,4.73-1.24,6.89,0" transform="translate(-129.54 -120.14)"/><path d="M709.2,278.74" transform="translate(-129.54 -120.14)" style="fill:#fff;stroke:#000;stroke-miterlimit:10"/><path d="M709.2,232.12" transform="translate(-129.54 -120.14)" style="fill:#fff;stroke:#000;stroke-miterlimit:10"/></svg>