<?xml version="1.0" encoding="utf-8"?>
<!-- Generator: Adobe Illustrator 21.0.0, SVG Export Plug-In . SVG Version: 6.00 Build 0)  -->
<svg version="1.1" id="Layer_1" xmlns="http://www.w3.org/2000/svg" xmlns:xlink="http://www.w3.org/1999/xlink" x="0px" y="0px"
	 viewBox="0 0 142.7 142.7" style="enable-background:new 0 0 142.7 142.7;" xml:space="preserve">
<style type="text/css">
	.st0{fill:#B0938F;stroke:#000000;stroke-miterlimit:10;}
	.st1{fill:#FFFFFF;stroke:#1D1C1A;stroke-width:0.25;stroke-miterlimit:10;}
	.st2{fill:#672E58;}
	.st3{fill:#753567;}
	.st4{fill:#DDDDDD;}
	.st5{font-family:'ArialMT';}
	.st6{font-size:4.92px;}
	.st7{fill:#6D6D6D;}
	.st8{fill:#7F7F7F;}
	.st9{fill:#BCA16A;}
	.st10{fill:#B8AF82;}
</style>
<title>lilypad</title>
<circle class="st0" cx="71.4" cy="71.4" r="70.9"/>
<path class="st1" d="M76.9,20.5c-0.6-0.2-0.7-0.8-1.2-1.1c-0.4-0.4-0.9-0.7-1.3-1c-0.4-0.1-0.7-0.3-1.1-0.4c-0.3,0-0.7-0.1-1-0.2
	c-1-0.1-1.9,0-2.8,0.2c-0.4,0.1-0.7,0.3-1.1,0.4c-0.5,0.3-1,0.7-1.5,1.1c-0.1,0.2-0.3,0.3-0.4,0.5s-0.3,0.4-0.6,0.4
	s-0.3-0.4-0.3-0.6c-0.5-3.6-1.1-7.4-1.7-10.9c0-1.1,0.2-2.3,0.7-3.3c0-0.1,0.1-0.2,0.1-0.3s0.1-0.1,0.2-0.2s0.3-0.6,0.4-0.8
	c1-1.2,2.2-2.2,3.7-2.7c0.7-0.2,1.4-0.2,2.1-0.3c0,0,0,0,0.1,0c0.8,0,1.7,0.2,2.5,0.4c2.3,0.8,4,2.6,4.8,4.9
	c0.2,0.8,0.3,1.7,0.3,2.5c-0.3,1.9-0.6,3.9-0.9,5.8c-0.3,1.7-0.5,3.4-0.8,5.1C77.2,20.2,77.2,20.5,76.9,20.5z"/>
<path class="st1" d="M71.2,8.5c-0.2,0-0.4,0.1-0.5,0.1c-0.8,0.5-1.1,1.5-0.6,2.3c0.3,0.5,0.8,0.8,1.4,0.8c0.9,0,1.6-0.7,1.7-1.6l0,0
	c0-0.9-0.7-1.7-1.6-1.7C71.4,8.5,71.3,8.5,71.2,8.5L71.2,8.5C71.3,8.5,71.2,8.5,71.2,8.5z"/>
<path class="st1" d="M62.1,20.9c-0.5,0-0.8-0.4-1.1-0.7c-0.3-0.1-0.6-0.3-0.8-0.4c-1-0.3-2-0.4-3.1-0.3c-1.7,0.3-3.2,1.2-4.3,2.5
	c-0.2,0.3-0.4,0.7-0.6,1s-0.2,0.9-0.6,1s-0.3-0.3-0.5-0.6c-0.1-0.2-0.2-0.4-0.3-0.7c-0.2-0.4-0.4-0.9-0.6-1.3
	c-0.4-0.9-0.8-1.8-1.3-2.7c-0.8-1.8-1.7-3.6-2.5-5.3c-0.2-0.8-0.3-1.6-0.4-2.4c0.1-2.8,1.7-5.4,4.2-6.6c0.7-0.3,1.4-0.5,2.1-0.6
	c0,0,0,0,0.1,0c1.2-0.1,2.4,0.1,3.6,0.4c0.4,0.3,0.8,0.4,1.2,0.6c0.7,0.4,1.3,0.9,1.8,1.4c0.7,0.9,1.3,1.9,1.7,3
	c0.4,3,0.8,6.1,1.2,9c0,0.5,0.1,1,0.2,1.4S62.5,20.6,62.1,20.9z"/>
<path class="st1" d="M53.7,10.8c-0.9,0.1-1.5,0.9-1.4,1.8c0,0,0,0,0,0.1c0.2,0.9,1,1.5,1.9,1.4c0.7-0.1,1.2-0.7,1.4-1.4
	c0.1-0.9-0.5-1.8-1.4-1.9C54.1,10.8,53.9,10.8,53.7,10.8L53.7,10.8C53.8,10.8,53.8,10.8,53.7,10.8z"/>
<path class="st1" d="M91.2,24.1c-0.4-0.1-0.4-0.6-0.6-0.9s-0.4-0.6-0.6-1c-1.9-2.5-5.4-3.3-8.2-1.7c-0.3,0.1-0.8,0.8-1.2,0.7
	c-0.2-0.1-0.2-0.5-0.1-0.8s0.1-0.5,0.1-0.8c0.2-0.7,0.3-1.5,0.4-2.2c0.1-0.4,0.1-0.8,0.1-1.1c0.1-0.3,0.1-0.7,0.1-1
	c0.3-1,0.3-2.3,0.5-3.5c0-0.4,0.1-0.7,0.2-1.1c0-0.1,0-0.2,0-0.3c0.1-0.3,0.2-0.6,0.2-0.9c0.4-1.1,0.9-2.1,1.6-3
	c1.3-1.4,3.2-2.3,5.1-2.4c0,0,0,0,0.1,0c0.8-0.1,1.6,0,2.4,0.3c0.8,0.2,1.5,0.6,2.1,1c0.2,0.1,0.4,0.4,0.7,0.6
	c0.7,0.6,1.2,1.3,1.7,2.1c0.5,1,0.8,2.2,0.9,3.3c0,0.8-0.2,1.5-0.3,2.3c-0.8,1.9-1.7,3.6-2.5,5.4c-0.4,0.9-0.8,1.8-1.3,2.7
	c-0.2,0.4-0.4,0.9-0.6,1.3c-0.1,0.3-0.3,0.4-0.3,0.7S91.5,24.1,91.2,24.1z"/>
<path class="st1" d="M87.6,11.4c-0.3,0.3-0.4,0.6-0.5,1c0,0.9,0.7,1.7,1.6,1.8c0.5,0,0.9-0.1,1.2-0.5c0.3-0.3,0.5-0.8,0.5-1.2
	c0-0.6-0.4-1.2-1-1.5C88.8,10.8,88.1,11,87.6,11.4z"/>
<path class="st1" d="M48.3,25.6c-0.4,0.2-0.9-0.2-1.2-0.2c-1.3-0.2-2.7-0.1-4,0.3c-0.6,0.3-1.1,0.7-1.7,1.1c-0.4,0.3-0.7,0.7-1,1.1
	s-0.5,0.8-0.8,1.3c-0.1,0.4-0.2,0.8-0.3,1.3s0,1-0.4,1s-0.4-0.3-0.6-0.5s-0.4-0.4-0.5-0.6c-0.3-0.4-0.7-0.8-1.1-1.2
	c-1.5-1.6-2.9-3.2-4.3-4.8c-0.8-0.8-1.5-1.6-2-2.6c-0.1-0.4-0.3-0.8-0.4-1.2c0-0.3-0.1-0.7-0.2-1c-0.1-0.8-0.1-1.6,0-2.4
	c0.2-0.7,0.5-1.5,0.8-2.2c1.2-2.1,3.5-3.5,5.9-3.6c1.2-0.1,2.4,0.1,3.5,0.6c0.7,0.4,1.3,0.8,2,1.2c0.6,0.6,1.2,1.3,1.7,2
	c0.7,1.8,1.6,3.5,2.4,5.3c0.4,0.9,0.8,1.8,1.2,2.7c0.2,0.4,0.4,0.9,0.6,1.3C47.9,24.8,48.5,25.1,48.3,25.6z"/>
<path class="st1" d="M37.7,18.3c-0.2,0-0.4,0.1-0.5,0.2c-0.5,0.3-0.8,0.8-0.8,1.4c0,0.4,0.2,0.8,0.5,1.1c0.6,0.7,1.7,0.7,2.4,0
	c0.4-0.4,0.5-0.9,0.5-1.4c-0.1-0.9-1-1.6-1.9-1.4C37.8,18.3,37.8,18.3,37.7,18.3L37.7,18.3C37.8,18.3,37.7,18.3,37.7,18.3z"/>
<path class="st1" d="M103.8,31.5c-0.3-0.2-0.2-0.8-0.3-1.3c-0.2-0.7-0.4-1.3-0.7-1.9c-0.2-0.2-0.4-0.4-0.5-0.7
	c-0.2-0.3-0.5-0.5-0.7-0.8c-0.8-0.6-1.7-1.1-2.6-1.4c-1.1-0.3-2.3-0.2-3.4,0.1c-0.3,0.1-0.7,0.3-1,0c0-0.6,0.3-0.9,0.5-1.4
	s0.4-0.9,0.6-1.3c0.4-0.9,0.8-1.8,1.2-2.7c0.6-1.3,1.2-2.7,1.8-4c0.3-0.8,0.8-1.6,1.3-2.3c0.3-0.3,0.6-0.6,0.9-0.8
	c0.9-0.7,1.9-1.3,3-1.6c0.4,0,0.8-0.1,1.2-0.2c0,0,0,0,0.1,0c0.8,0,1.6,0,2.4,0.2c3.1,0.8,5.3,3.5,5.5,6.6c0,0.9-0.1,1.7-0.3,2.6
	c-0.3,0.7-0.6,1.4-0.9,2c-1.3,1.5-2.6,3-3.9,4.5c-0.7,0.7-1.3,1.5-2,2.2c-0.5,0.6-1,1.1-1.5,1.7C104.3,31.3,104.2,31.6,103.8,31.5z"
	/>
<path class="st1" d="M104.6,18.3c-0.8,0.1-1.4,0.9-1.3,1.7c0.1,0.9,0.9,1.6,1.8,1.5c0.8-0.1,1.4-0.7,1.5-1.5
	c0.1-0.9-0.6-1.7-1.5-1.7C104.9,18.3,104.8,18.3,104.6,18.3L104.6,18.3L104.6,18.3z"/>
<path class="st1" d="M36.2,34c-0.3,0.3-0.9,0.1-1.3,0.1c-1.3,0.1-2.6,0.6-3.6,1.4c-0.6,0.5-1,1-1.5,1.7c-0.1,0.2-0.2,0.4-0.4,0.7
	c-0.1,0.3-0.2,0.6-0.3,0.9c-0.2,0.7-0.2,1.4-0.2,2.2c0,0.4,0.3,1,0,1.3c-0.6,0-0.9-0.5-1.3-0.7s-0.8-0.5-1.3-0.8
	c-0.8-0.6-1.7-1-2.5-1.6c-1.7-1-3.3-2.1-5-3.1c-1.2-1-2.1-2.4-2.5-3.9c-0.3-1.5-0.2-3.1,0.3-4.6c0.5-1.1,1.2-2.1,2.1-2.9
	c1-0.6,2.1-1.1,3.2-1.5c0.3,0,0.6-0.1,0.9-0.1c0,0,0,0,0.1,0h1.4c0.7,0.1,1.5,0.3,2.2,0.6c0.4,0.2,0.7,0.4,1.1,0.6s0.7,0.5,1,0.8
	c1.3,1.5,2.6,3,3.8,4.5c0.7,0.7,1.3,1.5,1.9,2.2c0.3,0.4,0.6,0.8,1,1.1c0.2,0.2,0.3,0.4,0.5,0.6S36.3,33.7,36.2,34z"/>
<path class="st1" d="M24.4,29.7c-0.2,0-0.3,0.1-0.5,0.2c-0.6,0.3-0.9,1-0.9,1.7c0.1,0.9,1,1.5,1.9,1.4c0.6-0.1,1.1-0.5,1.3-1
	c0.3-0.8-0.1-1.8-0.9-2.2C25.1,29.7,24.8,29.6,24.4,29.7L24.4,29.7L24.4,29.7z"/>
<path class="st1" d="M107,33.3c0.2-0.2,0.3-0.4,0.6-0.6c0.3-0.4,0.7-0.8,1-1.3c0.8-0.8,1.4-1.6,2.2-2.4s1.6-1.8,2.4-2.8
	c1.2-1.7,3.1-2.9,5.2-3.1c0,0,0,0,0.1,0c2-0.2,4,0.4,5.7,1.6c1.5,1.3,2.4,3.1,2.6,5.1c0,0.8,0,1.6-0.2,2.4c-0.4,1.6-1.3,2.9-2.5,4
	c-2.5,1.5-5,3.1-7.5,4.7c-0.4,0.3-0.8,0.5-1.2,0.8s-0.8,0.7-1.3,0.7c-0.4-0.2-0.1-0.9,0-1.3V40c0-0.1-0.1-0.3-0.1-0.4
	c0.1-0.6-0.3-1.1-0.3-1.6c-0.3-0.4-0.4-0.9-0.8-1.3c-0.3-0.4-0.6-0.7-1-1.1c-0.3-0.2-0.6-0.4-0.8-0.6c-0.9-0.4-1.9-0.7-2.8-0.8
	c-0.4,0-1.2,0.3-1.3-0.1S106.9,33.5,107,33.3z"/>
<path class="st1" d="M117.8,29.7c-0.8,0.2-1.3,0.8-1.3,1.6c0,0.8,0.6,1.5,1.5,1.6h0.4c0.9-0.1,1.5-0.9,1.4-1.8
	c-0.1-0.7-0.6-1.3-1.3-1.4C118.3,29.7,118.1,29.7,117.8,29.7L117.8,29.7L117.8,29.7z"/>
<path class="st1" d="M120.5,55.1c-0.1-0.5,0.3-0.8,0.4-1.2c0.1-0.3,0.2-0.7,0.3-1c0.1-0.7,0.1-1.3,0.1-2c0-0.1-0.1-0.2-0.1-0.4
	c-0.1-0.4-0.2-0.8-0.3-1.2c-0.2-0.5-0.4-0.9-0.6-1.3c-0.2-0.2-0.4-0.5-0.6-0.8c-0.5-0.5-1-0.9-1.6-1.2c-0.4-0.1-0.7-0.3-1.1-0.4
	s-0.9-0.1-1.1-0.5s0.3-0.4,0.5-0.5s0.4-0.3,0.6-0.4c0.4-0.2,0.8-0.5,1.3-0.8c0.8-0.6,1.7-1.1,2.5-1.6c1.7-1.1,3.3-2.1,5-3.2
	c1-0.5,2.1-0.7,3.2-0.8c0.9,0,1.8,0.1,2.6,0.4c2.3,0.8,4,2.7,4.7,5c0.4,1.9,0.1,4-0.8,5.7c-0.9,1.3-2.1,2.4-3.5,3.1
	c-2,0.5-3.8,1.1-5.8,1.6c-0.2,0.1-0.5,0.2-0.7,0.2c-1.1,0.3-2.4,0.7-3.6,1C121.4,55.1,120.9,55.4,120.5,55.1z"/>
<path class="st1" d="M127.5,44.3c-0.8,0.1-1.4,0.8-1.4,1.6c0,0.9,0.8,1.7,1.7,1.6c0.4,0,0.8-0.2,1.1-0.5c0.2-0.3,0.4-0.6,0.4-1
	c0.1-0.9-0.6-1.7-1.5-1.8C127.8,44.3,127.6,44.3,127.5,44.3L127.5,44.3L127.5,44.3z"/>
<path class="st1" d="M22.4,55.2c-0.2,0.2-0.5,0.1-0.7,0l-2.2-0.6c-2.9-0.8-5.7-1.7-8.6-2.4c-1.1-0.5-2-1.2-2.9-2.1
	c-0.7-1-1.2-2.1-1.5-3.3c-0.1-0.7-0.1-1.5-0.1-2.2c0-0.4,0.2-0.8,0.2-1.2c0.3-0.7,0.6-1.5,1-2.2c0.5-0.6,1.1-1.2,1.7-1.7
	c0.7-0.4,1.3-0.8,2.1-1.1c0.8-0.2,1.5-0.3,2.3-0.4c1.2,0,2.4,0.2,3.5,0.7c1.5,1,3,2,4.5,2.9c0.5,0.4,1,0.7,1.5,0.9
	c0.4,0.4,0.9,0.7,1.5,1c0.5,0.4,1,0.7,1.5,1c0.2,0.3,0.8,0.3,0.9,0.8c-0.1,0.4-0.8,0.3-1.2,0.5s-0.6,0.3-0.9,0.4
	c-0.8,0.5-1.6,1.2-2.2,2c-0.1,0.3-0.3,0.6-0.5,0.9c-0.2,0.5-0.3,1-0.5,1.4c0,0.2-0.1,0.3-0.1,0.5c-0.1,1,0.1,2,0.4,3
	C22.1,54.4,22.5,54.7,22.4,55.2z"/>
<path class="st1" d="M14.9,44.3c-0.2,0-0.4,0.1-0.6,0.2c-0.4,0.3-0.7,0.7-0.8,1.2c-0.1,0.9,0.5,1.8,1.4,1.9c0.6,0.1,1.1-0.1,1.5-0.5
	c0.3-0.4,0.4-0.9,0.4-1.4C16.6,44.8,15.8,44.2,14.9,44.3L14.9,44.3L14.9,44.3z"/>
<path class="st1" d="M19.8,69.5c-0.2,0.3-0.8,0.2-1.3,0.2c-3,0-6,0.1-9.1,0.1c-0.5,0-1,0-1.5,0c-0.2,0-0.4-0.1-0.6-0.2
	c-0.5-0.1-1.1-0.3-1.6-0.5c-0.7-0.4-1.4-0.8-2-1.3c-1.7-1.7-2.6-4-2.3-6.4c0-0.2,0.1-0.3,0.1-0.5c0.1-0.3,0.1-0.5,0.2-0.8
	s0.3-0.7,0.4-1c1.2-2.1,3.2-3.6,5.6-4c0.8-0.1,1.7-0.1,2.5,0c1.9,0.6,3.9,1.1,5.8,1.8c0.7,0.1,1.2,0.4,2,0.5c0.5,0.3,1,0.5,1.6,0.6
	c0.3,0.2,0.7,0.3,1,0.3c0.3,0.2,0.8,0.1,0.9,0.4s-0.3,0.4-0.5,0.5s-0.4,0.2-0.5,0.3c-0.5,0.4-1,0.9-1.5,1.4
	c-0.1,0.3-0.4,0.6-0.5,0.9c-0.5,1.2-0.7,2.6-0.6,3.9c0.2,0.7,0.4,1.3,0.7,1.9c0.1,0.3,0.4,0.5,0.5,0.8S19.8,69,19.8,69.5z"/>
<path class="st1" d="M9.9,61.1c-0.8,0.1-1.4,0.9-1.3,1.7c0.1,0.9,0.9,1.6,1.8,1.5s1.6-0.9,1.5-1.8S11,60.9,10.1,61
	C10.1,61,10,61,9.9,61.1L9.9,61.1L9.9,61.1z"/>
<path class="st1" d="M141.5,61.6v0.2c-0.1,0.1,0,0.2,0,0.3v0.2v0.1v0.4c-0.1,1.7-0.8,3.3-1.9,4.5c-0.5,0.6-1.1,1.1-1.8,1.4
	c-0.7,0.5-1.5,0.8-2.3,0.9c-0.5,0.1-1,0.2-1.5,0.2h-4.9c-1.6,0-3.2,0-4.8-0.1c-0.5,0-1.2,0.2-1.4-0.2c0.1-0.6,0.7-0.7,0.8-1.2
	c2-2.7,1.5-6.6-1.3-8.6c-0.3-0.3-1-0.4-1.2-0.9c0,0,0,0,0-0.1c0.2-0.4,0.9-0.3,1.3-0.6c0.5-0.2,1-0.3,1.5-0.4
	c0.9-0.3,1.9-0.6,2.9-0.9c1.4-0.4,2.9-0.9,4.3-1.3c0.5-0.2,1-0.3,1.5-0.4c0.6,0,1.2,0,1.7,0c1,0.1,2,0.4,2.9,0.9
	c0.4,0.2,0.8,0.5,1.1,0.8C140.2,58,141.2,59.7,141.5,61.6z"/>
<path class="st1" d="M132.3,61.1c-0.2,0-0.3,0.1-0.4,0.2c-0.6,0.3-0.9,1-0.9,1.6c0.1,0.9,0.9,1.6,1.8,1.5l0,0c0.4-0.1,0.7-0.2,1-0.5
	s0.5-0.7,0.5-1.2c0-0.9-0.7-1.7-1.6-1.7C132.6,61,132.5,61,132.3,61.1L132.3,61.1L132.3,61.1z"/>
<path class="st1" d="M1.2,81.2V81c0.1,0,0-0.2,0-0.3v-0.2v-0.1V80c0.1-1.6,0.8-3.2,2-4.4c0.7-0.8,1.5-1.4,2.3-1.8
	c0.3-0.2,0.5-0.2,0.9-0.3c0.5-0.2,0.9-0.3,1.4-0.4c0.8,0,1.6,0,2.4,0c2.7,0,5.7,0,8.4,0c0.5,0,1.1-0.1,1.1,0.3
	c-0.1,0.2-0.2,0.5-0.4,0.6c-0.5,0.5-0.9,1.2-1.2,1.9c-0.5,1.1-0.6,2.3-0.3,3.5c0.3,1.5,1.1,2.9,2.3,3.8c0.3,0.4,1,0.4,1.2,0.9
	c0.1,0.1,0,0.2-0.1,0.3s-0.2,0.1-0.4,0.1c-1.9,0.6-3.8,1.1-5.7,1.7c-0.9,0.3-1.9,0.6-2.8,0.8c-1,0.3-1.9,0.6-2.9,0.8
	c-2,0.2-4-0.4-5.6-1.8C2.4,84.7,1.5,83.1,1.2,81.2z"/>
<path class="st1" d="M9.8,78.6c-0.8,0.1-1.3,0.8-1.3,1.6c0.1,0.9,0.9,1.6,1.8,1.6c0.4,0,0.7-0.2,1-0.4c0.3-0.4,0.5-0.9,0.4-1.3
	C11.7,79,10.8,78.4,9.8,78.6C9.9,78.5,9.9,78.5,9.8,78.6L9.8,78.6L9.8,78.6z"/>
<path class="st1" d="M141.5,80.1v0.4v0.1v0.2c0,0.1-0.1,0.3,0,0.3v0.2c-0.1,0.1,0,0.3-0.1,0.4c-0.1,0.1-0.1,0.3-0.1,0.3
	c-0.2,1.2-0.8,2.2-1.6,3.1c-0.3,0.3-0.6,0.6-1,0.9c-0.2,0.2-0.5,0.4-0.8,0.6s-0.6,0.4-0.9,0.5c-1.5,0.7-3.2,0.8-4.8,0.4
	c-0.8-0.2-1.5-0.5-2.2-0.7c-1-0.3-1.9-0.6-2.9-0.9c-1.4-0.4-2.9-0.9-4.4-1.3c-0.4-0.2-1.1-0.2-1.4-0.5c0-0.1,0,0,0-0.1
	s0.2-0.3,0.3-0.3c1.5-0.8,2.7-2.2,3.1-3.8c0.3-1,0.3-2,0.1-3c-0.2-0.9-0.6-1.7-1.1-2.4c-0.2-0.4-0.8-0.6-0.8-1.2l0,0
	c0,0,0.3-0.1,0.5-0.1c3.6,0,7.3-0.1,10.9-0.1c0.5,0,0.9,0.1,1.4,0.2c1.5,0.4,2.9,1.2,3.9,2.4c0.5,0.6,0.9,1.2,1.2,1.9
	C141.2,78.4,141.4,79.2,141.5,80.1z"/>
<path class="st1" d="M132.3,78.6c-0.7,0.1-1.3,0.7-1.4,1.5c-0.1,0.9,0.7,1.7,1.6,1.8c0.6,0,1.2-0.3,1.6-0.9c0.1-0.2,0.2-0.5,0.2-0.8
	c0-0.9-0.8-1.6-1.7-1.6C132.5,78.5,132.5,78.5,132.3,78.6L132.3,78.6L132.3,78.6z"/>
<path class="st1" d="M22.4,87.7c-0.1,0.4-0.2,0.8-0.5,1.1c-0.4,1-0.5,2-0.4,3c0,0.2,0.1,0.3,0.1,0.5c0.1,0.5,0.3,1,0.5,1.4
	c0.2,0.3,0.3,0.6,0.5,0.9c0.6,0.8,1.4,1.4,2.2,2c0.3,0.1,0.6,0.2,0.9,0.4c0.4,0.2,1.1,0.1,1.2,0.5C26.8,98,26.3,98,26,98.3
	c-1,0.6-2,1.2-3,2c-1.1,0.6-2,1.3-3,1.9c-1,0.6-2,1.3-3,2c-1.8,0.7-3.9,0.8-5.8,0.3c-0.7-0.3-1.5-0.7-2.1-1.2
	c-0.6-0.5-1.1-1.1-1.6-1.7c-0.1-0.4-0.3-0.7-0.6-1c-0.1-0.4-0.3-0.8-0.4-1.2c-0.2-0.8-0.2-1.6-0.2-2.3c0.1-0.3,0.1-0.7,0.1-1
	c0.4-1.2,0.9-2.3,1.6-3.3c0.8-0.9,1.8-1.6,2.9-2.1c1.8-0.5,3.7-1,5.5-1.6s3.8-1,5.5-1.6C22.1,87.5,22.3,87.6,22.4,87.7z"/>
<path class="st1" d="M13.5,97.2c0.2,0.9,1.1,1.5,2,1.3c0.3-0.1,0.6-0.2,0.8-0.4c0.2-0.3,0.4-0.6,0.5-0.9c0.1-0.9-0.5-1.8-1.4-1.9
	c-0.1,0-0.2,0-0.3,0l0,0c-0.9,0-1.6,0.7-1.7,1.6C13.5,97,13.5,97.1,13.5,97.2z"/>
<path class="st1" d="M120.6,87.6L120.6,87.6c1,0.2,1.9,0.5,2.8,0.8c0.9,0.3,1.8,0.5,2.8,0.8c1.8,0.6,3.7,1,5.6,1.6
	c0.7,0.3,1.4,0.8,2.1,1.3c0.5,0.6,1.1,1.2,1.5,1.8c0.5,1,0.9,2.1,1,3.3c0,1.2-0.1,2.5-0.6,3.6c-0.2,0.3-0.4,0.7-0.6,1
	c-0.5,0.6-1,1.2-1.7,1.7c-1.1,0.8-2.3,1.3-3.6,1.5c-1.4,0.2-2.9,0-4.3-0.7c-2.5-1.6-5-3.2-7.5-4.8c-0.6-0.4-1.3-0.8-1.9-1.2
	c-0.2-0.2-0.5-0.2-0.5-0.5c0-0.3,0.5-0.3,0.7-0.4c0.8-0.2,1.6-0.6,2.3-1l0.8-0.7c0.4-0.5,0.8-1.1,1.1-1.7c0.4-0.9,0.6-1.9,0.6-2.9
	c-0.1-0.6-0.2-1.1-0.3-1.7c-0.1-0.6-0.5-0.9-0.6-1.5c0.1,0,0-0.2,0.2-0.2S120.5,87.6,120.6,87.6z"/>
<path class="st1" d="M126,97.1c0.1,0.9,1,1.5,1.9,1.4c0.8-0.1,1.4-0.8,1.4-1.6c0-0.7-0.4-1.3-1.1-1.6c-0.2-0.1-0.5-0.1-0.7-0.1l0,0
	c-0.9,0-1.6,0.8-1.5,1.7C126,96.9,126,97,126,97.1z"/>
<path class="st1" d="M29.1,100.7c0.1,0.7-0.2,1.4-0.1,2.3c0.1,0.3,0.1,0.7,0.2,1c0.1,0.3,0.2,0.6,0.3,1c0.2,0.4,0.5,0.9,0.8,1.3
	s0.6,0.7,1,1c0.3,0.2,0.5,0.4,0.8,0.6c0.9,0.5,1.9,0.8,2.9,0.9c0.4,0,1-0.2,1.3,0.1c0.1,0.4-0.3,0.5-0.4,0.8
	c-0.2,0.2-0.4,0.4-0.6,0.7c-0.4,0.4-0.7,0.9-1.2,1.3c-0.7,0.9-1.5,1.8-2.3,2.7c-1.6,1.7-2.8,3.9-5.1,4.9c-0.7,0.2-1.4,0.4-2.2,0.6
	c-0.8,0-1.6,0-2.5-0.1c-1.1-0.3-2.2-0.8-3.2-1.5c-0.9-0.8-1.6-1.8-2.2-2.9c-0.5-1.5-0.6-3.1-0.3-4.6c0.4-1.6,1.3-2.9,2.6-4
	c0.4-0.3,0.8-0.5,1.2-0.8c2.8-1.8,5.7-3.6,8.5-5.3h0.1C28.9,100.6,29,100.6,29.1,100.7z"/>
<path class="st1" d="M24.4,110c-0.7,0.1-1.3,0.7-1.4,1.4c-0.1,0.9,0.5,1.7,1.5,1.8c0.5,0.1,1-0.1,1.4-0.5c0.6-0.7,0.6-1.7,0-2.4
	c-0.1-0.1-0.3-0.2-0.5-0.3C25.1,109.9,24.8,109.9,24.4,110L24.4,110L24.4,110z"/>
<path class="st1" d="M107.9,108.8c1-0.1,1.9-0.4,2.8-0.8c0.3-0.2,0.6-0.4,0.9-0.6c0.3-0.4,0.7-0.7,1-1c0.3-0.4,0.5-0.8,0.8-1.3
	c0.2-0.5,0.3-1.1,0.4-1.7c0.2-0.3,0.1-0.9,0.1-1.4s-0.3-0.9-0.1-1.3h0.1c0.5,0.2,0.9,0.4,1.3,0.7c0.4,0.2,0.8,0.5,1.2,0.8
	c0.8,0.5,1.7,1,2.5,1.5c1.7,1,3.3,2.1,5,3.1c1.2,1.1,2.1,2.4,2.5,4c0.2,0.8,0.2,1.6,0.2,2.4c-0.2,2-1.1,3.8-2.6,5.1
	c-1,0.6-2.1,1.1-3.2,1.5c-0.8,0.1-1.6,0.1-2.4,0.1c-1.1-0.2-2.3-0.6-3.3-1.1c-0.9-0.7-1.7-1.5-2.4-2.5c-0.7-0.8-1.4-1.6-2.1-2.5
	s-1.4-1.7-2.1-2.5c-0.3-0.4-0.7-0.8-1.1-1.2l-0.5-0.6c-0.1-0.2-0.5-0.4-0.4-0.7C106.6,108.5,107.5,108.8,107.9,108.8z"/>
<path class="st1" d="M117.8,110c-0.8,0.2-1.3,0.8-1.3,1.6c0,0.7,0.4,1.2,1,1.5c0.3,0.1,0.6,0.1,0.9,0.1h0.1c0.9-0.2,1.4-1.1,1.2-2
	c-0.2-0.7-0.7-1.2-1.4-1.3L117.8,110L117.8,110L117.8,110z"/>
<path class="st1" d="M39.1,111.3c0.3,0.2,0.2,0.8,0.3,1.1c0.2,0.7,0.4,1.4,0.8,2c0.2,0.3,0.4,0.5,0.6,0.8c0.2,0.2,0.4,0.5,0.7,0.7
	c1,0.9,2.3,1.4,3.7,1.5c0.7,0,1.3,0,2-0.1c0.4,0,0.9-0.4,1.3-0.2c0.2,0.5-0.3,0.9-0.4,1.4s-0.4,0.9-0.6,1.4l-1.2,2.7
	c-0.8,1.8-1.6,3.6-2.4,5.4c-1.1,1.7-2.8,2.9-4.7,3.4c-1.2,0.3-2.4,0.3-3.7,0c-0.3-0.1-0.7-0.2-1.1-0.4c-1.8-0.8-3.3-2.3-4-4.2
	c-0.5-1.5-0.6-3.2-0.2-4.7c0.3-0.7,0.6-1.3,0.9-2c2.6-3,5.2-5.9,7.8-8.8C38.9,111.2,39,111.3,39.1,111.3z"/>
<path class="st1" d="M37.7,121.4c-0.7,0.1-1.3,0.7-1.4,1.5c-0.1,0.9,0.6,1.7,1.5,1.8c0.2,0,0.3,0,0.5,0c0.8-0.1,1.4-0.8,1.4-1.6
	c0-0.9-0.8-1.6-1.7-1.6C37.9,121.4,37.8,121.4,37.7,121.4L37.7,121.4L37.7,121.4z"/>
<path class="st1" d="M94.6,117.2c0.4-0.3,1,0.2,1.4,0.3c1.3,0.2,2.6,0.1,3.9-0.4c0.6-0.3,1.2-0.7,1.7-1.1c0.7-0.7,1.3-1.5,1.7-2.5
	c0.1-0.4,0.2-0.7,0.3-1.1s0-1,0.3-1.1h0.1c0.3,0,0.3,0.4,0.6,0.5s0.3,0.4,0.5,0.5c0.3,0.4,0.7,0.7,1,1.1l1.9,2.2
	c1.3,1.5,2.6,2.9,3.9,4.4c0.4,0.7,0.7,1.4,1,2.1c0.3,1.2,0.3,2.4,0.1,3.5c-0.4,1.9-1.6,3.7-3.2,4.8c-1,0.6-2.2,1-3.4,1.1
	c-2,0.1-4-0.5-5.5-1.8c-0.6-0.5-1.1-1.1-1.6-1.8c-0.8-1.8-1.6-3.6-2.4-5.4c-0.6-1.3-1.2-2.7-1.8-4C95,118.1,94.5,117.8,94.6,117.2z"
	/>
<path class="st1" d="M103.3,122.7c-0.2,0.9,0.3,1.8,1.2,2c0.1,0,0.2,0,0.3,0c0.3,0,0.5-0.1,0.8-0.1c0.8-0.4,1.2-1.3,0.8-2.2
	c-0.3-0.6-1-1-1.7-1l0,0C104.1,121.4,103.5,122,103.3,122.7z"/>
<path class="st1" d="M51.8,118.8c0.3,0.3,0.4,0.7,0.5,1.1c1,1.8,2.8,3,4.8,3.3c1.3,0.1,2.7-0.2,3.9-0.8c0.4-0.2,0.7-0.7,1.2-0.6
	c0.2,0.1,0.2,0.6,0.1,0.8c-0.1,0.2-0.1,0.5,0,0.8c-0.2,0.6-0.2,1.5-0.4,2.2c0,0.8-0.2,1.5-0.2,2.2c-0.2,0.8-0.3,1.6-0.4,2.5
	c-0.1,0.9-0.2,1.6-0.3,2.4c-0.1,0.3-0.2,0.6-0.2,0.9c-0.4,1.1-0.9,2.1-1.6,3c-0.6,0.6-1.2,1.1-1.9,1.5c-1.4,0.7-3,1-4.6,0.9
	c-2-0.3-3.8-1.3-5-2.9c-0.9-1.3-1.4-2.8-1.5-4.4c0-0.8,0.1-1.6,0.3-2.3c0.2-0.5,0.4-0.9,0.6-1.3c1.3-2.6,2.4-5.2,3.7-7.9
	c0.2-0.4,0.4-0.9,0.7-1.3c0,0,0,0,0.1,0C51.6,118.8,51.7,118.8,51.8,118.8z"/>
<path class="st1" d="M91.3,118.8c0.5,0.9,0.9,1.7,1.3,2.6c0.4,0.9,0.8,1.8,1.3,2.7c0.8,1.8,1.7,3.6,2.5,5.4c0.2,0.7,0.3,1.5,0.3,2.2
	c-0.1,2.4-1.2,4.7-3.2,6.1c-1,0.6-2.1,1-3.2,1.2c-2.1,0.2-4.3-0.4-5.9-1.9c-1.1-1-1.8-2.2-2.3-3.6c0-0.3-0.1-0.7-0.2-1
	c0-0.1,0-0.2,0-0.3c-0.2-0.7-0.2-1.5-0.3-2.3c-0.1-0.8-0.2-1.6-0.4-2.3c-0.1-1-0.2-2.2-0.4-3.3c0-0.4-0.1-0.7-0.2-1.1
	c0.1-0.6-0.3-1.2,0.1-1.6c0.5,0,0.8,0.4,1.2,0.6c1.2,0.6,2.5,0.9,3.8,0.8c0.7-0.1,1.3-0.3,1.9-0.6c0.9-0.5,1.7-1.1,2.4-1.9
	c0.4-0.6,0.7-1.3,1-1.9C91.1,118.8,91.2,118.8,91.3,118.8z"/>
<path class="st1" d="M87.6,131.4c0.3,0.3,0.8,0.5,1.2,0.5c0.9,0,1.7-0.7,1.7-1.6s-0.7-1.7-1.6-1.7c-0.1,0-0.1,0-0.2,0l0,0
	C87.3,128.6,86.7,130.5,87.6,131.4z"/>
<path class="st1" d="M76.9,122.3c0.4,0.2,0.3,0.9,0.4,1.3c0.2,1.5,0.4,2.9,0.7,4.4c0.3,1.9,0.6,3.9,0.9,5.8c0,0.8-0.1,1.7-0.3,2.5
	c-0.2,0.4-0.3,0.8-0.5,1.3c-1,1.7-2.5,3-4.3,3.7c-0.7,0.2-1.5,0.3-2.2,0.3c-0.8-0.1-1.6-0.2-2.3-0.4c-2.9-1.3-5-3.3-5.1-7.3
	c0.3-1.9,0.6-3.9,0.9-5.8c0.2-1.3,0.4-2.9,0.7-4.4c0.1-0.4,0.1-1.2,0.4-1.3c0,0,0,0,0.1,0c0.5,0.2,0.7,0.8,1.2,1.1
	c0.4,0.3,0.8,0.7,1.3,1c0.4,0.1,0.7,0.3,1.1,0.5c0.9,0.2,1.9,0.3,2.8,0.2c0.3,0,0.7-0.2,1-0.2s0.7-0.3,1.1-0.4
	c0.2-0.2,0.5-0.4,0.8-0.5c0.3-0.2,0.6-0.5,0.9-0.8C76.4,122.9,76.4,122.4,76.9,122.3z"/>
<path class="st1" d="M71.4,131c-0.9,0-1.6,0.8-1.6,1.7c0,0.4,0.2,0.7,0.4,1c0.2,0.2,0.3,0.3,0.5,0.4c0.8,0.4,1.8,0,2.2-0.8
	c0.1-0.2,0.2-0.5,0.2-0.7C73.1,131.8,72.3,131,71.4,131L71.4,131z"/>
<path class="st1" d="M53.5,129.4c-0.9,0-1.6,0.8-1.6,1.7c0,0.4,0.2,0.7,0.4,1c0.2,0.2,0.3,0.3,0.5,0.4c0.8,0.4,1.8,0,2.2-0.8
	c0.1-0.2,0.2-0.5,0.2-0.7C55.2,130.1,54.5,129.4,53.5,129.4L53.5,129.4z"/>
<g id="breadboard">
	<path class="st2" d="M120.5,71.5c3.7-1.5,5.5-5.7,3.9-9.4c-1-2.5-3.3-4.2-5.9-4.4c3.1-2.5,3.6-7,1.1-10.1c-1.7-2.1-4.3-3.1-6.9-2.6
		c2.3-3.3,1.4-7.8-1.9-10c-2.1-1.5-4.9-1.7-7.2-0.5c1.3-3.8-0.8-7.9-4.5-9.1c-2.5-0.8-5.3-0.2-7.2,1.6c0.2-4-2.9-7.4-6.9-7.5
		c-2.7-0.1-5.2,1.2-6.5,3.5c-1-3.9-4.9-6.2-8.8-5.2c-2.6,0.7-4.6,2.7-5.2,5.2c-2-3.4-6.5-4.6-9.9-2.5c-2.3,1.3-3.6,3.8-3.5,6.5
		c-2.9-2.7-7.5-2.6-10.2,0.3c-1.8,1.9-2.4,4.7-1.6,7.2c-3.6-1.8-7.9-0.4-9.7,3.2c-1.2,2.4-1,5.2,0.5,7.4c-3.9-0.7-7.7,1.9-8.4,5.8
		c-0.5,2.6,0.5,5.3,2.6,6.9c-4,0.4-6.8,4-6.4,7.9c0.3,2.6,2,4.9,4.4,5.9c-3.7,1.5-5.5,5.7-3.9,9.4c1,2.5,3.3,4.2,5.9,4.4
		c-3.1,2.5-3.6,7-1.1,10.1c1.7,2.1,4.3,3.1,6.9,2.6c-2.3,3.3-1.5,7.8,1.8,10.1c2.2,1.5,5,1.7,7.4,0.5c-1.3,3.8,0.7,7.9,4.5,9.2
		c2.5,0.9,5.3,0.3,7.3-1.6c-0.2,4,2.9,7.4,6.9,7.5c2.7,0.1,5.2-1.2,6.5-3.5c1,3.9,4.9,6.2,8.8,5.2c2.6-0.7,4.6-2.7,5.2-5.2
		c2,3.4,6.5,4.6,9.9,2.5c2.3-1.3,3.6-3.8,3.5-6.5c2.9,2.7,7.5,2.5,10.2-0.4c1.8-1.9,2.4-4.7,1.5-7.2c3.6,1.8,7.9,0.4,9.7-3.2
		c1.2-2.4,1-5.2-0.5-7.4c3.9,0.7,7.7-1.8,8.4-5.7c0.5-2.6-0.5-5.3-2.6-7c4-0.4,6.9-3.9,6.5-7.9C124.7,74.7,123,72.5,120.5,71.5
		L120.5,71.5z"/>
	<rect x="59.6" y="58" class="st3" width="23.5" height="23.5"/>
	<rect x="42.3" y="78.9" class="st3" width="9.6" height="13.4"/>
	<path class="st3" d="M32.6,90.6c1,0,1.8-0.7,2-1.7l0,0v-6.8c0-1.1-0.9-2-2-2c-1.1,0-2,0.9-2,2v6.8l0,0
		C30.7,89.9,31.6,90.6,32.6,90.6z"/>
	<path class="st3" d="M38.4,90.6c1,0,1.8-0.7,2-1.7l0,0v-6.8c0-1.1-0.9-2-2-2s-2,0.9-2,2v6.8l0,0C36.6,89.9,37.4,90.6,38.4,90.6z"/>
	<path class="st3" d="M55.7,90.6c1,0,1.8-0.7,2-1.7l0,0v-6.8c0-1.1-0.9-2-2-2s-2,0.9-2,2v6.8l0,0C53.9,89.9,54.7,90.6,55.7,90.6z"/>
	<path class="st3" d="M87.8,74.9c1,0,1.8-0.7,2-1.7l0,0v-6.8c0-1.1-0.9-2-2-2s-2,0.9-2,2v6.8l0,0C85.9,74.2,86.8,74.9,87.8,74.9z"/>
	<path class="st3" d="M95.3,80.3c1,0,1.8-0.7,2-1.7l0,0v-6.8c0-1.1-0.9-2-2-2s-2,0.9-2,2v6.7l0,0C93.5,79.6,94.3,80.3,95.3,80.3z"/>
	<path class="st3" d="M95.3,92.9c1,0,1.8-0.7,2-1.7l0,0v-6.8c0-1.1-0.9-2-2-2s-2,0.9-2,2v6.7l0,0C93.5,92.2,94.3,92.9,95.3,92.9z"/>
	<text transform="matrix(1 0 0 1 43.72 32.2805)" class="st4 st5 st6">2</text>
	<text transform="matrix(1 0 0 1 33.06 41.2707)" class="st4 st5 st6">3</text>
	<text transform="matrix(1 0 0 1 25.57 52.6594)" class="st4 st5 st6">4</text>
	<text transform="matrix(1 0 0 1 21.93 66.1105)" class="st4 st5 st6">-</text>
	<text transform="matrix(1 0 0 1 21.93 80.4191)" class="st4 st5 st6">+</text>
	<text transform="matrix(1 0 0 1 25.57 93.1808)" class="st4 st5 st6">5</text>
	<text transform="matrix(1 0 0 1 33.06 104.9094)" class="st4 st5 st6">6</text>
	<text transform="matrix(1 0 0 1 43.72 113.6008)" class="st4 st5 st6">7</text>
	<text transform="matrix(1 0 0 1 55.7 119.4504)" class="st4 st5 st6">8</text>
	<text transform="matrix(1 0 0 1 69.64 122.3)" class="st4 st5 st6">9</text>
	<text transform="matrix(1 0 0 1 82 120.0793)" class="st4 st5 st6">10</text>
	<text transform="matrix(1 0 0 1 94.41 114.3801)" class="st4 st5 st6">1</text>
	<text transform="matrix(1 0 0 1 96.78 114.3801)" class="st4 st5 st6">1</text>
	<text transform="matrix(1 0 0 1 104.94 104.9094)" class="st4 st5 st6">12</text>
	<text transform="matrix(1 0 0 1 112.27 94.3605)" class="st4 st5 st6">13</text>
	<text transform="matrix(1 0 0 1 115.49 80.1496)" class="st4 st5 st6">a0</text>
	<text transform="matrix(1 0 0 1 115.49 65.1808)" class="st4 st5 st6">a1</text>
	<text transform="matrix(1 0 0 1 112.27 51.9894)" class="st4 st5 st6">a2</text>
	<text transform="matrix(1 0 0 1 104.83 39.8)" class="st4 st5 st6">a3</text>
	<text transform="matrix(1 0 0 1 93.89 31.2101)" class="st4 st5 st6">a4</text>
	<text transform="matrix(1 0 0 1 81.49 25.3605)" class="st4 st5 st6">a5</text>
	<polygon class="st7" points="30.7,73.2 32.9,75.5 42.3,75.5 44.6,73.2 44.6,63.8 42.3,61.6 32.9,61.6 30.7,63.8 	"/>
	<rect x="32.9" y="60.5" class="st7" width="9.4" height="16.1"/>
	<rect x="29.6" y="63.8" class="st7" width="16.1" height="9.4"/>
	<polygon class="st8" points="31.4,72.8 33.4,74.8 41.9,74.8 43.9,72.8 43.9,64.3 41.9,62.3 33.4,62.3 31.4,64.3 	"/>
	<circle class="st9" cx="37.7" cy="68.5" r="3.4"/>
	<circle cx="109.6" cy="73.5" r="1.9"/>
	<circle cx="102.8" cy="60.8" r="1.9"/>
	<circle cx="109.6" cy="60.8" r="1.9"/>
	<circle cx="102.8" cy="67.2" r="1.9"/>
	<circle cx="109.6" cy="67.2" r="1.9"/>
	<circle cx="102.8" cy="73.5" r="1.9"/>
	<path class="st3" d="M94.9,52.6c1,0,1.8-0.7,2-1.7l0,0v-6.8c0-1.1-0.9-2-2-2s-2,0.9-2,2v6.8l0,0C93.1,52,93.9,52.7,94.9,52.6z"/>
	<text transform="matrix(1 0 0 1 55 25.3605)" class="st4 st5 st6">1</text>
	<text transform="matrix(1 0 0 1 55 32.4504)" class="st4 st5 st6">tx</text>
	<text transform="matrix(1 0 0 1 69.06 23.7101)" class="st4 st5 st6">0</text>
	<text transform="matrix(1 0 0 1 69.06 30.8)" class="st4 st5 st6">rx</text>
</g>
<polyline points="92.6,34.1 50.1,34.1 50.1,39.9 92.6,39.9 "/>
<polygon class="st10" points="59.6,14.9 60.2,12.6 61.3,12.6 61.9,14.9 61.9,35.5 59.6,35.5 "/>
<polygon class="st10" points="66.8,15 67.3,12.7 68.5,12.7 69.1,15 69.1,35.6 66.8,35.6 "/>
<polygon class="st10" points="73.8,14.9 74.3,12.6 75.5,12.6 76,14.9 76,35.5 73.8,35.5 "/>
<polygon class="st10" points="80.9,14.9 81.4,12.6 82.6,12.6 83.1,14.9 83.1,35.5 80.9,35.5 "/>
<polygon class="st10" points="87.9,14.9 88.5,12.6 89.7,12.6 90.2,14.9 90.2,35.5 87.9,35.5 "/>
</svg>
