<?xml version="1.0" encoding="utf-8"?>
<!-- Generator: Adobe Illustrator 21.0.0, SVG Export Plug-In . SVG Version: 6.00 Build 0)  -->
<svg version="1.1" id="Layer_1" xmlns="http://www.w3.org/2000/svg" xmlns:xlink="http://www.w3.org/1999/xlink" x="0px" y="0px"
	 viewBox="0 0 142.7 142.7" style="enable-background:new 0 0 142.7 142.7;" xml:space="preserve">
<style type="text/css">
	.st0{fill:#B0938F;stroke:#000000;stroke-miterlimit:10;}
	.st1{fill:#FFFFFF;stroke:#1D1C1A;stroke-width:0.25;stroke-miterlimit:10;}
	.st2{fill:#672E58;}
	.st3{fill:#753567;}
	.st4{fill:#DDDDDD;}
	.st5{font-family:'ArialMT';}
	.st6{font-size:4.92px;}
	.st7{fill:#6D6D6D;}
	.st8{fill:#7F7F7F;}
	.st9{fill:#BCA16A;}
	.st10{fill:#B8AF82;}
</style>
<title>lilypad</title>
<circle class="st0" cx="71.4" cy="71.4" r="70.9"/>
<path class="st1" d="M122.3,76.9c0.2-0.6,0.8-0.7,1.1-1.2c0.4-0.4,0.7-0.9,1-1.3c0.1-0.4,0.3-0.7,0.4-1.1c0-0.3,0.1-0.7,0.2-1
	c0.1-1,0-1.9-0.2-2.8c-0.1-0.4-0.3-0.7-0.4-1.1c-0.3-0.5-0.7-1-1.1-1.5c-0.2-0.1-0.3-0.3-0.5-0.4s-0.4-0.3-0.4-0.6s0.4-0.3,0.6-0.3
	c3.6-0.5,7.4-1.1,10.9-1.7c1.1,0,2.3,0.2,3.3,0.7c0.1,0,0.2,0.1,0.3,0.1s0.1,0.1,0.2,0.2s0.6,0.3,0.8,0.4c1.2,1,2.2,2.2,2.7,3.7
	c0.2,0.7,0.2,1.4,0.3,2.1c0,0,0,0,0,0.1c0,0.8-0.2,1.7-0.4,2.5c-0.8,2.3-2.6,4-4.9,4.8c-0.8,0.2-1.7,0.3-2.5,0.3
	c-1.9-0.3-3.9-0.6-5.8-0.9c-1.7-0.3-3.4-0.5-5.1-0.8C122.6,77.2,122.3,77.2,122.3,76.9z"/>
<path class="st1" d="M134.3,71.2c0-0.2-0.1-0.4-0.1-0.5c-0.5-0.8-1.5-1.1-2.3-0.6c-0.5,0.3-0.8,0.8-0.8,1.4c0,0.9,0.7,1.6,1.6,1.7
	c0,0,0,0,0,0c0.9,0,1.7-0.7,1.7-1.6C134.3,71.4,134.3,71.3,134.3,71.2L134.3,71.2C134.3,71.3,134.3,71.2,134.3,71.2z"/>
<path class="st1" d="M121.9,62.1c0-0.5,0.4-0.8,0.7-1.1c0.1-0.3,0.3-0.6,0.4-0.8c0.3-1,0.4-2,0.3-3.1c-0.3-1.7-1.2-3.2-2.5-4.3
	c-0.3-0.2-0.7-0.4-1-0.6s-0.9-0.2-1-0.6s0.3-0.3,0.6-0.5c0.2-0.1,0.4-0.2,0.7-0.3c0.4-0.2,0.9-0.4,1.3-0.6c0.9-0.4,1.8-0.8,2.7-1.3
	c1.8-0.8,3.6-1.7,5.3-2.5c0.8-0.2,1.6-0.3,2.4-0.4c2.8,0.1,5.4,1.7,6.6,4.2c0.3,0.7,0.5,1.4,0.6,2.1c0,0,0,0,0,0.1
	c0.1,1.2-0.1,2.4-0.4,3.6c-0.3,0.4-0.4,0.8-0.6,1.2c-0.4,0.7-0.9,1.3-1.4,1.8c-0.9,0.7-1.9,1.3-3,1.7c-3,0.4-6.1,0.8-9,1.2
	c-0.5,0-1,0.1-1.4,0.2S122.2,62.5,121.9,62.1z"/>
<path class="st1" d="M132,53.7c-0.1-0.9-0.9-1.5-1.8-1.4c0,0,0,0-0.1,0c-0.9,0.2-1.5,1-1.4,1.9c0.1,0.7,0.7,1.2,1.4,1.4
	c0.9,0.1,1.8-0.5,1.9-1.4C132,54.1,132,53.9,132,53.7L132,53.7C132,53.8,132,53.8,132,53.7z"/>
<path class="st1" d="M118.7,91.2c0.1-0.4,0.6-0.4,0.9-0.6s0.6-0.4,1-0.6c2.5-1.9,3.3-5.4,1.7-8.2c-0.1-0.3-0.8-0.8-0.7-1.2
	c0.1-0.2,0.5-0.2,0.8-0.1c0.3,0.1,0.5,0.1,0.8,0.1c0.7,0.2,1.5,0.3,2.2,0.4c0.4,0.1,0.8,0.1,1.1,0.1c0.3,0.1,0.7,0.1,1,0.1
	c1,0.3,2.3,0.3,3.5,0.5c0.4,0,0.7,0.1,1.1,0.2c0.1,0,0.2,0,0.3,0c0.3,0.1,0.6,0.2,0.9,0.2c1.1,0.4,2.1,0.9,3,1.6
	c1.4,1.3,2.3,3.2,2.4,5.1c0,0,0,0,0,0.1c0.1,0.8,0,1.6-0.3,2.4c-0.2,0.8-0.6,1.5-1,2.1c-0.1,0.2-0.4,0.4-0.6,0.7
	c-0.6,0.7-1.3,1.2-2.1,1.7c-1,0.5-2.2,0.8-3.3,0.9c-0.8,0-1.5-0.2-2.3-0.3c-1.9-0.8-3.6-1.7-5.4-2.5c-0.9-0.4-1.8-0.8-2.7-1.3
	c-0.4-0.2-0.9-0.4-1.3-0.6c-0.3-0.1-0.4-0.3-0.7-0.3S118.7,91.5,118.7,91.2z"/>
<path class="st1" d="M131.4,87.6c-0.3-0.3-0.6-0.4-1-0.5c-0.9,0-1.7,0.7-1.8,1.6c0,0.5,0.1,0.9,0.5,1.2c0.3,0.3,0.8,0.5,1.2,0.5
	c0.6,0,1.2-0.4,1.5-1C132,88.8,131.8,88.1,131.4,87.6z"/>
<path class="st1" d="M117.2,48.3c-0.2-0.4,0.2-0.9,0.2-1.2c0.2-1.3,0.1-2.7-0.3-4c-0.3-0.6-0.7-1.1-1.1-1.7c-0.3-0.4-0.7-0.7-1.1-1
	c-0.4-0.3-0.8-0.5-1.3-0.8c-0.4-0.1-0.8-0.2-1.3-0.3s-1,0-1-0.4s0.3-0.4,0.5-0.6s0.4-0.4,0.6-0.5c0.4-0.3,0.8-0.7,1.2-1.1
	c1.6-1.5,3.2-2.9,4.8-4.3c0.8-0.8,1.6-1.5,2.6-2c0.4-0.1,0.8-0.3,1.2-0.4c0.3,0,0.7-0.1,1-0.2c0.8-0.1,1.6-0.1,2.4,0
	c0.7,0.2,1.5,0.5,2.2,0.8c2.1,1.2,3.5,3.5,3.6,5.9c0.1,1.2-0.1,2.4-0.6,3.5c-0.4,0.7-0.8,1.3-1.2,2c-0.6,0.6-1.3,1.2-2,1.7
	c-1.8,0.7-3.5,1.6-5.3,2.4c-0.9,0.4-1.8,0.8-2.7,1.2c-0.4,0.2-0.9,0.4-1.3,0.6C118,47.9,117.7,48.5,117.2,48.3z"/>
<path class="st1" d="M124.5,37.7c0-0.2-0.1-0.4-0.2-0.5c-0.3-0.5-0.8-0.8-1.4-0.8c-0.4,0-0.8,0.2-1.1,0.5c-0.7,0.6-0.7,1.7,0,2.4
	c0.4,0.4,0.9,0.5,1.4,0.5c0.9-0.1,1.6-1,1.4-1.9C124.5,37.8,124.5,37.8,124.5,37.7L124.5,37.7C124.5,37.8,124.5,37.7,124.5,37.7z"/>
<path class="st1" d="M111.3,103.8c0.2-0.3,0.8-0.2,1.3-0.3c0.7-0.2,1.3-0.4,1.9-0.7c0.2-0.2,0.4-0.4,0.7-0.5
	c0.3-0.2,0.5-0.5,0.8-0.7c0.6-0.8,1.1-1.7,1.4-2.6c0.3-1.1,0.2-2.3-0.1-3.4c-0.1-0.3-0.3-0.7,0-1c0.6,0,0.9,0.3,1.4,0.5
	s0.9,0.4,1.3,0.6c0.9,0.4,1.8,0.8,2.7,1.2c1.3,0.6,2.7,1.2,4,1.8c0.8,0.3,1.6,0.8,2.3,1.3c0.3,0.3,0.6,0.6,0.8,0.9
	c0.7,0.9,1.3,1.9,1.6,3c0,0.4,0.1,0.8,0.2,1.2c0,0,0,0,0,0.1c0,0.8,0,1.6-0.2,2.4c-0.8,3.1-3.5,5.3-6.6,5.5c-0.9,0-1.7-0.1-2.6-0.3
	c-0.7-0.3-1.4-0.6-2-0.9c-1.5-1.3-3-2.6-4.5-3.9c-0.7-0.7-1.5-1.3-2.2-2c-0.6-0.5-1.1-1-1.7-1.5
	C111.5,104.3,111.2,104.2,111.3,103.8z"/>
<path class="st1" d="M124.5,104.6c-0.1-0.8-0.9-1.4-1.7-1.3c-0.9,0.1-1.6,0.9-1.5,1.8c0.1,0.8,0.7,1.4,1.5,1.5
	c0.9,0.1,1.7-0.6,1.7-1.5C124.5,104.9,124.5,104.8,124.5,104.6L124.5,104.6L124.5,104.6z"/>
<path class="st1" d="M108.8,36.2c-0.3-0.3-0.1-0.9-0.1-1.3c-0.1-1.3-0.6-2.6-1.4-3.6c-0.5-0.6-1-1-1.7-1.5c-0.2-0.1-0.4-0.2-0.7-0.4
	c-0.3-0.1-0.6-0.2-0.9-0.3c-0.7-0.2-1.4-0.2-2.2-0.2c-0.4,0-1,0.3-1.3,0c0-0.6,0.5-0.9,0.7-1.3s0.5-0.8,0.8-1.3
	c0.6-0.8,1-1.7,1.6-2.5c1-1.7,2.1-3.3,3.1-5c1-1.2,2.4-2.1,3.9-2.5c1.5-0.3,3.1-0.2,4.6,0.3c1.1,0.5,2.1,1.2,2.9,2.1
	c0.6,1,1.1,2.1,1.5,3.2c0,0.3,0.1,0.6,0.1,0.9c0,0,0,0,0,0.1v1.4c-0.1,0.7-0.3,1.5-0.6,2.2c-0.2,0.4-0.4,0.7-0.6,1.1s-0.5,0.7-0.8,1
	c-1.5,1.3-3,2.6-4.5,3.8c-0.7,0.7-1.5,1.3-2.2,1.9c-0.4,0.3-0.8,0.6-1.1,1c-0.2,0.2-0.4,0.3-0.6,0.5S109.1,36.3,108.8,36.2z"/>
<path class="st1" d="M113.1,24.4c0-0.2-0.1-0.3-0.2-0.5c-0.3-0.6-1-0.9-1.7-0.9c-0.9,0.1-1.5,1-1.4,1.9c0.1,0.6,0.5,1.1,1,1.3
	c0.8,0.3,1.8-0.1,2.2-0.9C113.1,25.1,113.2,24.8,113.1,24.4L113.1,24.4L113.1,24.4z"/>
<path class="st1" d="M109.5,107c0.2,0.2,0.4,0.3,0.6,0.6c0.4,0.3,0.8,0.7,1.3,1c0.8,0.8,1.6,1.4,2.4,2.2s1.8,1.6,2.8,2.4
	c1.7,1.2,2.9,3.1,3.1,5.2c0,0,0,0,0,0.1c0.2,2-0.4,4-1.6,5.7c-1.3,1.5-3.1,2.4-5.1,2.6c-0.8,0-1.6,0-2.4-0.2c-1.6-0.4-2.9-1.3-4-2.5
	c-1.5-2.5-3.1-5-4.7-7.5c-0.3-0.4-0.5-0.8-0.8-1.2s-0.7-0.8-0.7-1.3c0.2-0.4,0.9-0.1,1.3,0h1.1c0.1,0,0.3-0.1,0.4-0.1
	c0.6,0.1,1.1-0.3,1.6-0.3c0.4-0.3,0.9-0.4,1.3-0.8c0.4-0.3,0.7-0.6,1.1-1c0.2-0.3,0.4-0.6,0.6-0.8c0.4-0.9,0.7-1.9,0.8-2.8
	c0-0.4-0.3-1.2,0.1-1.3S109.3,106.9,109.5,107z"/>
<path class="st1" d="M113.1,117.8c-0.2-0.8-0.8-1.3-1.6-1.3c-0.8,0-1.5,0.6-1.6,1.5v0.4c0.1,0.9,0.9,1.5,1.8,1.4
	c0.7-0.1,1.3-0.6,1.4-1.3C113.1,118.3,113.1,118.1,113.1,117.8L113.1,117.8L113.1,117.8z"/>
<path class="st1" d="M87.7,120.5c0.5-0.1,0.8,0.3,1.2,0.4c0.3,0.1,0.7,0.2,1,0.3c0.7,0.1,1.3,0.1,2,0.1c0.1,0,0.2-0.1,0.4-0.1
	c0.4-0.1,0.8-0.2,1.2-0.3c0.5-0.2,0.9-0.4,1.3-0.6c0.2-0.2,0.5-0.4,0.8-0.6c0.5-0.5,0.9-1,1.2-1.6c0.1-0.4,0.3-0.7,0.4-1.1
	s0.1-0.9,0.5-1.1s0.4,0.3,0.5,0.5s0.3,0.4,0.4,0.6c0.2,0.4,0.5,0.8,0.8,1.3c0.6,0.8,1.1,1.7,1.6,2.5c1.1,1.7,2.1,3.3,3.2,5
	c0.5,1,0.7,2.1,0.8,3.2c0,0.9-0.1,1.8-0.4,2.6c-0.8,2.3-2.7,4-5,4.7c-1.9,0.4-4,0.1-5.7-0.8c-1.3-0.9-2.4-2.1-3.1-3.5
	c-0.5-2-1.1-3.8-1.6-5.8c-0.1-0.2-0.2-0.5-0.2-0.7c-0.3-1.1-0.7-2.4-1-3.6C87.7,121.4,87.4,120.9,87.7,120.5z"/>
<path class="st1" d="M98.5,127.5c-0.1-0.8-0.8-1.4-1.6-1.4c-0.9,0-1.7,0.8-1.6,1.7c0,0.4,0.2,0.8,0.5,1.1c0.3,0.2,0.6,0.4,1,0.4
	c0.9,0.1,1.7-0.6,1.8-1.5C98.5,127.8,98.5,127.6,98.5,127.5L98.5,127.5L98.5,127.5z"/>
<path class="st1" d="M87.6,22.4c-0.2-0.2-0.1-0.5,0-0.7l0.6-2.2c0.8-2.9,1.7-5.7,2.4-8.6c0.5-1.1,1.2-2,2.1-2.9
	c1-0.7,2.1-1.2,3.3-1.5c0.7-0.1,1.5-0.1,2.2-0.1c0.4,0,0.8,0.2,1.2,0.2c0.7,0.3,1.5,0.6,2.2,1c0.6,0.5,1.2,1.1,1.7,1.7
	c0.4,0.7,0.8,1.3,1.1,2.1c0.2,0.8,0.3,1.5,0.4,2.3c0,1.2-0.2,2.4-0.7,3.5c-1,1.5-2,3-2.9,4.5c-0.4,0.5-0.7,1-0.9,1.5
	c-0.4,0.4-0.7,0.9-1,1.5c-0.4,0.5-0.7,1-1,1.5c-0.3,0.2-0.3,0.8-0.8,0.9c-0.4-0.1-0.3-0.8-0.5-1.2s-0.3-0.6-0.4-0.9
	c-0.5-0.8-1.2-1.6-2-2.2c-0.3-0.1-0.6-0.3-0.9-0.5c-0.5-0.2-1-0.3-1.4-0.5c-0.2,0-0.3-0.1-0.5-0.1c-1-0.1-2,0.1-3,0.4
	C88.4,22.1,88.1,22.5,87.6,22.4z"/>
<path class="st1" d="M98.5,14.9c0-0.2-0.1-0.4-0.2-0.6c-0.3-0.4-0.7-0.7-1.2-0.8c-0.9-0.1-1.8,0.5-1.9,1.4c-0.1,0.6,0.1,1.1,0.5,1.5
	c0.4,0.3,0.9,0.4,1.4,0.4C98,16.6,98.6,15.8,98.5,14.9L98.5,14.9C98.5,14.9,98.5,14.9,98.5,14.9z"/>
<path class="st1" d="M73.3,19.8c-0.3-0.2-0.2-0.8-0.2-1.3c0-3-0.1-6-0.1-9.1c0-0.5,0-1,0-1.5c0-0.2,0.1-0.4,0.2-0.6
	c0.1-0.5,0.3-1.1,0.5-1.6c0.4-0.7,0.8-1.4,1.3-2c1.7-1.7,4-2.6,6.4-2.3c0.2,0,0.3,0.1,0.5,0.1c0.3,0.1,0.5,0.1,0.8,0.2
	c0.3,0.1,0.7,0.3,1,0.4c2.1,1.2,3.6,3.2,4,5.6c0.1,0.8,0.1,1.7,0,2.5c-0.6,1.9-1.1,3.9-1.8,5.8c-0.1,0.7-0.4,1.2-0.5,2
	c-0.3,0.5-0.5,1-0.6,1.6c-0.2,0.3-0.3,0.7-0.3,1c-0.2,0.3-0.1,0.8-0.4,0.9s-0.4-0.3-0.5-0.5c-0.1-0.2-0.2-0.4-0.3-0.5
	c-0.4-0.5-0.9-1-1.4-1.5c-0.3-0.1-0.6-0.4-0.9-0.5c-1.2-0.5-2.6-0.7-3.9-0.6c-0.7,0.2-1.3,0.4-1.9,0.7c-0.3,0.1-0.5,0.4-0.8,0.5
	S73.8,19.8,73.3,19.8z"/>
<path class="st1" d="M81.7,9.9c-0.1-0.8-0.9-1.4-1.7-1.3c-0.9,0.1-1.6,0.9-1.5,1.8s0.9,1.6,1.8,1.5c0.9-0.1,1.6-0.9,1.5-1.8
	C81.8,10.1,81.8,10,81.7,9.9L81.7,9.9L81.7,9.9z"/>
<path class="st1" d="M81.2,141.5H81c-0.1-0.1-0.2,0-0.3,0h-0.2c0,0-0.1,0-0.1,0H80c-1.7-0.1-3.3-0.8-4.5-1.9
	c-0.6-0.5-1.1-1.1-1.4-1.8c-0.5-0.7-0.8-1.5-0.9-2.3c-0.1-0.5-0.2-1-0.2-1.5v-4.9c0-1.6,0-3.2,0.1-4.8c0-0.5-0.2-1.2,0.2-1.4
	c0.6,0.1,0.7,0.7,1.2,0.8c2.7,2,6.6,1.5,8.6-1.3c0.3-0.3,0.4-1,0.9-1.2c0,0,0,0,0.1,0c0.4,0.2,0.3,0.9,0.6,1.3
	c0.2,0.5,0.3,1,0.4,1.5c0.3,0.9,0.6,1.9,0.9,2.9c0.4,1.4,0.9,2.9,1.3,4.3c0.2,0.5,0.3,1,0.4,1.5c0,0.6,0,1.2,0,1.7
	c-0.1,1-0.4,2-0.9,2.9c-0.2,0.4-0.5,0.8-0.8,1.1C84.8,140.2,83.1,141.2,81.2,141.5z"/>
<path class="st1" d="M81.7,132.3c0-0.2-0.1-0.3-0.2-0.4c-0.3-0.6-1-0.9-1.6-0.9c-0.9,0.1-1.6,0.9-1.5,1.8c0,0,0,0,0,0
	c0.1,0.4,0.2,0.7,0.5,1c0.3,0.3,0.7,0.5,1.2,0.5c0.9,0,1.7-0.7,1.7-1.6C81.8,132.6,81.8,132.5,81.7,132.3L81.7,132.3L81.7,132.3z"/>
<path class="st1" d="M61.6,1.2h0.2c0,0.1,0.2,0,0.3,0h0.2h0.1h0.4C64.4,1.3,66,2,67.2,3.2c0.8,0.7,1.4,1.5,1.8,2.3
	c0.2,0.3,0.2,0.5,0.3,0.9c0.2,0.5,0.3,0.9,0.4,1.4c0,0.8,0,1.6,0,2.4c0,2.7,0,5.7,0,8.4c0,0.5,0.1,1.1-0.3,1.1
	c-0.2-0.1-0.5-0.2-0.6-0.4c-0.5-0.5-1.2-0.9-1.9-1.2c-1.1-0.5-2.3-0.6-3.5-0.3c-1.5,0.3-2.9,1.1-3.8,2.3c-0.4,0.3-0.4,1-0.9,1.2
	c-0.1,0.1-0.2,0-0.3-0.1c-0.1-0.1-0.1-0.2-0.1-0.4c-0.6-1.9-1.1-3.8-1.7-5.7c-0.3-0.9-0.6-1.9-0.8-2.8c-0.3-1-0.6-1.9-0.8-2.9
	c-0.2-2,0.4-4,1.8-5.6C58.1,2.4,59.7,1.5,61.6,1.2z"/>
<path class="st1" d="M64.2,9.8c-0.1-0.8-0.8-1.3-1.6-1.3c-0.9,0.1-1.6,0.9-1.6,1.8c0,0.4,0.2,0.7,0.4,1c0.4,0.3,0.9,0.5,1.3,0.4
	C63.8,11.7,64.4,10.8,64.2,9.8C64.3,9.9,64.3,9.9,64.2,9.8L64.2,9.8L64.2,9.8z"/>
<path class="st1" d="M62.7,141.5h-0.4c0,0-0.1,0-0.1,0h-0.2c-0.1,0-0.3-0.1-0.3,0h-0.2c-0.1-0.1-0.3,0-0.4-0.1s-0.3-0.1-0.3-0.1
	c-1.2-0.2-2.2-0.8-3.1-1.6c-0.3-0.3-0.6-0.6-0.9-1c-0.2-0.2-0.4-0.5-0.6-0.8c-0.2-0.3-0.4-0.6-0.5-0.9c-0.7-1.5-0.8-3.2-0.4-4.8
	c0.2-0.8,0.5-1.5,0.7-2.2c0.3-1,0.6-1.9,0.9-2.9c0.4-1.4,0.9-2.9,1.3-4.4c0.2-0.4,0.2-1.1,0.5-1.4c0.1,0,0,0,0.1,0s0.3,0.2,0.3,0.3
	c0.8,1.5,2.2,2.7,3.8,3.1c1,0.3,2,0.3,3,0.1c0.9-0.2,1.7-0.6,2.4-1.1c0.4-0.2,0.6-0.8,1.2-0.8l0,0c0,0,0.1,0.3,0.1,0.5
	c0,3.6,0.1,7.3,0.1,10.9c0,0.5-0.1,0.9-0.2,1.4c-0.4,1.5-1.2,2.9-2.4,3.9c-0.6,0.5-1.2,0.9-1.9,1.2
	C64.4,141.2,63.6,141.4,62.7,141.5z"/>
<path class="st1" d="M64.2,132.3c-0.1-0.7-0.7-1.3-1.5-1.4c-0.9-0.1-1.7,0.7-1.8,1.6c0,0.6,0.3,1.2,0.9,1.6c0.2,0.1,0.5,0.2,0.8,0.2
	c0.9,0,1.6-0.8,1.6-1.7C64.3,132.5,64.3,132.5,64.2,132.3L64.2,132.3L64.2,132.3z"/>
<path class="st1" d="M55.1,22.4c-0.4-0.1-0.8-0.2-1.1-0.5c-1-0.4-2-0.5-3-0.4c-0.2,0-0.3,0.1-0.5,0.1c-0.5,0.1-1,0.3-1.4,0.5
	c-0.3,0.2-0.6,0.3-0.9,0.5c-0.8,0.6-1.4,1.4-2,2.2c-0.1,0.3-0.2,0.6-0.4,0.9c-0.2,0.4-0.1,1.1-0.5,1.2c-0.5-0.1-0.5-0.6-0.8-0.9
	c-0.6-1-1.2-2-2-3c-0.6-1.1-1.3-2-1.9-3s-1.3-2-2-3c-0.7-1.8-0.8-3.9-0.3-5.8c0.3-0.7,0.7-1.5,1.2-2.1c0.5-0.6,1.1-1.1,1.7-1.6
	c0.4-0.1,0.7-0.3,1-0.6c0.4-0.1,0.8-0.3,1.2-0.4c0.8-0.2,1.6-0.2,2.3-0.2c0.3,0.1,0.7,0.1,1,0.1C47.9,6.8,49,7.3,50,8
	c0.9,0.8,1.6,1.8,2.1,2.9c0.5,1.8,1,3.7,1.6,5.5s1,3.8,1.6,5.5C55.3,22.1,55.2,22.3,55.1,22.4z"/>
<path class="st1" d="M45.6,13.5c-0.9,0.2-1.5,1.1-1.3,2c0.1,0.3,0.2,0.6,0.4,0.8c0.3,0.2,0.6,0.4,0.9,0.5c0.9,0.1,1.8-0.5,1.9-1.4
	c0-0.1,0-0.2,0-0.3l0,0c0-0.9-0.7-1.6-1.6-1.7C45.8,13.5,45.7,13.5,45.6,13.5z"/>
<path class="st1" d="M55.2,120.6L55.2,120.6c-0.2,1-0.5,1.9-0.8,2.8s-0.5,1.8-0.8,2.8c-0.6,1.8-1,3.7-1.6,5.6
	c-0.3,0.7-0.8,1.4-1.3,2.1c-0.6,0.5-1.2,1.1-1.8,1.5c-1,0.5-2.1,0.9-3.3,1c-1.2,0-2.5-0.1-3.6-0.6c-0.3-0.2-0.7-0.4-1-0.6
	c-0.6-0.5-1.2-1-1.7-1.7c-0.8-1.1-1.3-2.3-1.5-3.6c-0.2-1.4,0-2.9,0.7-4.3c1.6-2.5,3.2-5,4.8-7.5c0.4-0.6,0.8-1.3,1.2-1.9
	c0.2-0.2,0.2-0.5,0.5-0.5s0.3,0.5,0.4,0.7c0.2,0.8,0.6,1.6,1,2.3l0.7,0.8c0.5,0.4,1.1,0.8,1.7,1.1c0.9,0.4,1.9,0.6,2.9,0.6
	c0.6-0.1,1.1-0.2,1.7-0.3c0.6-0.1,0.9-0.5,1.5-0.6c0,0.1,0.2,0,0.2,0.2S55.2,120.5,55.2,120.6z"/>
<path class="st1" d="M45.7,126c-0.9,0.1-1.5,1-1.4,1.9c0.1,0.8,0.8,1.4,1.6,1.4c0.7,0,1.3-0.4,1.6-1.1c0.1-0.2,0.1-0.5,0.1-0.7l0,0
	c0-0.9-0.8-1.6-1.7-1.5C45.9,126,45.8,126,45.7,126z"/>
<path class="st1" d="M42.1,29.1c-0.7,0.1-1.4-0.2-2.3-0.1c-0.3,0.1-0.7,0.1-1,0.2s-0.6,0.2-1,0.3c-0.4,0.2-0.9,0.5-1.3,0.8
	c-0.4,0.3-0.7,0.6-1,1c-0.2,0.3-0.4,0.5-0.6,0.8c-0.5,0.9-0.8,1.9-0.9,2.9c0,0.4,0.2,1-0.1,1.3c-0.4,0.1-0.5-0.3-0.8-0.4
	c-0.2-0.2-0.4-0.4-0.7-0.6c-0.4-0.4-0.9-0.7-1.3-1.2c-0.9-0.7-1.8-1.5-2.7-2.3c-1.7-1.6-3.9-2.8-4.9-5.1c-0.2-0.7-0.4-1.4-0.6-2.2
	c0-0.8,0-1.6,0.1-2.5c0.3-1.1,0.8-2.2,1.5-3.2c0.8-0.9,1.8-1.6,2.9-2.2c1.5-0.5,3.1-0.6,4.6-0.3c1.6,0.4,2.9,1.3,4,2.6
	c0.3,0.4,0.5,0.8,0.8,1.2c1.8,2.8,3.6,5.7,5.3,8.5c0,0,0,0.1,0,0.1C42.2,28.9,42.2,29,42.1,29.1z"/>
<path class="st1" d="M32.8,24.4c-0.1-0.7-0.7-1.3-1.4-1.4c-0.9-0.1-1.7,0.5-1.8,1.5c-0.1,0.5,0.1,1,0.5,1.4c0.7,0.6,1.7,0.6,2.4,0
	c0.1-0.1,0.2-0.3,0.3-0.5C32.9,25.1,32.9,24.8,32.8,24.4L32.8,24.4L32.8,24.4z"/>
<path class="st1" d="M34,107.9c0.1,1,0.4,1.9,0.8,2.8c0.2,0.3,0.4,0.6,0.6,0.9c0.4,0.3,0.7,0.7,1,1c0.4,0.3,0.8,0.5,1.3,0.8
	c0.5,0.2,1.1,0.3,1.7,0.4c0.3,0.2,0.9,0.1,1.4,0.1s0.9-0.3,1.3-0.1c0,0,0,0.1,0,0.1c-0.2,0.5-0.4,0.9-0.7,1.3
	c-0.2,0.4-0.5,0.8-0.8,1.2c-0.5,0.8-1,1.7-1.5,2.5c-1,1.7-2.1,3.3-3.1,5c-1.1,1.2-2.4,2.1-4,2.5c-0.8,0.2-1.6,0.2-2.4,0.2
	c-2-0.2-3.8-1.1-5.1-2.6c-0.6-1-1.1-2.1-1.5-3.2c-0.1-0.8-0.1-1.6-0.1-2.4c0.2-1.1,0.6-2.3,1.1-3.3c0.7-0.9,1.5-1.7,2.5-2.4
	c0.8-0.7,1.6-1.4,2.5-2.1s1.7-1.4,2.5-2.1c0.4-0.3,0.8-0.7,1.2-1.1l0.6-0.5c0.2-0.1,0.4-0.5,0.7-0.4S34,107.5,34,107.9z"/>
<path class="st1" d="M32.8,117.8c-0.2-0.8-0.8-1.3-1.6-1.3c-0.7,0-1.2,0.4-1.5,1c-0.1,0.3-0.1,0.6-0.1,0.9c0,0,0,0.1,0,0.1
	c0.2,0.9,1.1,1.4,2,1.2c0.7-0.2,1.2-0.7,1.3-1.4V117.8L32.8,117.8L32.8,117.8z"/>
<path class="st1" d="M31.5,39.1c-0.2,0.3-0.8,0.2-1.1,0.3c-0.7,0.2-1.4,0.4-2,0.8c-0.3,0.2-0.5,0.4-0.8,0.6
	c-0.2,0.2-0.5,0.4-0.7,0.7c-0.9,1-1.4,2.3-1.5,3.7c0,0.7,0,1.3,0.1,2c0,0.4,0.4,0.9,0.2,1.3c-0.5,0.2-0.9-0.3-1.4-0.4
	s-0.9-0.4-1.4-0.6l-2.7-1.2c-1.8-0.8-3.6-1.6-5.4-2.4c-1.7-1.1-2.9-2.8-3.4-4.7c-0.3-1.2-0.3-2.4,0-3.7c0.1-0.3,0.2-0.7,0.4-1.1
	c0.8-1.8,2.3-3.3,4.2-4c1.5-0.5,3.2-0.6,4.7-0.2c0.7,0.3,1.3,0.6,2,0.9c3,2.6,5.9,5.2,8.8,7.8C31.6,38.9,31.5,39,31.5,39.1z"/>
<path class="st1" d="M21.4,37.7c-0.1-0.7-0.7-1.3-1.5-1.4c-0.9-0.1-1.7,0.6-1.8,1.5c0,0.2,0,0.3,0,0.5c0.1,0.8,0.8,1.4,1.6,1.4
	c0.9,0,1.6-0.8,1.6-1.7C21.4,37.9,21.4,37.8,21.4,37.7L21.4,37.7L21.4,37.7z"/>
<path class="st1" d="M25.6,94.6c0.3,0.4-0.2,1-0.3,1.4c-0.2,1.3-0.1,2.6,0.4,3.9c0.3,0.6,0.7,1.2,1.1,1.7c0.7,0.7,1.5,1.3,2.5,1.7
	c0.4,0.1,0.7,0.2,1.1,0.3s1,0,1.1,0.3c0,0,0,0.1,0,0.1c0,0.3-0.4,0.3-0.5,0.6s-0.4,0.3-0.5,0.5c-0.4,0.3-0.7,0.7-1.1,1l-2.2,1.9
	c-1.5,1.3-2.9,2.6-4.4,3.9c-0.7,0.4-1.4,0.7-2.1,1c-1.2,0.3-2.4,0.3-3.5,0.1c-1.9-0.4-3.7-1.6-4.8-3.2c-0.6-1-1-2.2-1.1-3.4
	c-0.1-2,0.5-4,1.8-5.5c0.5-0.6,1.1-1.1,1.8-1.6c1.8-0.8,3.6-1.6,5.4-2.4c1.3-0.6,2.7-1.2,4-1.8C24.7,95,25,94.5,25.6,94.6z"/>
<path class="st1" d="M20.1,103.3c-0.9-0.2-1.8,0.3-2,1.2c0,0.1,0,0.2,0,0.3c0,0.3,0.1,0.5,0.1,0.8c0.4,0.8,1.3,1.2,2.2,0.8
	c0.6-0.3,1-1,1-1.7l0,0C21.4,104.1,20.8,103.5,20.1,103.3z"/>
<path class="st1" d="M24,51.8c-0.3,0.3-0.7,0.4-1.1,0.5c-1.8,1-3,2.8-3.3,4.8c-0.1,1.3,0.2,2.7,0.8,3.9c0.2,0.4,0.7,0.7,0.6,1.2
	c-0.1,0.2-0.6,0.2-0.8,0.1s-0.5-0.1-0.8,0c-0.6-0.2-1.5-0.2-2.2-0.4c-0.8,0-1.5-0.2-2.2-0.2c-0.8-0.2-1.6-0.3-2.5-0.4
	c-0.9-0.1-1.6-0.2-2.4-0.3c-0.3-0.1-0.6-0.2-0.9-0.2c-1.1-0.4-2.1-0.9-3-1.6c-0.6-0.6-1.1-1.2-1.5-1.9c-0.7-1.4-1-3-0.9-4.6
	c0.3-2,1.3-3.8,2.9-5c1.3-0.9,2.8-1.4,4.4-1.5c0.8,0,1.6,0.1,2.3,0.3c0.5,0.2,0.9,0.4,1.3,0.6c2.6,1.3,5.2,2.4,7.9,3.7
	c0.4,0.2,0.9,0.4,1.3,0.7c0,0,0,0,0,0.1C24,51.6,24,51.7,24,51.8z"/>
<path class="st1" d="M24,91.3c-0.9,0.5-1.7,0.9-2.6,1.3c-0.9,0.4-1.8,0.8-2.7,1.3c-1.8,0.8-3.6,1.7-5.4,2.5
	c-0.7,0.2-1.5,0.3-2.2,0.3c-2.4-0.1-4.7-1.2-6.1-3.2c-0.6-1-1-2.1-1.2-3.2c-0.2-2.1,0.4-4.3,1.9-5.9c1-1.1,2.2-1.8,3.6-2.3
	c0.3,0,0.7-0.1,1-0.2c0.1,0,0.2,0,0.3,0c0.7-0.2,1.5-0.2,2.3-0.3c0.8-0.1,1.6-0.2,2.3-0.4c1-0.1,2.2-0.2,3.3-0.4
	c0.4,0,0.7-0.1,1.1-0.2c0.6,0.1,1.2-0.3,1.6,0.1c0,0.5-0.4,0.8-0.6,1.2c-0.6,1.2-0.9,2.5-0.8,3.8c0.1,0.7,0.3,1.3,0.6,1.9
	c0.5,0.9,1.1,1.7,1.9,2.4c0.6,0.4,1.3,0.7,1.9,1C24,91.1,24,91.2,24,91.3z"/>
<path class="st1" d="M11.4,87.6c-0.3,0.3-0.5,0.8-0.5,1.2c0,0.9,0.7,1.7,1.6,1.7c0.9,0,1.7-0.7,1.7-1.6c0-0.1,0-0.1,0-0.2l0,0
	C14.2,87.3,12.3,86.7,11.4,87.6z"/>
<path class="st1" d="M20.5,76.9c-0.2,0.4-0.9,0.3-1.3,0.4c-1.5,0.2-2.9,0.4-4.4,0.7c-1.9,0.3-3.9,0.6-5.8,0.9
	c-0.8,0-1.7-0.1-2.5-0.3c-0.4-0.2-0.8-0.3-1.3-0.5c-1.7-1-3-2.5-3.7-4.3c-0.2-0.7-0.3-1.5-0.3-2.2c0.1-0.8,0.2-1.6,0.4-2.3
	c1.3-2.9,3.3-5,7.3-5.1c1.9,0.3,3.9,0.6,5.8,0.9c1.3,0.2,2.9,0.4,4.4,0.7c0.4,0.1,1.2,0.1,1.3,0.4c0,0,0,0,0,0.1
	c-0.2,0.5-0.8,0.7-1.1,1.2c-0.3,0.4-0.7,0.8-1,1.3c-0.1,0.4-0.3,0.7-0.5,1.1c-0.2,0.9-0.3,1.9-0.2,2.8c0,0.3,0.2,0.7,0.2,1
	s0.3,0.7,0.4,1.1c0.2,0.2,0.4,0.5,0.5,0.8c0.2,0.3,0.5,0.6,0.8,0.9C19.9,76.4,20.4,76.4,20.5,76.9z"/>
<path class="st1" d="M11.8,71.4c0-0.9-0.8-1.6-1.7-1.6c-0.4,0-0.7,0.2-1,0.4c-0.2,0.2-0.3,0.3-0.4,0.5c-0.4,0.8,0,1.8,0.8,2.2
	c0.2,0.1,0.5,0.2,0.7,0.2C11,73.1,11.8,72.3,11.8,71.4C11.8,71.4,11.8,71.4,11.8,71.4z"/>
<path class="st1" d="M13.4,53.5c0-0.9-0.8-1.6-1.7-1.6c-0.4,0-0.7,0.2-1,0.4c-0.2,0.2-0.3,0.3-0.4,0.5c-0.4,0.8,0,1.8,0.8,2.2
	c0.2,0.1,0.5,0.2,0.7,0.2C12.7,55.2,13.4,54.5,13.4,53.5C13.4,53.5,13.4,53.5,13.4,53.5z"/>
<g id="breadboard">
	<path class="st2" d="M71.3,120.5c1.5,3.7,5.7,5.5,9.4,3.9c2.5-1,4.2-3.3,4.4-5.9c2.5,3.1,7,3.6,10.1,1.1c2.1-1.7,3.1-4.3,2.6-6.9
		c3.3,2.3,7.8,1.4,10-1.9c1.5-2.1,1.7-4.9,0.5-7.2c3.8,1.3,7.9-0.8,9.1-4.5c0.8-2.5,0.2-5.3-1.6-7.2c4,0.2,7.4-2.9,7.5-6.9
		c0.1-2.7-1.2-5.2-3.5-6.5c3.9-1,6.2-4.9,5.2-8.8c-0.7-2.6-2.7-4.6-5.2-5.2c3.4-2,4.6-6.5,2.5-9.9c-1.3-2.3-3.8-3.6-6.5-3.5
		c2.7-2.9,2.6-7.5-0.3-10.2c-1.9-1.8-4.7-2.4-7.2-1.6c1.8-3.6,0.4-7.9-3.2-9.7c-2.4-1.2-5.2-1-7.4,0.5c0.7-3.9-1.9-7.7-5.8-8.4
		c-2.6-0.5-5.3,0.5-6.9,2.6c-0.4-4-4-6.8-7.9-6.4c-2.6,0.3-4.9,2-5.9,4.4c-1.5-3.7-5.7-5.5-9.4-3.9c-2.5,1-4.2,3.3-4.4,5.9
		c-2.5-3.1-7-3.6-10.1-1.1c-2.1,1.7-3.1,4.3-2.6,6.9c-3.3-2.3-7.8-1.5-10.1,1.8c-1.5,2.2-1.7,5-0.5,7.4c-3.8-1.3-7.9,0.7-9.2,4.5
		c-0.9,2.5-0.3,5.3,1.6,7.3c-4-0.2-7.4,2.9-7.5,6.9c-0.1,2.7,1.2,5.2,3.5,6.5c-3.9,1-6.2,4.9-5.2,8.8c0.7,2.6,2.7,4.6,5.2,5.2
		c-3.4,2-4.6,6.5-2.5,9.9c1.3,2.3,3.8,3.6,6.5,3.5c-2.7,2.9-2.5,7.5,0.4,10.2c1.9,1.8,4.7,2.4,7.2,1.5c-1.8,3.6-0.4,7.9,3.2,9.7
		c2.4,1.2,5.2,1,7.4-0.5c-0.7,3.9,1.8,7.7,5.7,8.4c2.6,0.5,5.3-0.5,7-2.6c0.4,4,3.9,6.9,7.9,6.5C68.1,124.7,70.3,123,71.3,120.5
		L71.3,120.5z"/>
	<rect x="61.3" y="59.6" class="st3" width="23.5" height="23.5"/>
	<rect x="50.5" y="42.3" class="st3" width="13.4" height="9.6"/>
	<path class="st3" d="M52.2,32.6c0,1,0.7,1.8,1.7,2l0,0h6.8c1.1,0,2-0.9,2-2c0-1.1-0.9-2-2-2h-6.8l0,0
		C52.9,30.7,52.2,31.6,52.2,32.6z"/>
	<path class="st3" d="M52.2,38.4c0,1,0.7,1.8,1.7,2l0,0h6.8c1.1,0,2-0.9,2-2s-0.9-2-2-2h-6.8l0,0C52.9,36.6,52.2,37.4,52.2,38.4z"/>
	<path class="st3" d="M52.2,55.7c0,1,0.7,1.8,1.7,2l0,0h6.8c1.1,0,2-0.9,2-2s-0.9-2-2-2h-6.8l0,0C52.9,53.9,52.2,54.7,52.2,55.7z"/>
	<path class="st3" d="M67.9,87.8c0,1,0.7,1.8,1.7,2l0,0h6.8c1.1,0,2-0.9,2-2s-0.9-2-2-2h-6.8l0,0C68.6,85.9,67.9,86.8,67.9,87.8z"/>
	<path class="st3" d="M62.5,95.3c0,1,0.7,1.8,1.7,2l0,0h6.8c1.1,0,2-0.9,2-2s-0.9-2-2-2h-6.7l0,0C63.2,93.5,62.5,94.3,62.5,95.3z"/>
	<path class="st3" d="M49.9,95.3c0,1,0.7,1.8,1.7,2l0,0h6.8c1.1,0,2-0.9,2-2s-0.9-2-2-2h-6.7l0,0C50.6,93.5,49.9,94.3,49.9,95.3z"/>
	<text transform="matrix(0 1 -1 0 110.5195 43.72)" class="st4 st5 st6">2</text>
	<text transform="matrix(0 1 -1 0 101.5293 33.06)" class="st4 st5 st6">3</text>
	<text transform="matrix(0 1 -1 0 90.1406 25.57)" class="st4 st5 st6">4</text>
	<text transform="matrix(0 1 -1 0 76.6895 21.93)" class="st4 st5 st6">-</text>
	<text transform="matrix(0 1 -1 0 62.3809 21.93)" class="st4 st5 st6">+</text>
	<text transform="matrix(0 1 -1 0 49.6191 25.57)" class="st4 st5 st6">5</text>
	<text transform="matrix(0 1 -1 0 37.8906 33.06)" class="st4 st5 st6">6</text>
	<text transform="matrix(0 1 -1 0 29.1992 43.72)" class="st4 st5 st6">7</text>
	<text transform="matrix(0 1 -1 0 23.3496 55.7)" class="st4 st5 st6">8</text>
	<text transform="matrix(0 1 -1 0 20.5 69.64)" class="st4 st5 st6">9</text>
	<text transform="matrix(0 1 -1 0 22.7207 82)" class="st4 st5 st6">10</text>
	<text transform="matrix(0 1 -1 0 28.4199 94.41)" class="st4 st5 st6">1</text>
	<text transform="matrix(0 1 -1 0 28.4199 96.78)" class="st4 st5 st6">1</text>
	<text transform="matrix(0 1 -1 0 37.8906 104.94)" class="st4 st5 st6">12</text>
	<text transform="matrix(0 1 -1 0 48.4395 112.27)" class="st4 st5 st6">13</text>
	<text transform="matrix(0 1 -1 0 62.6504 115.49)" class="st4 st5 st6">a0</text>
	<text transform="matrix(0 1 -1 0 77.6191 115.49)" class="st4 st5 st6">a1</text>
	<text transform="matrix(0 1 -1 0 90.8105 112.27)" class="st4 st5 st6">a2</text>
	<text transform="matrix(0 1 -1 0 103 104.83)" class="st4 st5 st6">a3</text>
	<text transform="matrix(0 1 -1 0 111.5898 93.89)" class="st4 st5 st6">a4</text>
	<text transform="matrix(0 1 -1 0 117.4395 81.49)" class="st4 st5 st6">a5</text>
	<polygon class="st7" points="69.6,30.7 67.3,32.9 67.3,42.3 69.6,44.6 79,44.6 81.2,42.3 81.2,32.9 79,30.7 	"/>
	<rect x="66.2" y="32.9" class="st7" width="16.1" height="9.4"/>
	<rect x="69.6" y="29.6" class="st7" width="9.4" height="16.1"/>
	<polygon class="st8" points="70,31.4 68,33.4 68,41.9 70,43.9 78.5,43.9 80.5,41.9 80.5,33.4 78.5,31.4 	"/>
	<circle class="st9" cx="74.3" cy="37.7" r="3.4"/>
	<circle cx="69.3" cy="109.6" r="1.9"/>
	<circle cx="82" cy="102.8" r="1.9"/>
	<circle cx="82" cy="109.6" r="1.9"/>
	<circle cx="75.6" cy="102.8" r="1.9"/>
	<circle cx="75.6" cy="109.6" r="1.9"/>
	<circle cx="69.3" cy="102.8" r="1.9"/>
	<path class="st3" d="M90.2,94.9c0,1,0.7,1.8,1.7,2l0,0h6.8c1.1,0,2-0.9,2-2s-0.9-2-2-2h-6.8l0,0C90.8,93.1,90.1,93.9,90.2,94.9z"/>
	<text transform="matrix(0 1 -1 0 117.4395 55)" class="st4 st5 st6">1</text>
	<text transform="matrix(0 1 -1 0 110.3496 55)" class="st4 st5 st6">tx</text>
	<text transform="matrix(0 1 -1 0 119.0898 69.06)" class="st4 st5 st6">0</text>
	<text transform="matrix(0 1 -1 0 112 69.06)" class="st4 st5 st6">rx</text>
</g>
<polyline points="108.7,92.6 108.7,50.1 102.9,50.1 102.9,92.6 "/>
<polygon class="st10" points="127.9,59.6 130.2,60.2 130.2,61.3 127.9,61.9 107.3,61.9 107.3,59.6 "/>
<polygon class="st10" points="127.8,66.8 130.1,67.3 130.1,68.5 127.8,69.1 107.2,69.1 107.2,66.8 "/>
<polygon class="st10" points="127.9,73.8 130.2,74.3 130.2,75.5 127.9,76 107.3,76 107.3,73.8 "/>
<polygon class="st10" points="127.9,80.9 130.2,81.4 130.2,82.6 127.9,83.1 107.3,83.1 107.3,80.9 "/>
<polygon class="st10" points="127.9,87.9 130.2,88.5 130.2,89.7 127.9,90.2 107.3,90.2 107.3,87.9 "/>
</svg>
