<?xml version="1.0" encoding="utf-8"?>
<!-- Generator: Adobe Illustrator 21.0.0, SVG Export Plug-In . SVG Version: 6.00 Build 0)  -->
<svg version="1.1" id="Layer_1" xmlns="http://www.w3.org/2000/svg" xmlns:xlink="http://www.w3.org/1999/xlink" x="0px" y="0px"
	 viewBox="0 0 44.8 44.8" style="enable-background:new 0 0 44.8 44.8;" xml:space="preserve">
<title>sensor</title>
<g>
	<path style="fill:#17C0B7;" d="M42,18.9c-8.9,0-16.1-7.1-16.1-15.9c0-0.5-0.5-1-1-1H2.8c-0.6,0-1,0.4-1,1v38.8c0,0.5,0.5,1,1,1H42
		c0.6,0,1-0.4,1-1V19.9C43,19.4,42.6,18.9,42,18.9L42,18.9z M41.9,41.7h-2.8v-2.6c0-0.5-0.5-1-1-1s-1,0.4-1,1v2.6H24
		c0.2-0.3,0.4-1.6,0.5-1.9c0.2-0.5,0-1.1-0.5-1.3c-0.5-0.2-1.1,0-1.3,0.4c-0.3,0.5-0.5,1-0.8,1.5c-0.1,0.1-0.1,1.2-0.1,1.3H2.9V30.6
		l0.6-0.4c0.5-0.3,0.6-0.9,0.3-1.4c-0.2-0.3-0.6-0.5-0.9-0.5V16.7c0.5-0.2,0.7-0.7,0.6-1.2c-0.1-0.3-0.3-0.5-0.6-0.6V3.1h22
		c0.1,10,8.3,15.3,12.2,16.2v2.9c0,0.5,0.5,1,1,1c0.6,0,1-0.4,1-1v-2.5c0.6,0.1,2.2,0.2,2.8,0.2V41.7z M41,41.7"/>
	<path style="fill:#17C0B7;" d="M16.2,20.4l-1.6,1c-0.5,0.3-0.6,0.9-0.3,1.4c0.2,0.3,0.5,0.5,0.8,0.5c0.2,0,0.4-0.1,0.5-0.2l1.6-1
		c0.5-0.3,0.6-0.9,0.3-1.4C17.2,20.2,16.6,20.1,16.2,20.4L16.2,20.4z M16.2,20.4"/>
	<path style="fill:#17C0B7;" d="M21.8,17.9c-0.3-0.5-0.9-0.6-1.4-0.3l-1.6,1c-0.5,0.3-0.6,0.9-0.3,1.4c0.2,0.3,0.5,0.5,0.8,0.5
		c0.2,0,0.4-0.1,0.5-0.2l1.6-1C22,19,22.1,18.4,21.8,17.9L21.8,17.9z M21.8,17.9"/>
	<path style="fill:#17C0B7;" d="M7.6,25.8l-1.6,1c-0.5,0.3-0.6,0.9-0.3,1.4c0.2,0.3,0.5,0.5,0.8,0.5c0.2,0,0.4-0.1,0.5-0.2l1.6-1
		c0.5-0.3,0.6-0.9,0.3-1.4C8.7,25.6,8.1,25.5,7.6,25.8L7.6,25.8z M7.6,25.8"/>
	<path style="fill:#17C0B7;" d="M23.6,17.8c0.2,0,0.4-0.1,0.5-0.2l1.6-1c0.5-0.3,0.6-0.9,0.3-1.4c-0.3-0.5-0.9-0.6-1.4-0.3l-1.6,1
		c-0.5,0.3-0.6,0.9-0.3,1.4C23,17.6,23.3,17.8,23.6,17.8L23.6,17.8z M23.6,17.8"/>
	<path style="fill:#17C0B7;" d="M11.9,23.1l-1.6,1c-0.5,0.3-0.6,0.9-0.3,1.4c0.2,0.3,0.5,0.5,0.8,0.5c0.2,0,0.4-0.1,0.5-0.2l1.6-1
		c0.5-0.3,0.6-0.9,0.3-1.4C13,22.9,12.3,22.8,11.9,23.1L11.9,23.1z M11.9,23.1"/>
	<path style="fill:#17C0B7;" d="M38.1,33.5c-0.6,0-1,0.4-1,1v1.8c0,0.5,0.5,1,1,1s1-0.4,1-1v-1.8C39.1,33.9,38.6,33.5,38.1,33.5
		L38.1,33.5z M38.1,33.5"/>
	<path style="fill:#17C0B7;" d="M38.1,24.1c-0.6,0-1,0.4-1,1v1.8c0,0.5,0.5,1,1,1s1-0.4,1-1v-1.8C39.1,24.6,38.6,24.1,38.1,24.1
		L38.1,24.1z M38.1,24.1"/>
	<path style="fill:#17C0B7;" d="M38.1,28.8c-0.6,0-1,0.4-1,1v1.8c0,0.5,0.5,1,1,1s1-0.4,1-1v-1.8C39.1,29.2,38.6,28.8,38.1,28.8
		L38.1,28.8z M38.1,28.8"/>
	<path style="fill:#17C0B7;" d="M24.9,28.4c0.1,0,0.2,0,0.2,0c0.5-0.1,0.9-0.7,0.7-1.2c-0.2-0.6-0.3-1.2-0.6-1.8
		c-0.2-0.5-0.8-0.8-1.3-0.6c-0.5,0.2-0.8,0.8-0.6,1.3c0.2,0.5,0.4,1.1,0.5,1.6C24.1,28.1,24.5,28.4,24.9,28.4L24.9,28.4z M24.9,28.4
		"/>
	<path style="fill:#17C0B7;" d="M17.6,16.6c-0.6-0.3-1.1-0.6-1.7-0.9c-0.5-0.2-1.1,0-1.3,0.5c-0.2,0.5,0,1.1,0.5,1.3
		c0.5,0.2,1,0.5,1.5,0.8c0.2,0.1,0.3,0.1,0.5,0.1c0.3,0,0.7-0.2,0.9-0.5C18.3,17.4,18.1,16.8,17.6,16.6L17.6,16.6z M17.6,16.6"/>
	<path style="fill:#17C0B7;" d="M24.1,22.6c-0.3-0.5-0.7-1.1-1-1.6c-0.3-0.4-0.9-0.6-1.4-0.2c-0.5,0.3-0.6,0.9-0.2,1.4
		c0.3,0.5,0.6,0.9,0.9,1.4c0.2,0.3,0.5,0.5,0.9,0.5c0.2,0,0.3,0,0.5-0.1C24.2,23.7,24.3,23.1,24.1,22.6L24.1,22.6z M24.1,22.6"/>
	<path style="fill:#17C0B7;" d="M6.3,16.2c0,0,0.1,0,0.1,0c0.6-0.1,1.1-0.1,1.7-0.1c0.6,0,1-0.5,1-1c0-0.5-0.5-1-1-1
		c-0.6,0-1.3,0.1-1.9,0.1c-0.6,0.1-0.9,0.6-0.9,1.1C5.3,15.9,5.8,16.2,6.3,16.2L6.3,16.2z M6.3,16.2"/>
	<path style="fill:#17C0B7;" d="M25.3,29.3c-0.6,0-1,0.5-0.9,1.1c0,0.4,0,0.9,0,1.3c0,0.1,0,0.3,0,0.4c0,0.5,0.4,1,1,1c0,0,0,0,0,0
		c0.5,0,1-0.4,1-1c0-0.2,0-0.3,0-0.5c0-0.5,0-1-0.1-1.4C26.4,29.7,25.9,29.3,25.3,29.3L25.3,29.3z M25.3,29.3"/>
	<path style="fill:#17C0B7;" d="M13,14.7c-0.6-0.2-1.2-0.3-1.9-0.4c-0.5-0.1-1.1,0.3-1.1,0.8c-0.1,0.5,0.3,1,0.8,1.1
		c0.6,0.1,1.1,0.2,1.7,0.3c0.1,0,0.2,0,0.3,0c0.4,0,0.9-0.3,1-0.7C13.9,15.4,13.5,14.8,13,14.7L13,14.7z M13,14.7"/>
	<path style="fill:#17C0B7;" d="M25.3,34c-0.5-0.1-1.1,0.2-1.2,0.8c-0.1,0.6-0.2,1.1-0.4,1.6c-0.2,0.5,0.1,1.1,0.7,1.2
		c0.1,0,0.2,0,0.3,0c0.4,0,0.8-0.3,1-0.7c0.2-0.6,0.3-1.2,0.5-1.8C26.2,34.6,25.9,34.1,25.3,34L25.3,34z M25.3,34"/>
</g>
</svg>
