<svg id="Layer_1" data-name="Layer 1" xmlns="http://www.w3.org/2000/svg" viewBox="0 0 340.16 680.31"><defs><style>.cls-1,.cls-2{fill:#fff;}.cls-1{opacity:0;}.cls-2{stroke:#000;stroke-miterlimit:10;}</style></defs><title>render</title><rect class="cls-1" width="340.16" height="680.31"/><path class="cls-2" d="M335.73,269.68v0h0a466.57,466.57,0,0,0-3.27-56.41c-.12-1-.25-2-.37-2.93h0c-1.47,0-1.11-22.46-1.12-24.38,0-2.47-.08-5.06-.24-7.69-.58-9.52-2.51-19.6-8.79-26.52-5.13-5.65-16.75-5.2-22.49-.79a18.83,18.83,0,0,0-6,9c-5.35,15.64-3.13,33.41-1.91,50.39.39,5.45.68,10.82.57,16-.28,14.43-.48,28.89-1,43.32h0c-.46,12.72-1.17,25.42-2.43,38.09-.61,6.12-.76,12.71-2.21,18.67-.07.29-.19.76-.35,1.33-.91,3.22-3.2,9.71-6.14,6.67A4.33,4.33,0,0,1,279,332c-.88-5.26-1.43-10.53-1.77-15.8-1.19-18.33.31-36.71,1-55.1.39-9.89.48-19.76.43-29.63h0c-.13-22.18-1-44.34-1.08-66.55,0-.77,0-1.55,0-2.32.16-12.09.38-24.19-.34-36.27-.56-9.54-.05-24.12-7.9-31.11-9.38-8.36-22.84-5.08-30.55,3.85-10.32,12-7.69,29.26-7.37,43.8q.25,11,.31,22.06c.11,22.16-.43,44.43-2,66.55h0q-1.08,14.92-2.84,29.73c-1,9.57-1.59,19.21-1.81,28.83-.06,2.72.18,5.68.09,8.58-.1,3.33-.61,6.58-2.52,9.31-.91,1.31-2.74,2.12-4.15,1.38a4.83,4.83,0,0,1-2-3.17,73.56,73.56,0,0,1-2.1-10.52c-1.2-9.32-.93-18.76-.95-28.2,0-18.91-.69-38.06-1.45-57.19h0c-.36-9-.74-17.95-1.09-26.88-.56-14.25-1.49-28.63-1.24-42.9,0-1.11.05-2.22.09-3.33.35-12.31,1.37-24.59,1-36.92a137.07,137.07,0,0,0-1.73-18.92c-2-11.75-9.3-24.82-23-23.62-11.81,1-17.29,10.84-19.38,21.46-3.14,16-2.85,31.77-2.47,47.92q.12,5,.22,10.08c.28,13.86.46,27.72.39,41.58-.05,10.51-.25,21-.46,31.53h0c-.2,9.8-.41,19.6-.55,29.4-.14,10.3-.2,20.61-.06,30.92.13,9.28,1.29,18.86-.18,28.07-.06.39-.12.77-.19,1.16-.89,4.78-2.16,14.68-8.5,14.3-3.61-.22-5.42-3.51-6.41-7.24a65.82,65.82,0,0,1-1.39-9.26c-2.61-21-5.07-42.11-7.08-63.23h0c-1.65-17.4-3-34.82-3.84-52.25-.34-7-.59-13.91-.85-20.86-.34-8.89-.7-17.77-1.31-26.64-.84-12.26-1.28-29.49-13.31-36.76-8.29-5-18.52-.83-23.48,6.82-5.84,9-6.34,20.15-6.33,30.49q0,13,.18,26.08c.05,4.46.1,8.91.18,13.37q.55,29.92,1.93,59.81h0q.42,9.06.9,18.12c1.13,20.83,2.57,41.65,3.65,62.49a174.16,174.16,0,0,1-.17,23.15c-.15,1.94-.34,3.89-.58,5.89-1.24,10.3-3,20.53-4.55,30.8-2.3,15.63-4.28,32.21-10.58,46.84-.54,1.26-3.44-5.48-3.44-5.46-1-3.24-1.84-6.54-2.81-9.8-2.82-9.52-4.9-19.35-8.2-28.72a71.74,71.74,0,0,1-3.32-14.34h0c-1.06-7.79-1.28-15.57-2.55-23.75-2.35-15.13-5.59-33.28-14.67-46-6.85-9.57-18.37-20-31.13-17.89-9.12,1.52-10.32,12.84-11,20.26-.76,8.26.19,16.56.13,24.84-.12,15.19-.86,31,.7,46.32.31,3,.79,6,1.38,9h0c2.53,12.5,7.17,24.21,10,36.79a178.6,178.6,0,0,1,4.15,43.73c-.42,14.63-2.35,29.45,1.45,43.82s12.25,27,19.87,39.45C51,554,59.78,568.07,70.2,580.88s20,29.35,36.59,34.58a81.63,81.63,0,0,0,47.38.73l.18-.05c15.58-4.45,40.17-8.61,56.59-5.69,22.21,3.95,28.58,8.15,51.25,11.6,27.27,4.15,41-11.35,50.54-34.76,20.8-51.33,20.94-107.44,20.08-161.95-.36-22.65-.18-45.24.3-67.82.47-21.73,1.22-43.45,2.08-65.21q.26-6.57.43-13.14c.08-3.15.11-6.3.12-9.44h0S335.73,269.69,335.73,269.68Z"/></svg>