<?xml version="1.0" encoding="utf-8"?>
<!-- Generator: Adobe Illustrator 21.0.0, SVG Export Plug-In . SVG Version: 6.00 Build 0)  -->
<svg version="1.1" id="Layer_1" xmlns="http://www.w3.org/2000/svg" xmlns:xlink="http://www.w3.org/1999/xlink" x="0px" y="0px"
	 viewBox="0 0 19.3 19.3" style="enable-background:new 0 0 19.3 19.3;" xml:space="preserve">
<style type="text/css">
	.st0{fill:#FFFFFF;}
	.st1{fill:#FF004E;}
	.st2{fill:none;stroke:#FF004E;stroke-miterlimit:10;}
</style>
<title>routing</title>
<g>
	<circle class="st0" cx="9.7" cy="2.8" r="2.6"/>
	<g>
		<path class="st1" d="M9.7,0.5C11,0.5,12,1.6,12,2.8S11,5.2,9.7,5.2S7.3,4.1,7.3,2.8S8.4,0.5,9.7,0.5 M9.7,0C8.1,0,6.8,1.3,6.8,2.8
			s1.3,2.8,2.8,2.8s2.8-1.3,2.8-2.8S11.2,0,9.7,0L9.7,0z"/>
	</g>
</g>
<g>
	<circle class="st0" cx="16.5" cy="2.8" r="2.6"/>
	<g>
		<path class="st1" d="M16.5,0.5c1.3,0,2.3,1.1,2.3,2.3s-1.1,2.3-2.3,2.3s-2.3-1.1-2.3-2.3S15.2,0.5,16.5,0.5 M16.5,0
			c-1.6,0-2.8,1.3-2.8,2.8s1.3,2.8,2.8,2.8s2.8-1.3,2.8-2.8S18.1,0,16.5,0L16.5,0z"/>
	</g>
</g>
<g>
	<circle class="st1" cx="9.7" cy="9.6" r="2.8"/>
</g>
<g>
	<circle class="st1" cx="16.5" cy="9.6" r="2.8"/>
</g>
<g>
	<circle class="st0" cx="9.7" cy="16.4" r="2.6"/>
	<g>
		<path class="st1" d="M9.7,14.1c1.3,0,2.3,1.1,2.3,2.3c0,1.3-1.1,2.3-2.3,2.3s-2.3-1.1-2.3-2.3C7.3,15.1,8.4,14.1,9.7,14.1
			 M9.7,13.6c-1.6,0-2.8,1.3-2.8,2.8c0,1.6,1.3,2.8,2.8,2.8s2.8-1.3,2.8-2.8C12.5,14.8,11.2,13.6,9.7,13.6L9.7,13.6z"/>
	</g>
</g>
<g>
	<circle class="st1" cx="16.5" cy="16.4" r="2.8"/>
</g>
<g>
	<circle class="st1" cx="2.8" cy="2.8" r="2.8"/>
</g>
<g>
	<circle class="st0" cx="2.8" cy="9.6" r="2.6"/>
	<g>
		<path class="st1" d="M2.8,7.3c1.3,0,2.3,1.1,2.3,2.3S4.1,12,2.8,12s-2.3-1.1-2.3-2.3S1.6,7.3,2.8,7.3 M2.8,6.8
			C1.3,6.8,0,8.1,0,9.6s1.3,2.8,2.8,2.8s2.8-1.3,2.8-2.8S4.4,6.8,2.8,6.8L2.8,6.8z"/>
	</g>
</g>
<g>
	<circle class="st0" cx="2.8" cy="16.4" r="2.6"/>
	<g>
		<path class="st1" d="M2.8,14.1c1.3,0,2.3,1.1,2.3,2.3c0,1.3-1.1,2.3-2.3,2.3s-2.3-1.1-2.3-2.3C0.5,15.1,1.6,14.1,2.8,14.1
			 M2.8,13.6c-1.6,0-2.8,1.3-2.8,2.8c0,1.6,1.3,2.8,2.8,2.8s2.8-1.3,2.8-2.8C5.7,14.8,4.4,13.6,2.8,13.6L2.8,13.6z"/>
	</g>
</g>
<line class="st2" x1="12.2" y1="9.6" x2="13.9" y2="9.6"/>
<line class="st2" x1="2.8" y1="2.8" x2="9.7" y2="9.6"/>
<line class="st2" x1="16.5" y1="13.9" x2="16.5" y2="12.2"/>
</svg>
