<svg id="Layer_1" data-name="Layer 1" xmlns="http://www.w3.org/2000/svg" viewBox="0 0 44.79 44.79"><defs><style>.cls-1{fill:none;stroke:#17c0b7;stroke-miterlimit:10;}</style></defs><title>sensorActive</title><rect class="cls-1" x="7.5" y="2.03" width="5.48" height="3"/><ellipse class="cls-1" cx="10.24" cy="1.02" ry="1.02"/><rect class="cls-1" x="19.66" y="2.03" width="5.48" height="3"/><ellipse class="cls-1" cx="22.4" cy="1.02" ry="1.02"/><rect class="cls-1" x="31.81" y="2.03" width="5.48" height="3"/><ellipse class="cls-1" cx="34.55" cy="1.02" ry="1.02"/><rect class="cls-1" x="7.5" y="39.76" width="5.48" height="3"/><ellipse class="cls-1" cx="10.24" cy="43.78" ry="1.02"/><rect class="cls-1" x="19.66" y="39.76" width="5.48" height="3"/><ellipse class="cls-1" cx="22.4" cy="43.78" ry="1.02"/><rect class="cls-1" x="31.81" y="39.76" width="5.48" height="3"/><ellipse class="cls-1" cx="34.55" cy="43.78" ry="1.02"/><rect class="cls-1" x="5.15" y="5.15" width="34.5" height="34.5"/><rect class="cls-1" x="3.79" y="36.05" width="5.48" height="3" transform="translate(-34.01 41.08) rotate(-90)"/><ellipse class="cls-1" cx="1.02" cy="34.55" ry="1.02"/><rect class="cls-1" x="3.79" y="23.89" width="5.48" height="3" transform="translate(-21.86 28.92) rotate(-90)"/><ellipse class="cls-1" cx="1.02" cy="22.4" ry="1.02"/><rect class="cls-1" x="3.79" y="11.73" width="5.48" height="3" transform="translate(-9.7 16.77) rotate(-90)"/><ellipse class="cls-1" cx="1.02" cy="10.24" ry="1.02"/><rect class="cls-1" x="41.51" y="36.05" width="5.48" height="3" transform="translate(3.71 78.81) rotate(-90)"/><ellipse class="cls-1" cx="43.78" cy="34.55" ry="1.02"/><rect class="cls-1" x="41.51" y="23.89" width="5.48" height="3" transform="translate(15.87 66.65) rotate(-90)"/><ellipse class="cls-1" cx="43.78" cy="22.4" ry="1.02"/><rect class="cls-1" x="41.51" y="11.73" width="5.48" height="3" transform="translate(28.03 54.49) rotate(-90)"/><ellipse class="cls-1" cx="43.78" cy="10.24" ry="1.02"/><ellipse class="cls-1" cx="7.72" cy="7.95" ry="0.23"/><ellipse class="cls-1" cx="37.08" cy="7.95" ry="0.23"/><ellipse class="cls-1" cx="7.72" cy="36.84" ry="0.23"/><ellipse class="cls-1" cx="37.08" cy="36.84" ry="0.23"/><rect class="cls-1" x="10.24" y="11.95" width="24.32" height="20.9"/><line class="cls-1" x1="10.11" y1="7.95" x2="34.68" y2="7.95"/><line class="cls-1" x1="10.11" y1="36.69" x2="34.68" y2="36.69"/><circle class="cls-1" cx="16.26" cy="28.28" r="2.17"/><circle class="cls-1" cx="22.4" cy="17.46" r="2.17"/><circle class="cls-1" cx="28.4" cy="20.73" r="2.17"/><line class="cls-1" x1="22.4" y1="19.63" x2="22.4" y2="32.84"/><polyline class="cls-1" points="28.4 22.91 28.4 26.59 22.4 26.59 22.4 22.25 16.26 22.25 16.26 26.11"/></svg>