<?xml version="1.0" encoding="utf-8"?>
<!-- Generator: Adobe Illustrator 21.0.0, SVG Export Plug-In . SVG Version: 6.00 Build 0)  -->
<svg version="1.1" id="Layer_1" xmlns="http://www.w3.org/2000/svg" xmlns:xlink="http://www.w3.org/1999/xlink" x="0px" y="0px"
	 viewBox="0 0 477.7 124.3" style="enable-background:new 0 0 477.7 124.3;" xml:space="preserve">
<g>
	<path d="M143,47.2l-1.2,4.3h-24.9V16.3l1.2-4.3H143v11.5l-1.2,4.3h-6.3v6.1l-1.2,1.8h8.7V47.2z M141.1,45.3v-7.7h-12.2V32h4.7v-5.5
		h-4.7v-5h12.2v-7.7h-21v31.5H141.1z"/>
	<path d="M179.5,47.2l-1.2,4.3h-37.2V22.9l1.2-4.3h13.4l6.7-6.6h17.1V47.2z M177.5,45.3V13.9h-14.4l-6.7,6.6h-12.2v24.8h8.9V28.2
		h3.3v17.2h8.9V21.5h3.3v23.8H177.5z"/>
	<path d="M203.7,18.3v6.9l-0.6,2.2h0.6v12.1l-1.2,4.3l-7.8,7.8h-17.1V16.3l1.2-4.3h17L203.7,18.3z M201.8,38.7v-9.3h-4.9l4.9-4.9
		v-5.2l-6.7-5.4h-14.3v31.5h14.4L201.8,38.7z M192.9,26.5h-3.3v-5h3.3V26.5z M192.9,37.7h-3.3V32h3.3V37.7z"/>
	<path d="M227.9,18.3v13.4l-0.7,1.5l0.7,0.7v17.4l-1.2,4.3h-12.7v-4.1h-12.2V16.3l1.2-4.3h17L227.9,18.3z M225.9,19.3l-6.7-5.4
		h-14.3v31.5h8.8V32.5l3.3,3.4v13.6h8.9V34.7l-4.9-4.9l4.9,0V19.3z M217.1,26.5h-3.3v-5h3.3V26.5z"/>
	<path d="M252.1,47.2l-1.2,4.3h-17.1l-7.9-7.8V16.3l1.2-4.3h17.1l7.8,7.9V47.2z M250.2,45.3V20.6l-6.7-6.7h-14.3v24.8l6.7,6.6H250.2
		z M241.2,37.7h-3.3V21.5h3.3V37.7z"/>
	<path d="M264.1,47.2l-1.2,4.3h-12.7V16.3l1.2-4.3h12.7V47.2z M262.1,20.7v-6.8h-8.8v6.8H262.1z M262.1,45.3V24h-8.8v21.3H262.1z"/>
	<path d="M288.3,39.5l-1.2,4.3l-7.8,7.8h-17.1V16.3l1.2-4.3h17.4l7.6,11.7V39.5z M286.4,38.7V24.2l-6.7-10.3h-14.4v31.5h14.4
		L286.4,38.7z M277.5,37.7h-3.3V21.5h3.3V37.7z"/>
	<path d="M312.4,47.2l-1.2,4.3h-24.9V16.3l1.2-4.3h24.9v11.5l-1.2,4.3H305v6.1l-1.2,1.8h8.7V47.2z M310.5,45.3v-7.7h-12.2V32h4.7
		v-5.5h-4.7v-5h12.2v-7.7h-21v31.5H310.5z"/>
	<path d="M336.6,18.3v13.4l-0.7,1.5l0.7,0.7v17.4l-1.2,4.3h-12.7v-4.1h-12.2V16.3l1.2-4.3h17L336.6,18.3z M334.7,19.3l-6.7-5.4
		h-14.3v31.5h8.8V32.5l3.3,3.4v13.6h8.9V34.7l-4.9-4.9l4.9,0V19.3z M325.8,26.5h-3.3v-5h3.3V26.5z"/>
	<path d="M360.9,33.9l-1.2,4.3h-4.3v9l-1.2,4.3h-12.7V37.1l-6.7-6.6V16.3l1.2-4.3h25V33.9z M359,32V13.9H350v12.7h-3.3V13.9h-8.8
		v11.6l6.7,6.6v13.3h8.8V32H359z"/>
	<path d="M57.7,80.2l-0.4,1.2h0.4v16.4l-1.3,4.3l-5.6,6.3H31.5v-11l1.2-2.4h-1.2V82.2l8.8-13.5h17.3V80.2z M55.8,78.3v-7.7H41.4
		l-6.7,10.2v7.9H48V95H34.7v7.1h16.5l4.6-5.1V83.3H43.4v-5H55.8z"/>
	<path d="M94.1,104l-1.2,4.3H55.7V79.7l1.2-4.3h13.4l6.7-6.6h17.1V104z M92.2,102.1V70.6H77.8l-6.7,6.6H58.9v24.8h8.9V84.9h3.3v17.2
		H80V78.3h3.3v23.8H92.2z"/>
	<path d="M118.4,104l-1.2,4.3h-25V73.1l1.2-4.3h17.4l7.6,11.7V104z M116.4,102.1V81l-6.7-10.3H95.4v31.5h8.8V88.8h3.4v13.3H116.4z
		 M107.6,83.3h-3.4v-6.5L107.6,83.3z"/>
	<path d="M142.5,75.1v13.4l-0.7,1.5l0.7,0.7v17.4l-1.2,4.3h-12.7v-4.1h-12.2V73.1l1.2-4.3h17L142.5,75.1z M140.6,76l-6.7-5.4h-14.3
		v31.5h8.8V89.2l3.3,3.4v13.6h8.9V91.5l-4.9-4.9l4.9,0V76z M131.7,83.3h-3.3v-5h3.3V83.3z"/>
	<path d="M166.7,104l-1.2,4.3h-17.3l-7.6-11.7V73.1l1.2-4.3h12.7v3.9h12.2V104z M164.8,83.3h-8.9v11.1h-3.3V80h12.2v-5.5h-12.2v-3.9
		h-8.8v21.2l6.7,10.2h14.4V83.3z"/>
	<path d="M178.7,90.7l-1.2,4.3h-12.7V84.4L166,80h12.7V90.7z M176.8,88.8V82H168v6.8H176.8z"/>
	<path d="M202.9,108.1l-1.2,4.3H189v-4.1h-4.6l-7.6-11.7V73.1l1.2-4.3h24.9V108.1z M201,80.8h-8.9v13.6h-3.3v-17H201v-6.8h-21v21.2
		l6.7,10.2h5.5v4.1h8.9V80.8z"/>
	<path d="M225,104l-1.2,4.3H201V73.1l1.2-4.3h12.7v23.8H225V104z M223.1,102.1v-7.7H213V70.6h-8.8v31.5H223.1z"/>
	<path d="M249.2,104l-1.2,4.3H231l-7.9-7.8V73.1l1.2-4.3h17.1l7.8,7.9V104z M247.3,102.1V77.4l-6.7-6.7h-14.3v24.8l6.7,6.6H247.3z
		 M238.4,94.4h-3.3V78.3h3.3V94.4z"/>
	<path d="M273.4,96.3l-1.2,4.3l-7.8,7.8h-17.1V73.1l1.2-4.3h25V96.3z M271.5,95.5V70.6h-8.9v23.8h-3.3V70.6h-8.9v31.5h14.4
		L271.5,95.5z"/>
	<path d="M297.6,104l-1.2,4.3h-24.9V73.1l1.2-4.3h24.9v11.5l-1.2,4.3h-6.3v6.1l-1.2,1.8h8.7V104z M295.7,102.1v-7.7h-12.2v-5.6h4.7
		v-5.5h-4.7v-5h12.2v-7.7h-21v31.5H295.7z"/>
	<path d="M349.4,104l-1.2,4.3H311V73.1l1.2-4.3h17.1l6.7,6.6h13.4V104z M347.5,102.1V77.3h-12.2l-6.7-6.6h-14.4v31.5h8.9V78.3h3.3
		v23.8h8.9V84.9h3.3v17.2H347.5z"/>
	<path d="M373.6,104l-1.2,4.3h-25V73.1l1.2-4.3h17.4l7.6,11.7V104z M371.7,102.1V81L365,70.6h-14.4v31.5h8.8V88.8h3.4v13.3H371.7z
		 M362.8,83.3h-3.4v-6.5L362.8,83.3z"/>
	<path d="M397.8,108.1l-1.2,4.3h-12.7v-4.1h-12.2V73.1l1.2-4.3h12.7v4.1h12.2v9.3l-0.7,2.2h0.7V108.1z M395.8,106.2v-20H391l4.9-4.9
		v-6.5H387v5.5l-3.3,3.3V70.6h-8.8v31.5h8.8V89.5h3.3v16.7H395.8z"/>
	<path d="M422,104l-1.2,4.3h-24.9V73.1l1.2-4.3H422v11.5l-1.2,4.3h-6.3v6.1l-1.2,1.8h8.7V104z M420,102.1v-7.7h-12.2v-5.6h4.7v-5.5
		h-4.7v-5H420v-7.7h-21v31.5H420z"/>
	<path d="M446.2,75.1v13.4l-0.7,1.5l0.7,0.7v17.4l-1.2,4.3h-12.7v-4.1H420V73.1l1.2-4.3h17L446.2,75.1z M444.2,76l-6.7-5.4h-14.3
		v31.5h8.8V89.2l3.3,3.4v13.6h8.9V91.5l-4.9-4.9l4.9,0V76z M435.4,83.3h-3.3v-5h3.3V83.3z"/>
</g>
</svg>
