<?xml version="1.0" encoding="utf-8"?>
<!-- Generator: Adobe Illustrator 21.0.0, SVG Export Plug-In . SVG Version: 6.00 Build 0)  -->
<svg version="1.1" id="Capa_1" xmlns="http://www.w3.org/2000/svg" xmlns:xlink="http://www.w3.org/1999/xlink" x="0px" y="0px"
	 viewBox="0 0 512 512" style="enable-background:new 0 0 512 512;" xml:space="preserve">
<linearGradient id="SVGID_1_" gradientUnits="userSpaceOnUse" x1="256.1472" y1="326.6302" x2="256.1472" y2="765.6219" gradientTransform="matrix(0.9998 0 0 0.9998 -9.598875e-02 -254.0168)">
	<stop  offset="0" style="stop-color:#F52A7C"/>
	<stop  offset="1" style="stop-color:#FD2800"/>
</linearGradient>
<path style="fill:url(#SVGID_1_);" d="M445.7,511.5H66.3c-24.3,0-46-12.7-57.8-34c-11.9-21.3-11.3-46.3,1.5-67l189.7-306.5l0,0
	c12.1-19.7,33.2-31.4,56.3-31.4s44.2,11.7,56.3,31.4L502,410.5c12.8,20.7,13.4,45.8,1.5,67C491.6,498.8,470,511.5,445.7,511.5z
	 M256,112.5c-9.3,0-17.4,4.5-22.3,12.4l0,0L44,431.5c-5.1,8.2-5.3,18.1-0.6,26.5s13.2,13.4,22.9,13.4h379.4c9.6,0,18.2-5,22.9-13.4
	s4.5-18.3-0.6-26.5L278.3,125C273.4,117.1,265.3,112.5,256,112.5z M276,396.5h-40v40h40V396.5z M276,199.5h-40v157h40V199.5z"/>
</svg>
